<?xml version="1.0" encoding="utf-8"?>
<!-- Generator: Adobe Illustrator 30.0.0, SVG Export Plug-In . SVG Version: 9.03 Build 0)  -->
<svg version="1.0" id="Layer_1" xmlns="http://www.w3.org/2000/svg" xmlns:xlink="http://www.w3.org/1999/xlink" x="0px" y="0px"
	 viewBox="0 0 2500 668.9" style="enable-background:new 0 0 2500 668.9;" xml:space="preserve">
<style type="text/css">
	.st0{fill:#FFFDF5;}
	.st1{fill:#E45258;}
	.st2{fill:none;stroke:#E45258;stroke-width:5.9996;stroke-linecap:round;stroke-miterlimit:3.9997;}
	.st3{clip-path:url(#SVGID_00000129165962691331271500000001198130432792009907_);}
	.st4{clip-path:url(#SVGID_00000022531088983295608410000010820108486186747299_);}
	.st5{clip-path:url(#SVGID_00000104708009172842263450000003914709157414891668_);}
	.st6{clip-path:url(#SVGID_00000114785680487678606660000015546464882408289414_);}
	.st7{clip-path:url(#SVGID_00000183216589534604105600000001844609382074676668_);}
	.st8{clip-path:url(#SVGID_00000083056052038290896310000005207920863870693813_);}
	.st9{clip-path:url(#SVGID_00000111189626844825394620000011924995674740010913_);}
	.st10{clip-path:url(#SVGID_00000060027439763126264450000007659742049602252961_);}
	.st11{clip-path:url(#SVGID_00000147911400336837078520000017412175844140349886_);}
	.st12{clip-path:url(#SVGID_00000018918466749400986860000008092934312716501390_);}
	.st13{clip-path:url(#SVGID_00000145745554826960225710000011689462185049741185_);}
	.st14{clip-path:url(#SVGID_00000117668867994268102510000014010179765389737145_);}
	.st15{clip-path:url(#SVGID_00000031169308584781905010000006920782299209672621_);}
	.st16{clip-path:url(#SVGID_00000044877820957284838170000003437200208630660225_);}
	.st17{clip-path:url(#SVGID_00000099658831831009188220000009189713003827746949_);}
	.st18{clip-path:url(#SVGID_00000133515344631096237220000010430980945268611222_);}
	.st19{clip-path:url(#SVGID_00000044869835939668462470000010625632422839403946_);}
	.st20{clip-path:url(#SVGID_00000011017566782554504840000014142387158651241105_);}
	.st21{clip-path:url(#SVGID_00000060751368114775201140000008592606899693822387_);}
	.st22{clip-path:url(#SVGID_00000031175312586313045680000004072305845482360242_);}
	.st23{clip-path:url(#SVGID_00000106121488832176112640000004048152276133966489_);}
	.st24{clip-path:url(#SVGID_00000069390906435827127200000016296819890970943616_);}
	.st25{clip-path:url(#SVGID_00000122680155410767289980000017908873446368371104_);}
	.st26{clip-path:url(#SVGID_00000111172174381897908770000017979718725907545990_);}
	.st27{clip-path:url(#SVGID_00000126297697082610912470000007150626648803165114_);}
	.st28{clip-path:url(#SVGID_00000039827107601811398310000003767274614180524952_);}
	.st29{clip-path:url(#SVGID_00000160172221601375621470000000686816304242656128_);}
	.st30{clip-path:url(#SVGID_00000119821999335008948620000005463121298652601491_);}
	.st31{clip-path:url(#SVGID_00000058572958434405352100000013036321664343221142_);}
	.st32{clip-path:url(#SVGID_00000129204470438946369560000011217739329445824146_);}
	.st33{clip-path:url(#SVGID_00000048495003316692878670000000575326459396947899_);}
	.st34{clip-path:url(#SVGID_00000166636431801516118720000013738948518455863942_);}
	.st35{clip-path:url(#SVGID_00000153693376973068818280000011510486769566687360_);}
	.st36{clip-path:url(#SVGID_00000044869550334146108210000004698717196937372087_);}
	.st37{clip-path:url(#SVGID_00000176753151398553847240000003076475413482687906_);}
	.st38{clip-path:url(#SVGID_00000074437433183309469850000009370644234208249220_);}
	.st39{clip-path:url(#SVGID_00000150066254963374678430000006131366562953498242_);}
	.st40{clip-path:url(#SVGID_00000010283219243818409840000000542125262599782809_);}
	.st41{clip-path:url(#SVGID_00000103263005860760697330000010772397678032504198_);}
	.st42{clip-path:url(#SVGID_00000039121743984174274440000008835879668851072680_);}
	.st43{clip-path:url(#SVGID_00000090290482194310983660000010945746616518593443_);}
	.st44{clip-path:url(#SVGID_00000066475598725865153400000016121661118012553879_);}
	.st45{clip-path:url(#SVGID_00000137817071897404747480000008964674628646390716_);}
	.st46{clip-path:url(#SVGID_00000093176812664952655620000013453918990365494692_);}
	.st47{clip-path:url(#SVGID_00000116940710051347857110000016215729616601130941_);}
	.st48{clip-path:url(#SVGID_00000177443799062184939920000005493442408944630453_);}
	.st49{clip-path:url(#SVGID_00000139984328730731811030000009549411710547036862_);}
	.st50{clip-path:url(#SVGID_00000134928669448897019760000002960964322526223272_);}
	.st51{clip-path:url(#SVGID_00000093153220716017960760000006506933363179475590_);}
	.st52{clip-path:url(#SVGID_00000114767086141991742120000014191214830218378401_);}
	.st53{clip-path:url(#SVGID_00000161604224963612507070000009967125316568550329_);}
	.st54{clip-path:url(#SVGID_00000179646711839716538820000010700003697360593283_);}
	.st55{clip-path:url(#SVGID_00000164502858388812507060000018015017049972364475_);}
	.st56{clip-path:url(#SVGID_00000082341387739520398010000013994367015097624200_);}
	.st57{clip-path:url(#SVGID_00000009572717615555635610000017565525739952542617_);}
	.st58{clip-path:url(#SVGID_00000098941342263274229110000013814420610426708647_);}
	.st59{clip-path:url(#SVGID_00000121994335465733188710000005348413022138172312_);}
	.st60{clip-path:url(#SVGID_00000093893266996362264860000007269189256364802482_);}
	.st61{clip-path:url(#SVGID_00000124863312808135023040000010591169967451672746_);}
	.st62{clip-path:url(#SVGID_00000126310435600197614490000006711882364776538032_);}
	.st63{clip-path:url(#SVGID_00000180336116543420856230000005039050088400974988_);}
	.st64{clip-path:url(#SVGID_00000114058617247381887160000014032888028482253460_);}
	.st65{clip-path:url(#SVGID_00000106865279465939558690000015342793549083618999_);}
	.st66{clip-path:url(#SVGID_00000123399088530611809680000007329730069679846820_);}
	.st67{clip-path:url(#SVGID_00000161595819274208050160000013720932548715905194_);}
</style>
<g>
	<g transform="translate(456.550388, 800.942468)">
		<g>
			<path class="st0" d="M189.9-161.9c0,7.3-1.3,12.7-3.8,16.1c-2.5,3.5-6.9,5.2-12.9,5.2c-10.8,0-16.5-6.2-17-18.6
				c0-0.7,0.3-1.1,0.8-1.2l6.3-1.2c0.8-0.1,1.2,0.2,1.2,1c0.2,4.5,1.1,7.6,2.5,9.4c1.5,1.8,3.6,2.7,6.3,2.7c2.8,0,4.8-0.8,6.1-2.5
				c1.3-1.7,2-5,2-9.9c0-2.1-0.1-3.8-0.3-5.3c-0.2-1.5-0.6-2.7-1.2-3.8c-0.6-1-1.3-1.9-2.3-2.6c-1-0.7-2.1-1.3-3.6-1.9l-4.4-1.7
				c-2.5-0.9-4.5-2-6.2-3.1c-1.6-1.2-2.9-2.5-3.9-4c-0.9-1.5-1.6-3.3-2-5.4c-0.4-2.1-0.6-4.5-0.6-7.3c0-12.5,5.4-18.7,16.2-18.7
				c5.4,0,9.5,1.5,12,4.4c2.6,2.9,4,7.2,4.3,12.9c0,0.7-0.3,1.1-1,1.2l-5.9,1c-0.4,0.1-0.7,0.1-0.9,0c-0.2-0.2-0.3-0.4-0.3-0.8
				c-0.1-3.6-0.8-6.3-2.1-8c-1.2-1.7-3.2-2.6-6-2.6c-2.7,0-4.7,0.8-6,2.5c-1.3,1.7-1.9,4.3-1.9,8c0,1.8,0.1,3.4,0.4,4.8
				c0.2,1.3,0.7,2.4,1.2,3.3c0.6,0.9,1.3,1.7,2.3,2.3c1,0.6,2.2,1.2,3.7,1.8l4.4,1.7c2.3,0.9,4.3,2,5.9,3.1c1.6,1.1,2.9,2.5,3.9,4.1
				c1,1.6,1.7,3.5,2.1,5.6C189.6-167.5,189.9-164.9,189.9-161.9z"/>
		</g>
	</g>
</g>
<g>
	<g transform="translate(534.246858, 800.942468)">
		<g>
			<path class="st0" d="M200.6-140.6c-4.1,0-7.5-0.9-10.1-2.8c-2.7-1.8-4.6-4.5-5.7-8c-0.3-0.8-0.5-1.6-0.7-2.5
				c-0.2-0.9-0.3-2.3-0.4-4.1c-0.1-1.8-0.2-4.3-0.2-7.4c0-3.1,0-7.2,0-12.3c0-5.1,0-9.2,0-12.3c0-3.1,0.1-5.6,0.2-7.4
				c0.1-1.8,0.3-3.2,0.4-4.1c0.2-0.9,0.4-1.8,0.7-2.6c1.1-3.5,3-6.1,5.7-8c2.7-1.8,6-2.8,10.1-2.8c4.1,0,7.5,0.9,10.2,2.8
				c2.7,1.8,4.6,4.5,5.6,8c0.3,0.8,0.5,1.6,0.7,2.6c0.2,0.9,0.3,2.3,0.4,4.1c0.1,1.8,0.2,4.3,0.2,7.4c0,3.1,0.1,7.2,0.1,12.3
				c0,5.1,0,9.2-0.1,12.3c0,3.1-0.1,5.6-0.2,7.4c-0.1,1.8-0.2,3.2-0.4,4.1c-0.2,0.9-0.4,1.8-0.7,2.5c-1.1,3.5-2.9,6.1-5.6,8
				C208.1-141.5,204.7-140.6,200.6-140.6z M200.6-148.7c1.9,0,3.5-0.4,4.8-1.3c1.3-0.9,2.3-2.2,2.8-3.8c0.2-0.5,0.3-1.1,0.4-1.7
				c0.1-0.7,0.2-1.8,0.3-3.4c0.1-1.6,0.1-3.9,0.1-6.8c0-2.9,0.1-6.9,0.1-12c0-5,0-9-0.1-11.9c0-2.9-0.1-5.2-0.1-6.8
				c-0.1-1.6-0.2-2.7-0.3-3.4c-0.1-0.6-0.2-1.2-0.4-1.8c-0.6-1.6-1.5-2.9-2.8-3.8c-1.3-0.9-2.9-1.3-4.8-1.3c-4,0-6.5,1.7-7.5,5.1
				c-0.2,0.6-0.4,1.2-0.5,1.8c-0.1,0.6-0.2,1.8-0.3,3.4c-0.1,1.6-0.1,3.9-0.2,6.8c0,2.9,0,6.9,0,11.9c0,5,0,9,0,12
				c0,2.9,0.1,5.2,0.2,6.8c0.1,1.6,0.2,2.7,0.3,3.4c0.1,0.7,0.3,1.2,0.5,1.7C194.1-150.4,196.6-148.7,200.6-148.7z"/>
		</g>
	</g>
</g>
<g>
	<g transform="translate(614.333801, 800.942468)">
		<g>
			<path class="st0" d="M211.2-212.7c0-0.7,0.4-1.1,1.1-1.1h27.3c0.7,0,1.1,0.4,1.1,1.1v5.8c0,0.7-0.4,1.1-1.1,1.1h-19.1
				c-0.4,0-0.6,0.2-0.6,0.6v23c0,0.4,0.2,0.6,0.6,0.6H237c0.7,0,1.1,0.4,1.1,1.1v5.9c0,0.7-0.4,1.1-1.1,1.1h-16.6
				c-0.4,0-0.6,0.2-0.6,0.6v30.4c0,0.7-0.4,1.1-1.1,1.1h-6.5c-0.7,0-1.1-0.4-1.1-1.1V-212.7z"/>
		</g>
	</g>
</g>
<g>
	<g transform="translate(689.79916, 800.942468)">
		<g>
			<path class="st0" d="M246.4-141.5c-0.7,0-1.1-0.4-1.1-1.1v-62.6c0-0.4-0.2-0.6-0.6-0.6h-11.9c-0.7,0-1.1-0.4-1.1-1.1v-5.8
				c0-0.7,0.4-1.1,1.1-1.1h33.7c0.7,0,1.1,0.4,1.1,1.1v5.8c0,0.7-0.4,1.1-1.1,1.1h-11.9c-0.4,0-0.6,0.2-0.6,0.6v62.6
				c0,0.7-0.4,1.1-1.1,1.1H246.4z"/>
		</g>
	</g>
</g>
<g>
	<g transform="translate(765.662931, 800.942468)">
		<g>
			<path class="st0" d="M295.6-141.5c-0.6,0-0.9-0.4-1.1-1.1l-8.4-51.4h-0.2l-8.7,51.4c-0.2,0.7-0.5,1.1-1.1,1.1h-5.6
				c-0.6,0-0.9-0.4-1.1-1.1L258-212.7c-0.2-0.7,0.1-1.1,0.8-1.1h6.5c0.7,0,1.1,0.4,1.2,1.1l7,51.9h0.2l8.8-51.9
				c0.1-0.7,0.4-1.1,1.1-1.1h4.7c0.6,0,1,0.4,1.1,1.1l8.8,51.9h0.2l7.2-51.9c0.1-0.7,0.5-1.1,1.2-1.1h6.3c0.7,0,1,0.4,0.9,1.1
				l-11.5,70.1c-0.1,0.7-0.5,1.1-1.1,1.1H295.6z"/>
		</g>
	</g>
</g>
<g>
	<g transform="translate(858.020953, 800.942468)">
		<g>
			<path class="st0" d="M303.4-212.7c0.2-0.7,0.6-1.1,1.2-1.1h6.4c0.6,0,1,0.4,1.2,1.1l15.2,70.1c0.1,0.7-0.2,1.1-1,1.1H320
				c-0.6,0-1-0.4-1.2-1.1l-3.2-15.8h-16l-3.2,15.8c-0.1,0.7-0.5,1.1-1.1,1.1H289c-0.8,0-1.1-0.4-1-1.1L303.4-212.7z M314.1-165.9
				l-6.1-31.5h-0.3l-6.6,31.5H314.1z"/>
		</g>
	</g>
</g>
<g>
	<g transform="translate(936.832969, 800.942468)">
		<g>
			<path class="st0" d="M345.5-141.5c-0.6,0-1-0.2-1.2-0.8l-9-30.2c-0.5,0.1-1,0.1-1.5,0.1c-0.5,0-1,0-1.5,0H328
				c-0.4,0-0.6,0.2-0.6,0.6v29.1c0,0.7-0.4,1.1-1.1,1.1h-6.5c-0.7,0-1.1-0.4-1.1-1.1v-70.1c0-0.7,0.4-1.1,1.1-1.1h12.6
				c6.4,0,11.2,1.6,14.5,4.7c3.3,3.1,5,8.5,5,16.1c0,4.9-0.8,8.8-2.3,11.8c-1.5,3-3.7,5.2-6.5,6.6l10.1,32c0.3,0.7,0.1,1.1-0.5,1.1
				H345.5z M332.5-180.1c3.8,0,6.5-0.9,8.2-2.7c1.7-1.8,2.6-5.2,2.6-10.1c0-4.9-0.9-8.3-2.6-10.1c-1.7-1.8-4.5-2.8-8.3-2.8H328
				c-0.4,0-0.6,0.2-0.6,0.6v24.4c0,0.4,0.2,0.6,0.6,0.6H332.5z"/>
		</g>
	</g>
</g>
<g>
	<g transform="translate(1016.84022, 800.942468)">
		<g>
			<path class="st0" d="M345.4-212.7c0-0.7,0.4-1.1,1.1-1.1h27.3c0.7,0,1.1,0.4,1.1,1.1v5.8c0,0.7-0.4,1.1-1.1,1.1h-19.1
				c-0.4,0-0.6,0.2-0.6,0.6v22.5c0,0.4,0.2,0.6,0.6,0.6h16.6c0.7,0,1.1,0.4,1.1,1.1v5.8c0,0.7-0.4,1.1-1.1,1.1h-16.6
				c-0.4,0-0.6,0.2-0.6,0.6v23.3c0,0.4,0.2,0.6,0.6,0.6h19.1c0.7,0,1.1,0.4,1.1,1.1v5.9c0,0.7-0.4,1.1-1.1,1.1h-27.3
				c-0.7,0-1.1-0.4-1.1-1.1V-212.7z"/>
		</g>
	</g>
</g>
<g>
	<g transform="translate(1092.54463, 800.942468)">
	</g>
</g>
<g>
	<g transform="translate(1154.145284, 800.942468)">
		<g>
			<path class="st0" d="M391.2-212.7c0-0.7,0.4-1.1,1.1-1.1h6.5c0.7,0,1.1,0.4,1.1,1.1v62.6c0,0.4,0.2,0.6,0.6,0.6h18.9
				c0.7,0,1.1,0.4,1.1,1.1v5.9c0,0.7-0.4,1.1-1.1,1.1h-27.1c-0.7,0-1.1-0.4-1.1-1.1V-212.7z"/>
		</g>
	</g>
</g>
<g>
	<g transform="translate(1229.132562, 800.942468)">
		<g>
			<path class="st0" d="M427.1-212.7c0.2-0.7,0.6-1.1,1.2-1.1h6.4c0.6,0,1,0.4,1.2,1.1l15.2,70.1c0.1,0.7-0.2,1.1-1,1.1h-6.4
				c-0.6,0-1-0.4-1.2-1.1l-3.2-15.8h-16l-3.2,15.8c-0.1,0.7-0.5,1.1-1.1,1.1h-6.4c-0.8,0-1.1-0.4-1-1.1L427.1-212.7z M437.8-165.9
				l-6.1-31.5h-0.3l-6.6,31.5H437.8z"/>
		</g>
	</g>
</g>
<g>
	<g transform="translate(1307.944531, 800.942468)">
		<g>
			<path class="st0" d="M442.4-212.7c0-0.7,0.4-1.1,1.1-1.1h13.7c6.2,0,10.8,1.5,13.6,4.4c2.9,2.9,4.3,7.6,4.3,14.2
				c0,4.5-0.7,8-2.2,10.4c-1.4,2.4-3.5,4.2-6.2,5.4v0.2c2.7,0.8,4.9,2.6,6.6,5.2c1.7,2.6,2.6,6.5,2.6,11.7c0,3.9-0.4,7.2-1.2,9.8
				c-0.8,2.6-2,4.7-3.6,6.4c-1.6,1.6-3.7,2.8-6.2,3.5c-2.5,0.7-5.4,1.1-8.8,1.1h-12.6c-0.7,0-1.1-0.4-1.1-1.1V-212.7z M456.8-182.6
				c3.4,0,5.8-0.8,7.4-2.4c1.5-1.6,2.3-4.7,2.3-9.2c0-2.3-0.2-4.2-0.5-5.7c-0.3-1.5-0.9-2.7-1.7-3.6c-0.8-0.9-1.8-1.5-3-1.9
				c-1.2-0.4-2.8-0.5-4.6-0.5h-4.9c-0.4,0-0.6,0.2-0.6,0.6v22c0,0.4,0.2,0.6,0.6,0.6H456.8z M451-150.2c0,0.4,0.2,0.6,0.6,0.6h4.8
				c2,0,3.7-0.2,5-0.6c1.3-0.4,2.4-1.1,3.3-2.1c0.8-1,1.5-2.3,1.9-4c0.4-1.7,0.6-3.7,0.6-6.2c0-4.8-0.8-8.1-2.4-9.9
				c-1.6-1.8-4.3-2.7-8-2.7h-5.1c-0.4,0-0.6,0.2-0.6,0.6V-150.2z"/>
		</g>
	</g>
</g>
<g>
	<g transform="translate(1387.075266, 800.942468)">
		<g>
			<path class="st0" d="M500-161.9c0,7.3-1.3,12.7-3.8,16.1c-2.5,3.5-6.9,5.2-12.9,5.2c-10.8,0-16.5-6.2-17-18.6
				c0-0.7,0.3-1.1,0.8-1.2l6.3-1.2c0.8-0.1,1.2,0.2,1.2,1c0.2,4.5,1.1,7.6,2.5,9.4c1.5,1.8,3.6,2.7,6.3,2.7c2.8,0,4.8-0.8,6.1-2.5
				c1.3-1.7,2-5,2-9.9c0-2.1-0.1-3.8-0.3-5.3c-0.2-1.5-0.6-2.7-1.2-3.8c-0.6-1-1.3-1.9-2.3-2.6c-1-0.7-2.1-1.3-3.6-1.9l-4.4-1.7
				c-2.5-0.9-4.5-2-6.2-3.1c-1.6-1.2-2.9-2.5-3.9-4c-0.9-1.5-1.6-3.3-2-5.4c-0.4-2.1-0.6-4.5-0.6-7.3c0-12.5,5.4-18.7,16.2-18.7
				c5.4,0,9.5,1.5,12,4.4c2.6,2.9,4,7.2,4.3,12.9c0,0.7-0.3,1.1-1,1.2l-5.9,1c-0.4,0.1-0.7,0.1-0.9,0c-0.2-0.2-0.3-0.4-0.3-0.8
				c-0.1-3.6-0.8-6.3-2.1-8c-1.2-1.7-3.2-2.6-6-2.6c-2.7,0-4.7,0.8-6,2.5c-1.3,1.7-1.9,4.3-1.9,8c0,1.8,0.1,3.4,0.4,4.8
				c0.2,1.3,0.7,2.4,1.2,3.3c0.6,0.9,1.3,1.7,2.3,2.3c1,0.6,2.2,1.2,3.7,1.8l4.4,1.7c2.3,0.9,4.3,2,5.9,3.1c1.6,1.1,2.9,2.5,3.9,4.1
				c1,1.6,1.7,3.5,2.1,5.6C499.8-167.5,500-164.9,500-161.9z"/>
		</g>
	</g>
</g>
<path class="st0" d="M76.8,337.6l241.5,0.2c1.3,0,2.7,0.1,4,0.2c1.3,0.1,2.6,0.3,3.9,0.6c1.3,0.3,2.6,0.6,3.9,1
	c1.3,0.4,2.5,0.8,3.7,1.3c1.2,0.5,2.4,1.1,3.6,1.7c1.2,0.6,2.3,1.3,3.4,2c1.1,0.7,2.2,1.5,3.2,2.4c1,0.8,2,1.7,2.9,2.7
	c0.9,0.9,1.8,1.9,2.7,2.9c0.8,1,1.6,2.1,2.4,3.2c0.7,1.1,1.4,2.2,2,3.4c0.6,1.2,1.2,2.4,1.7,3.6c0.5,1.2,1,2.5,1.3,3.7
	c0.4,1.3,0.7,2.6,1,3.9c0.3,1.3,0.4,2.6,0.6,3.9c0.1,1.3,0.2,2.6,0.2,4c0,1.3-0.1,2.6-0.2,4c-0.1,1.3-0.3,2.6-0.6,3.9
	c-0.3,1.3-0.6,2.6-1,3.9c-0.4,1.3-0.8,2.5-1.3,3.7c-0.5,1.2-1.1,2.4-1.7,3.6c-0.6,1.2-1.3,2.3-2,3.4c-0.7,1.1-1.5,2.2-2.4,3.2
	c-0.8,1-1.7,2-2.7,2.9c-0.9,0.9-1.9,1.8-2.9,2.7c-1,0.8-2.1,1.6-3.2,2.4c-1.1,0.7-2.2,1.4-3.4,2c-1.2,0.6-2.4,1.2-3.6,1.7
	c-1.2,0.5-2.5,1-3.7,1.3c-1.3,0.4-2.6,0.7-3.9,1c-1.3,0.3-2.6,0.5-3.9,0.6c-1.3,0.1-2.6,0.2-4,0.2l-241.5-0.2c-1.3,0-2.7-0.1-4-0.2
	c-1.3-0.1-2.6-0.3-3.9-0.6c-1.3-0.3-2.6-0.6-3.9-1c-1.3-0.4-2.5-0.8-3.7-1.3c-1.2-0.5-2.4-1.1-3.6-1.7c-1.2-0.6-2.3-1.3-3.4-2
	c-1.1-0.7-2.2-1.5-3.2-2.4c-1-0.8-2-1.7-2.9-2.7s-1.8-1.9-2.7-2.9c-0.8-1-1.6-2.1-2.4-3.2c-0.7-1.1-1.4-2.2-2-3.4s-1.2-2.4-1.7-3.6
	c-0.5-1.2-0.9-2.5-1.3-3.7c-0.4-1.3-0.7-2.6-1-3.9c-0.3-1.3-0.4-2.6-0.6-3.9c-0.1-1.3-0.2-2.6-0.2-4s0.1-2.7,0.2-4
	c0.1-1.3,0.3-2.6,0.6-3.9s0.6-2.6,1-3.9c0.4-1.3,0.8-2.5,1.3-3.7c0.5-1.2,1.1-2.4,1.7-3.6c0.6-1.2,1.3-2.3,2-3.4
	c0.7-1.1,1.5-2.2,2.4-3.2c0.8-1,1.7-2,2.7-2.9c0.9-0.9,1.9-1.8,2.9-2.7s2.1-1.6,3.2-2.4c1.1-0.7,2.2-1.4,3.4-2
	c1.2-0.6,2.4-1.2,3.6-1.7c1.2-0.5,2.5-1,3.7-1.3c1.3-0.4,2.6-0.7,3.9-1c1.3-0.3,2.6-0.4,3.9-0.6C74.1,337.7,75.5,337.6,76.8,337.6z"
	/>
<path class="st0" d="M76.8,15.1h241.5c1.3,0,2.7,0.1,4,0.2c1.3,0.1,2.6,0.3,3.9,0.6c1.3,0.3,2.6,0.6,3.9,1c1.3,0.4,2.5,0.8,3.7,1.3
	c1.2,0.5,2.4,1.1,3.6,1.7c1.2,0.6,2.3,1.3,3.4,2c1.1,0.7,2.2,1.5,3.2,2.4c1,0.8,2,1.7,2.9,2.7s1.8,1.9,2.7,2.9
	c0.8,1,1.6,2.1,2.4,3.2c0.7,1.1,1.4,2.2,2,3.4s1.2,2.4,1.7,3.6c0.5,1.2,1,2.5,1.3,3.7c0.4,1.3,0.7,2.6,1,3.9
	c0.3,1.3,0.5,2.6,0.6,3.9c0.1,1.3,0.2,2.6,0.2,4c0,1.3-0.1,2.7-0.2,4c-0.1,1.3-0.3,2.6-0.6,3.9c-0.3,1.3-0.6,2.6-1,3.9
	c-0.4,1.3-0.8,2.5-1.3,3.7c-0.5,1.2-1.1,2.4-1.7,3.6c-0.6,1.2-1.3,2.3-2,3.4c-0.7,1.1-1.5,2.2-2.4,3.2c-0.8,1-1.7,2-2.7,2.9
	c-0.9,0.9-1.9,1.8-2.9,2.7c-1,0.8-2.1,1.6-3.2,2.4c-1.1,0.7-2.2,1.4-3.4,2c-1.2,0.6-2.4,1.2-3.6,1.7c-1.2,0.5-2.5,1-3.7,1.3
	c-1.3,0.4-2.6,0.7-3.9,1c-1.3,0.3-2.6,0.5-3.9,0.6c-1.3,0.1-2.6,0.2-4,0.2H76.8c-1.3,0-2.7-0.1-4-0.2c-1.3-0.1-2.6-0.3-3.9-0.6
	c-1.3-0.3-2.6-0.6-3.9-1c-1.3-0.4-2.5-0.8-3.7-1.3c-1.2-0.5-2.4-1.1-3.6-1.7c-1.2-0.6-2.3-1.3-3.4-2c-1.1-0.7-2.2-1.5-3.2-2.4
	c-1-0.8-2-1.7-2.9-2.7c-0.9-0.9-1.8-1.9-2.7-2.9c-0.8-1-1.6-2.1-2.4-3.2c-0.7-1.1-1.4-2.2-2-3.4c-0.6-1.2-1.2-2.4-1.7-3.6
	c-0.5-1.2-1-2.5-1.3-3.7c-0.4-1.3-0.7-2.6-1-3.9c-0.3-1.3-0.5-2.6-0.6-3.9c-0.1-1.3-0.2-2.6-0.2-4c0-1.3,0.1-2.6,0.2-4
	c0.1-1.3,0.3-2.6,0.6-3.9c0.3-1.3,0.6-2.6,1-3.9c0.4-1.3,0.8-2.5,1.3-3.7c0.5-1.2,1.1-2.4,1.7-3.6s1.3-2.3,2-3.4
	c0.7-1.1,1.5-2.2,2.4-3.2c0.8-1,1.7-2,2.7-2.9s1.9-1.8,2.9-2.7c1-0.8,2.1-1.6,3.2-2.4c1.1-0.7,2.2-1.4,3.4-2
	c1.2-0.6,2.4-1.2,3.6-1.7c1.2-0.5,2.5-1,3.7-1.3c1.3-0.4,2.6-0.7,3.9-1c1.3-0.3,2.6-0.5,3.9-0.6C74.1,15.2,75.4,15.1,76.8,15.1z"/>
<path class="st0" d="M358.9,56.1V136c0,1.3-0.1,2.7-0.2,4c-0.1,1.3-0.3,2.6-0.6,3.9c-0.3,1.3-0.6,2.6-1,3.9
	c-0.4,1.3-0.8,2.5-1.3,3.7c-0.5,1.2-1.1,2.4-1.7,3.6c-0.6,1.2-1.3,2.3-2,3.4c-0.7,1.1-1.5,2.2-2.4,3.2c-0.8,1-1.7,2-2.7,2.9
	s-1.9,1.8-2.9,2.7c-1,0.8-2.1,1.6-3.2,2.4c-1.1,0.7-2.2,1.4-3.4,2c-1.2,0.6-2.4,1.2-3.6,1.7c-1.2,0.5-2.5,1-3.7,1.3
	c-1.3,0.4-2.6,0.7-3.9,1c-1.3,0.3-2.6,0.5-3.9,0.6c-1.3,0.1-2.6,0.2-4,0.2c-1.3,0-2.6-0.1-4-0.2c-1.3-0.1-2.6-0.3-3.9-0.6
	c-1.3-0.3-2.6-0.6-3.9-1c-1.3-0.4-2.5-0.8-3.7-1.3c-1.2-0.5-2.4-1.1-3.6-1.7c-1.2-0.6-2.3-1.3-3.4-2c-1.1-0.7-2.2-1.5-3.2-2.4
	c-1-0.8-2-1.7-2.9-2.7s-1.8-1.9-2.7-2.9c-0.8-1-1.6-2.1-2.4-3.2c-0.7-1.1-1.4-2.2-2-3.4c-0.6-1.2-1.2-2.4-1.7-3.6
	c-0.5-1.2-1-2.5-1.3-3.7c-0.4-1.3-0.7-2.6-1-3.9c-0.3-1.3-0.5-2.6-0.6-3.9c-0.1-1.3-0.2-2.6-0.2-4V56.1c0-1.3,0.1-2.7,0.2-4
	c0.1-1.3,0.3-2.6,0.6-3.9c0.3-1.3,0.6-2.6,1-3.9c0.4-1.3,0.8-2.5,1.3-3.7c0.5-1.2,1.1-2.4,1.7-3.6c0.6-1.2,1.3-2.3,2-3.4
	c0.7-1.1,1.5-2.2,2.4-3.2c0.8-1,1.7-2,2.7-2.9s1.9-1.8,2.9-2.7c1-0.8,2.1-1.6,3.2-2.4c1.1-0.7,2.2-1.4,3.4-2
	c1.2-0.6,2.4-1.2,3.6-1.7c1.2-0.5,2.5-1,3.7-1.3c1.3-0.4,2.6-0.7,3.9-1c1.3-0.3,2.6-0.5,3.9-0.6c1.3-0.1,2.6-0.2,4-0.2
	c1.3,0,2.7,0.1,4,0.2c1.3,0.1,2.6,0.3,3.9,0.6c1.3,0.3,2.6,0.6,3.9,1c1.3,0.4,2.5,0.8,3.7,1.3c1.2,0.5,2.4,1.1,3.6,1.7
	c1.2,0.6,2.3,1.3,3.4,2c1.1,0.7,2.2,1.5,3.2,2.4c1,0.8,2,1.7,2.9,2.7s1.8,1.9,2.7,2.9c0.8,1,1.6,2.1,2.4,3.2c0.7,1.1,1.4,2.2,2,3.4
	c0.6,1.2,1.2,2.4,1.7,3.6c0.5,1.2,1,2.5,1.3,3.7c0.4,1.3,0.7,2.6,1,3.9c0.3,1.3,0.5,2.6,0.6,3.9C358.8,53.4,358.9,54.7,358.9,56.1z"
	/>
<path class="st0" d="M117,297.8v79.9c0,1.3-0.1,2.7-0.2,4c-0.1,1.3-0.3,2.6-0.6,3.9c-0.3,1.3-0.6,2.6-1,3.9
	c-0.4,1.3-0.8,2.5-1.3,3.7c-0.5,1.2-1.1,2.4-1.7,3.6c-0.6,1.2-1.3,2.3-2,3.4c-0.7,1.1-1.5,2.2-2.4,3.2c-0.8,1-1.7,2-2.7,2.9
	s-1.9,1.8-2.9,2.7c-1,0.8-2.1,1.6-3.2,2.4c-1.1,0.7-2.2,1.4-3.4,2c-1.2,0.6-2.4,1.2-3.6,1.7c-1.2,0.5-2.5,1-3.7,1.3
	c-1.3,0.4-2.6,0.7-3.9,1c-1.3,0.3-2.6,0.5-3.9,0.6c-1.3,0.1-2.6,0.2-4,0.2c-1.3,0-2.6-0.1-4-0.2c-1.3-0.1-2.6-0.3-3.9-0.6
	c-1.3-0.3-2.6-0.6-3.9-1c-1.3-0.4-2.5-0.8-3.7-1.3c-1.2-0.5-2.4-1.1-3.6-1.7c-1.2-0.6-2.3-1.3-3.4-2c-1.1-0.7-2.2-1.5-3.2-2.4
	c-1-0.8-2-1.7-2.9-2.7s-1.8-1.9-2.7-2.9c-0.8-1-1.6-2.1-2.4-3.2c-0.7-1.1-1.4-2.2-2-3.4c-0.6-1.2-1.2-2.4-1.7-3.6
	c-0.5-1.2-1-2.5-1.3-3.7c-0.4-1.3-0.7-2.6-1-3.9s-0.5-2.6-0.6-3.9c-0.1-1.3-0.2-2.6-0.2-4v-79.9c0-1.3,0.1-2.7,0.2-4
	c0.1-1.3,0.3-2.6,0.6-3.9s0.6-2.6,1-3.9c0.4-1.3,0.8-2.5,1.3-3.7c0.5-1.2,1.1-2.4,1.7-3.6c0.6-1.2,1.3-2.3,2-3.4
	c0.7-1.1,1.5-2.2,2.4-3.2c0.8-1,1.7-2,2.7-2.9s1.9-1.8,2.9-2.7c1-0.8,2.1-1.6,3.2-2.4c1.1-0.7,2.2-1.4,3.4-2
	c1.2-0.6,2.4-1.2,3.6-1.7c1.2-0.5,2.5-1,3.7-1.3c1.3-0.4,2.6-0.7,3.9-1c1.3-0.3,2.6-0.5,3.9-0.6c1.3-0.1,2.6-0.2,4-0.2
	c1.3,0,2.7,0.1,4,0.2c1.3,0.1,2.6,0.3,3.9,0.6c1.3,0.3,2.6,0.6,3.9,1c1.3,0.4,2.5,0.8,3.7,1.3c1.2,0.5,2.4,1.1,3.6,1.7
	c1.2,0.6,2.3,1.3,3.4,2c1.1,0.7,2.2,1.5,3.2,2.4c1,0.8,2,1.7,2.9,2.7s1.8,1.9,2.7,2.9c0.8,1,1.6,2.1,2.4,3.2c0.7,1.1,1.4,2.2,2,3.4
	c0.6,1.2,1.2,2.4,1.7,3.6c0.5,1.2,1,2.5,1.3,3.7c0.4,1.3,0.7,2.6,1,3.9c0.3,1.3,0.5,2.6,0.6,3.9C117,295.1,117,296.4,117,297.8z"/>
<path class="st0" d="M923.2,55.8v322.1c0,1.3-0.1,2.7-0.2,4c-0.1,1.3-0.3,2.6-0.6,3.9c-0.3,1.3-0.6,2.6-1,3.9
	c-0.4,1.3-0.8,2.5-1.3,3.7c-0.5,1.2-1.1,2.4-1.7,3.6c-0.6,1.2-1.3,2.3-2,3.4c-0.7,1.1-1.5,2.2-2.4,3.2c-0.8,1-1.7,2-2.7,2.9
	s-1.9,1.8-2.9,2.7c-1,0.8-2.1,1.6-3.2,2.4c-1.1,0.7-2.2,1.4-3.4,2c-1.2,0.6-2.4,1.2-3.6,1.7c-1.2,0.5-2.5,1-3.7,1.3
	c-1.3,0.4-2.6,0.7-3.9,1c-1.3,0.3-2.6,0.5-3.9,0.6c-1.3,0.1-2.6,0.2-4,0.2c-1.3,0-2.7-0.1-4-0.2c-1.3-0.1-2.6-0.3-3.9-0.6
	c-1.3-0.3-2.6-0.6-3.9-1c-1.3-0.4-2.5-0.8-3.7-1.3c-1.2-0.5-2.4-1.1-3.6-1.7c-1.2-0.6-2.3-1.3-3.4-2c-1.1-0.7-2.2-1.5-3.2-2.4
	c-1-0.8-2-1.7-2.9-2.7s-1.8-1.9-2.7-2.9c-0.8-1-1.6-2.1-2.4-3.2c-0.7-1.1-1.4-2.2-2-3.4c-0.6-1.2-1.2-2.4-1.7-3.6
	c-0.5-1.2-1-2.5-1.3-3.7c-0.4-1.3-0.7-2.6-1-3.9c-0.3-1.3-0.5-2.6-0.6-3.9c-0.1-1.3-0.2-2.6-0.2-4V55.8c0-1.3,0.1-2.7,0.2-4
	c0.1-1.3,0.3-2.6,0.6-3.9c0.3-1.3,0.6-2.6,1-3.9c0.4-1.3,0.8-2.5,1.3-3.7c0.5-1.2,1.1-2.4,1.7-3.6c0.6-1.2,1.3-2.3,2-3.4
	c0.7-1.1,1.5-2.2,2.4-3.2c0.8-1,1.7-2,2.7-2.9c0.9-0.9,1.9-1.8,2.9-2.7c1-0.8,2.1-1.6,3.2-2.4c1.1-0.7,2.2-1.4,3.4-2
	c1.2-0.6,2.4-1.2,3.6-1.7c1.2-0.5,2.5-1,3.7-1.3c1.3-0.4,2.6-0.7,3.9-1c1.3-0.3,2.6-0.5,3.9-0.6c1.3-0.1,2.6-0.2,4-0.2
	c1.3,0,2.6,0.1,4,0.2c1.3,0.1,2.6,0.3,3.9,0.6c1.3,0.3,2.6,0.6,3.9,1c1.3,0.4,2.5,0.8,3.7,1.3c1.2,0.5,2.4,1.1,3.6,1.7
	c1.2,0.6,2.3,1.3,3.4,2c1.1,0.7,2.2,1.5,3.2,2.4c1,0.8,2,1.7,2.9,2.7c0.9,0.9,1.8,1.9,2.7,2.9c0.8,1,1.6,2.1,2.4,3.2
	c0.7,1.1,1.4,2.2,2,3.4c0.6,1.2,1.2,2.4,1.7,3.6c0.5,1.2,1,2.5,1.3,3.7c0.4,1.3,0.7,2.6,1,3.9c0.3,1.3,0.5,2.6,0.6,3.9
	C923.1,53.1,923.2,54.5,923.2,55.8z"/>
<path class="st0" d="M1165.1,55.8v322.1c0,1.3-0.1,2.7-0.2,4c-0.1,1.3-0.3,2.6-0.6,3.9c-0.3,1.3-0.6,2.6-1,3.9
	c-0.4,1.3-0.8,2.5-1.3,3.7c-0.5,1.2-1.1,2.4-1.7,3.6c-0.6,1.2-1.3,2.3-2,3.4c-0.7,1.1-1.5,2.2-2.4,3.2c-0.8,1-1.7,2-2.7,2.9
	s-1.9,1.8-2.9,2.7c-1,0.8-2.1,1.6-3.2,2.4c-1.1,0.7-2.2,1.4-3.4,2c-1.2,0.6-2.4,1.2-3.6,1.7c-1.2,0.5-2.5,1-3.7,1.3
	c-1.3,0.4-2.6,0.7-3.9,1c-1.3,0.3-2.6,0.5-3.9,0.6c-1.3,0.1-2.6,0.2-4,0.2c-1.3,0-2.7-0.1-4-0.2c-1.3-0.1-2.6-0.3-3.9-0.6
	c-1.3-0.3-2.6-0.6-3.9-1s-2.5-0.8-3.7-1.3c-1.2-0.5-2.4-1.1-3.6-1.7c-1.2-0.6-2.3-1.3-3.4-2c-1.1-0.7-2.2-1.5-3.2-2.4
	c-1-0.8-2-1.7-2.9-2.7s-1.8-1.9-2.7-2.9c-0.8-1-1.6-2.1-2.4-3.2c-0.7-1.1-1.4-2.2-2-3.4c-0.6-1.2-1.2-2.4-1.7-3.6
	c-0.5-1.2-1-2.5-1.3-3.7c-0.4-1.3-0.7-2.6-1-3.9c-0.3-1.3-0.5-2.6-0.6-3.9c-0.1-1.3-0.2-2.6-0.2-4V55.8c0-1.3,0.1-2.7,0.2-4
	c0.1-1.3,0.3-2.6,0.6-3.9c0.3-1.3,0.6-2.6,1-3.9c0.4-1.3,0.8-2.5,1.3-3.7c0.5-1.2,1.1-2.4,1.7-3.6c0.6-1.2,1.3-2.3,2-3.4
	c0.7-1.1,1.5-2.2,2.4-3.2c0.8-1,1.7-2,2.7-2.9c0.9-0.9,1.9-1.8,2.9-2.7c1-0.8,2.1-1.6,3.2-2.4c1.1-0.7,2.2-1.4,3.4-2
	c1.2-0.6,2.4-1.2,3.6-1.7c1.2-0.5,2.5-1,3.7-1.3s2.6-0.7,3.9-1c1.3-0.3,2.6-0.5,3.9-0.6c1.3-0.1,2.6-0.2,4-0.2c1.3,0,2.7,0.1,4,0.2
	c1.3,0.1,2.6,0.3,3.9,0.6c1.3,0.3,2.6,0.6,3.9,1c1.3,0.4,2.5,0.8,3.7,1.3c1.2,0.5,2.4,1.1,3.6,1.7c1.2,0.6,2.3,1.3,3.4,2
	c1.1,0.7,2.2,1.5,3.2,2.4c1,0.8,2,1.7,2.9,2.7c0.9,0.9,1.8,1.9,2.7,2.9c0.8,1,1.6,2.1,2.4,3.2c0.7,1.1,1.4,2.2,2,3.4
	c0.6,1.2,1.2,2.4,1.7,3.6c0.5,1.2,1,2.5,1.3,3.7c0.4,1.3,0.7,2.6,1,3.9c0.3,1.3,0.5,2.6,0.6,3.9C1165,53.1,1165.1,54.5,1165.1,55.8z
	"/>
<path class="st0" d="M882.9,15.4h79.9c1.3,0,2.7,0.1,4,0.2c1.3,0.1,2.6,0.3,3.9,0.6c1.3,0.3,2.6,0.6,3.9,1c1.3,0.4,2.5,0.8,3.7,1.3
	c1.2,0.5,2.4,1.1,3.6,1.7c1.2,0.6,2.3,1.3,3.4,2c1.1,0.7,2.2,1.5,3.2,2.4c1,0.8,2,1.7,2.9,2.7c0.9,0.9,1.8,1.9,2.7,2.9
	c0.8,1,1.6,2.1,2.4,3.2c0.7,1.1,1.4,2.2,2,3.4c0.6,1.2,1.2,2.4,1.7,3.6c0.5,1.2,1,2.5,1.3,3.7c0.4,1.3,0.7,2.6,1,3.9
	c0.3,1.3,0.5,2.6,0.6,3.9c0.1,1.3,0.2,2.6,0.2,4c0,1.3-0.1,2.7-0.2,4c-0.1,1.3-0.3,2.6-0.6,3.9c-0.3,1.3-0.6,2.6-1,3.9
	c-0.4,1.3-0.8,2.5-1.3,3.7c-0.5,1.2-1.1,2.4-1.7,3.6c-0.6,1.2-1.3,2.3-2,3.4c-0.7,1.1-1.5,2.2-2.4,3.2c-0.8,1-1.7,2-2.7,2.9
	c-0.9,0.9-1.9,1.8-2.9,2.7c-1,0.8-2.1,1.6-3.2,2.4c-1.1,0.7-2.2,1.4-3.4,2c-1.2,0.6-2.4,1.2-3.6,1.7c-1.2,0.5-2.5,1-3.7,1.3
	c-1.3,0.4-2.6,0.7-3.9,1c-1.3,0.3-2.6,0.5-3.9,0.6c-1.3,0.1-2.6,0.2-4,0.2h-79.9c-1.3,0-2.7-0.1-4-0.2c-1.3-0.1-2.6-0.3-3.9-0.6
	c-1.3-0.3-2.6-0.6-3.9-1c-1.3-0.4-2.5-0.8-3.7-1.3c-1.2-0.5-2.4-1.1-3.6-1.7c-1.2-0.6-2.3-1.3-3.4-2c-1.1-0.7-2.2-1.5-3.2-2.4
	c-1-0.8-2-1.7-2.9-2.7s-1.8-1.9-2.7-2.9c-0.8-1-1.6-2.1-2.4-3.2c-0.7-1.1-1.4-2.2-2-3.4c-0.6-1.2-1.2-2.4-1.7-3.6
	c-0.5-1.2-1-2.5-1.3-3.7c-0.4-1.3-0.7-2.6-1-3.9c-0.3-1.3-0.5-2.6-0.6-3.9c-0.1-1.3-0.2-2.6-0.2-4c0-1.3,0.1-2.6,0.2-4
	c0.1-1.3,0.3-2.6,0.6-3.9c0.3-1.3,0.6-2.6,1-3.9c0.4-1.3,0.8-2.5,1.3-3.7c0.5-1.2,1.1-2.4,1.7-3.6c0.6-1.2,1.3-2.3,2-3.4
	c0.7-1.1,1.5-2.2,2.4-3.2c0.8-1,1.7-2,2.7-2.9s1.9-1.8,2.9-2.7c1-0.8,2.1-1.6,3.2-2.4c1.1-0.7,2.2-1.4,3.4-2
	c1.2-0.6,2.4-1.2,3.6-1.7c1.2-0.5,2.5-1,3.7-1.3c1.3-0.4,2.6-0.7,3.9-1c1.3-0.3,2.6-0.5,3.9-0.6C880.3,15.4,881.6,15.4,882.9,15.4z"
	/>
<path class="st0" d="M1043.9,337.4h80c1.3,0,2.7,0.1,4,0.2s2.6,0.3,3.9,0.6c1.3,0.3,2.6,0.6,3.9,1c1.3,0.4,2.5,0.8,3.7,1.3
	c1.2,0.5,2.4,1.1,3.6,1.7c1.2,0.6,2.3,1.3,3.4,2c1.1,0.7,2.2,1.5,3.2,2.4c1,0.8,2,1.7,2.9,2.7s1.8,1.9,2.7,2.9
	c0.8,1,1.6,2.1,2.4,3.2c0.7,1.1,1.4,2.2,2,3.4c0.6,1.2,1.2,2.4,1.7,3.6c0.5,1.2,1,2.5,1.3,3.7c0.4,1.3,0.7,2.6,1,3.9
	c0.3,1.3,0.5,2.6,0.6,3.9c0.1,1.3,0.2,2.6,0.2,4c0,1.3-0.1,2.7-0.2,4c-0.1,1.3-0.3,2.6-0.6,3.9c-0.3,1.3-0.6,2.6-1,3.9
	c-0.4,1.3-0.8,2.5-1.3,3.7c-0.5,1.2-1.1,2.4-1.7,3.6c-0.6,1.2-1.3,2.3-2,3.4c-0.7,1.1-1.5,2.2-2.4,3.2c-0.8,1-1.7,2-2.7,2.9
	s-1.9,1.8-2.9,2.7c-1,0.8-2.1,1.6-3.2,2.4c-1.1,0.7-2.2,1.4-3.4,2c-1.2,0.6-2.4,1.2-3.6,1.7c-1.2,0.5-2.5,1-3.7,1.3
	c-1.3,0.4-2.6,0.7-3.9,1c-1.3,0.3-2.6,0.5-3.9,0.6c-1.3,0.1-2.6,0.2-4,0.2h-80c-1.3,0-2.6-0.1-4-0.2c-1.3-0.1-2.6-0.3-3.9-0.6
	c-1.3-0.3-2.6-0.6-3.9-1c-1.3-0.4-2.5-0.8-3.7-1.3c-1.2-0.5-2.4-1.1-3.6-1.7c-1.2-0.6-2.3-1.3-3.4-2c-1.1-0.7-2.2-1.5-3.2-2.4
	c-1-0.8-2-1.7-2.9-2.7s-1.8-1.9-2.7-2.9c-0.8-1-1.6-2.1-2.4-3.2c-0.7-1.1-1.4-2.2-2-3.4c-0.6-1.2-1.2-2.4-1.7-3.6
	c-0.5-1.2-1-2.5-1.3-3.7c-0.4-1.3-0.7-2.6-1-3.9c-0.3-1.3-0.5-2.6-0.6-3.9c-0.1-1.3-0.2-2.6-0.2-4c0-1.3,0.1-2.6,0.2-4
	c0.1-1.3,0.3-2.6,0.6-3.9c0.3-1.3,0.6-2.6,1-3.9c0.4-1.3,0.8-2.5,1.3-3.7c0.5-1.2,1.1-2.4,1.7-3.6c0.6-1.2,1.3-2.3,2-3.4
	c0.7-1.1,1.5-2.2,2.4-3.2c0.8-1,1.7-2,2.7-2.9s1.9-1.8,2.9-2.7c1-0.8,2.1-1.6,3.2-2.4c1.1-0.7,2.2-1.4,3.4-2
	c1.2-0.6,2.4-1.2,3.6-1.7c1.2-0.5,2.5-1,3.7-1.3c1.3-0.4,2.6-0.7,3.9-1c1.3-0.3,2.6-0.5,3.9-0.6
	C1041.2,337.5,1042.5,337.4,1043.9,337.4z"/>
<path class="st0" d="M1366.7,337.6l160.9,0.3c1.3,0,2.7,0.1,4,0.2c1.3,0.1,2.6,0.3,3.9,0.6c1.3,0.3,2.6,0.6,3.8,1
	c1.3,0.4,2.5,0.8,3.7,1.3c1.2,0.5,2.4,1.1,3.6,1.7c1.2,0.6,2.3,1.3,3.4,2.1c1.1,0.7,2.2,1.5,3.2,2.4c1,0.8,2,1.7,2.9,2.7
	c0.9,0.9,1.8,1.9,2.7,2.9c0.8,1,1.6,2.1,2.4,3.2c0.7,1.1,1.4,2.2,2,3.4c0.6,1.2,1.2,2.4,1.7,3.6c0.5,1.2,0.9,2.5,1.3,3.7
	c0.4,1.3,0.7,2.6,1,3.9c0.3,1.3,0.4,2.6,0.6,3.9c0.1,1.3,0.2,2.6,0.2,4c0,1.3-0.1,2.6-0.2,4c-0.1,1.3-0.3,2.6-0.6,3.9
	c-0.3,1.3-0.6,2.6-1,3.9c-0.4,1.3-0.8,2.5-1.3,3.7c-0.5,1.2-1.1,2.4-1.7,3.6c-0.6,1.2-1.3,2.3-2.1,3.4c-0.7,1.1-1.5,2.2-2.4,3.2
	c-0.8,1-1.7,2-2.7,2.9c-0.9,0.9-1.9,1.8-2.9,2.7c-1,0.8-2.1,1.6-3.2,2.4c-1.1,0.7-2.2,1.4-3.4,2c-1.2,0.6-2.4,1.2-3.6,1.7
	c-1.2,0.5-2.5,1-3.7,1.3c-1.3,0.4-2.6,0.7-3.9,1c-1.3,0.3-2.6,0.5-3.9,0.6c-1.3,0.1-2.6,0.2-4,0.2l-160.9-0.3c-1.3,0-2.7-0.1-4-0.2
	c-1.3-0.1-2.6-0.3-3.9-0.6c-1.3-0.3-2.6-0.6-3.8-1c-1.3-0.4-2.5-0.8-3.7-1.3c-1.2-0.5-2.4-1.1-3.6-1.7c-1.2-0.6-2.3-1.3-3.4-2
	c-1.1-0.7-2.2-1.5-3.2-2.4c-1-0.8-2-1.7-2.9-2.7c-0.9-0.9-1.8-1.9-2.7-2.9c-0.8-1-1.6-2.1-2.4-3.2c-0.7-1.1-1.4-2.2-2-3.4
	c-0.6-1.2-1.2-2.4-1.7-3.6c-0.5-1.2-0.9-2.5-1.3-3.7c-0.4-1.3-0.7-2.6-1-3.9c-0.3-1.3-0.4-2.6-0.6-3.9c-0.1-1.3-0.2-2.6-0.2-4
	c0-1.3,0.1-2.7,0.2-4c0.1-1.3,0.3-2.6,0.6-3.9c0.3-1.3,0.6-2.6,1-3.9c0.4-1.3,0.8-2.5,1.3-3.7s1.1-2.4,1.7-3.6
	c0.6-1.2,1.3-2.3,2.1-3.4c0.7-1.1,1.5-2.2,2.4-3.2c0.8-1,1.7-2,2.7-2.9c0.9-0.9,1.9-1.8,2.9-2.7c1-0.8,2.1-1.6,3.2-2.4
	c1.1-0.7,2.2-1.4,3.4-2c1.2-0.6,2.4-1.2,3.6-1.7c1.2-0.5,2.5-0.9,3.7-1.3c1.3-0.4,2.6-0.7,3.9-1c1.3-0.3,2.6-0.4,3.9-0.6
	C1364,337.7,1365.3,337.6,1366.7,337.6z"/>
<path class="st0" d="M1366.6,15.4l160.9,0.1c1.3,0,2.6,0.1,4,0.2c1.3,0.1,2.6,0.3,3.9,0.6c1.3,0.3,2.6,0.6,3.9,1
	c1.3,0.4,2.5,0.8,3.7,1.3c1.2,0.5,2.4,1.1,3.6,1.7c1.2,0.6,2.3,1.3,3.4,2c1.1,0.7,2.2,1.5,3.2,2.4c1,0.8,2,1.7,2.9,2.7
	s1.8,1.9,2.7,2.9c0.8,1,1.6,2.1,2.4,3.2c0.7,1.1,1.4,2.2,2,3.4c0.6,1.2,1.2,2.4,1.7,3.6c0.5,1.2,1,2.5,1.3,3.7
	c0.4,1.3,0.7,2.6,1,3.9c0.3,1.3,0.5,2.6,0.6,3.9c0.1,1.3,0.2,2.6,0.2,4s-0.1,2.7-0.2,4c-0.1,1.3-0.3,2.6-0.6,3.9
	c-0.3,1.3-0.6,2.6-1,3.9c-0.4,1.3-0.8,2.5-1.3,3.7c-0.5,1.2-1.1,2.4-1.7,3.6c-0.6,1.2-1.3,2.3-2,3.4c-0.7,1.1-1.5,2.2-2.4,3.2
	c-0.8,1-1.7,2-2.7,2.9s-1.9,1.8-2.9,2.7c-1,0.8-2.1,1.6-3.2,2.4c-1.1,0.7-2.2,1.4-3.4,2c-1.2,0.6-2.4,1.2-3.6,1.7
	c-1.2,0.5-2.5,1-3.7,1.3c-1.3,0.4-2.6,0.7-3.9,1c-1.3,0.3-2.6,0.5-3.9,0.6c-1.3,0.1-2.6,0.2-4,0.2l-160.9-0.1c-1.3,0-2.6-0.1-4-0.2
	c-1.3-0.1-2.6-0.3-3.9-0.6c-1.3-0.3-2.6-0.6-3.9-1c-1.3-0.4-2.5-0.8-3.7-1.3c-1.2-0.5-2.4-1.1-3.6-1.7c-1.2-0.6-2.3-1.3-3.4-2
	c-1.1-0.7-2.2-1.5-3.2-2.4c-1-0.8-2-1.7-2.9-2.7c-0.9-0.9-1.8-1.9-2.7-2.9c-0.8-1-1.6-2.1-2.4-3.2c-0.7-1.1-1.4-2.2-2-3.4
	c-0.6-1.2-1.2-2.4-1.7-3.6c-0.5-1.2-1-2.5-1.3-3.7c-0.4-1.3-0.7-2.6-1-3.9c-0.3-1.3-0.5-2.6-0.6-3.9c-0.1-1.3-0.2-2.6-0.2-4
	c0-1.3,0.1-2.6,0.2-4c0.1-1.3,0.3-2.6,0.6-3.9c0.3-1.3,0.6-2.6,1-3.9c0.4-1.3,0.8-2.5,1.3-3.7c0.5-1.2,1.1-2.4,1.7-3.6
	c0.6-1.2,1.3-2.3,2-3.4c0.7-1.1,1.5-2.2,2.4-3.2c0.8-1,1.7-2,2.7-2.9s1.9-1.8,2.9-2.7c1-0.8,2.1-1.6,3.2-2.4c1.1-0.7,2.2-1.4,3.4-2
	c1.2-0.6,2.4-1.2,3.6-1.7c1.2-0.5,2.5-1,3.7-1.3c1.3-0.4,2.6-0.7,3.9-1c1.3-0.3,2.6-0.5,3.9-0.6C1364,15.5,1365.3,15.4,1366.6,15.4z
	"/>
<path class="st0" d="M1254.3,211.1l76.5-171c0.5-1.2,1.1-2.4,1.8-3.5c0.7-1.2,1.4-2.3,2.1-3.3c0.8-1.1,1.6-2.1,2.5-3.1
	s1.8-2,2.8-2.9s2-1.8,3-2.6s2.1-1.6,3.3-2.3c1.1-0.7,2.3-1.4,3.5-1.9c1.2-0.6,2.4-1.1,3.6-1.6c1.2-0.5,2.5-0.9,3.8-1.2
	c1.3-0.3,2.6-0.6,3.9-0.9c1.3-0.2,2.6-0.4,3.9-0.5s2.7-0.1,4-0.1c1.3,0,2.6,0.1,4,0.3c1.3,0.2,2.6,0.4,3.9,0.7
	c1.3,0.3,2.6,0.7,3.8,1.1c1.3,0.4,2.5,0.9,3.7,1.4c1.2,0.5,2.4,1.1,3.5,1.8s2.3,1.4,3.4,2.1c1.1,0.8,2.1,1.6,3.1,2.5
	c1,0.9,2,1.8,2.9,2.8c0.9,1,1.8,2,2.6,3c0.8,1,1.6,2.1,2.3,3.3c0.7,1.1,1.4,2.3,1.9,3.5c0.6,1.2,1.1,2.4,1.6,3.6
	c0.5,1.2,0.9,2.5,1.2,3.8c0.4,1.3,0.6,2.6,0.9,3.9s0.4,2.6,0.5,3.9s0.1,2.6,0.1,4c0,1.3-0.1,2.6-0.3,4c-0.2,1.3-0.4,2.6-0.7,3.9
	s-0.7,2.6-1.1,3.8c-0.4,1.3-0.9,2.5-1.4,3.7l-76.5,171c-0.5,1.2-1.1,2.4-1.8,3.5c-0.7,1.2-1.4,2.3-2.1,3.3c-0.8,1.1-1.6,2.1-2.5,3.1
	c-0.9,1-1.8,2-2.8,2.9c-1,0.9-2,1.8-3,2.6s-2.1,1.6-3.3,2.3c-1.1,0.7-2.3,1.4-3.5,1.9c-1.2,0.6-2.4,1.1-3.6,1.6
	c-1.2,0.5-2.5,0.9-3.8,1.2c-1.3,0.3-2.6,0.6-3.9,0.9c-1.3,0.2-2.6,0.4-3.9,0.5c-1.3,0.1-2.6,0.1-4,0.1s-2.6-0.1-4-0.3
	c-1.3-0.2-2.6-0.4-3.9-0.7c-1.3-0.3-2.6-0.7-3.8-1.1c-1.3-0.4-2.5-0.9-3.7-1.4c-1.2-0.5-2.4-1.1-3.5-1.8c-1.2-0.7-2.3-1.4-3.4-2.1
	c-1.1-0.8-2.1-1.6-3.1-2.5c-1-0.9-2-1.8-2.9-2.8c-0.9-1-1.8-2-2.6-3c-0.8-1-1.6-2.1-2.3-3.3c-0.7-1.1-1.4-2.3-1.9-3.5
	c-0.6-1.2-1.1-2.4-1.6-3.6c-0.5-1.2-0.9-2.5-1.2-3.8c-0.3-1.3-0.6-2.6-0.9-3.9c-0.2-1.3-0.4-2.6-0.5-3.9c-0.1-1.3-0.1-2.6-0.1-4
	s0.1-2.6,0.3-4c0.2-1.3,0.4-2.6,0.7-3.9c0.3-1.3,0.7-2.6,1.1-3.8C1253.2,213.6,1253.7,212.4,1254.3,211.1z"/>
<path class="st0" d="M1329,212.2l73.3,146c0.6,1.2,1.1,2.4,1.6,3.6c0.5,1.2,0.9,2.5,1.2,3.8c0.4,1.3,0.6,2.6,0.9,3.9
	c0.2,1.3,0.4,2.6,0.5,3.9c0.1,1.3,0.1,2.6,0.1,4c0,1.3-0.1,2.6-0.3,4c-0.2,1.3-0.4,2.6-0.7,3.9c-0.3,1.3-0.6,2.6-1.1,3.8
	c-0.4,1.3-0.9,2.5-1.4,3.7c-0.5,1.2-1.1,2.4-1.8,3.5c-0.7,1.2-1.4,2.3-2.1,3.4s-1.6,2.1-2.4,3.1c-0.9,1-1.8,2-2.7,2.9
	c-1,0.9-2,1.8-3,2.6c-1,0.8-2.1,1.6-3.3,2.3c-1.1,0.7-2.3,1.4-3.5,2s-2.4,1.1-3.6,1.6c-1.2,0.5-2.5,0.9-3.8,1.2
	c-1.3,0.3-2.6,0.6-3.9,0.9c-1.3,0.2-2.6,0.4-3.9,0.5c-1.3,0.1-2.6,0.1-4,0.1c-1.3,0-2.6-0.1-4-0.3c-1.3-0.2-2.6-0.4-3.9-0.7
	c-1.3-0.3-2.6-0.6-3.8-1.1c-1.3-0.4-2.5-0.9-3.7-1.4c-1.2-0.5-2.4-1.1-3.5-1.8c-1.2-0.7-2.3-1.4-3.4-2.1s-2.1-1.6-3.1-2.4
	c-1-0.9-2-1.8-2.9-2.7c-0.9-1-1.8-2-2.6-3s-1.6-2.1-2.3-3.2c-0.7-1.1-1.4-2.3-2-3.5l-73.3-146c-0.6-1.2-1.1-2.4-1.6-3.6
	c-0.5-1.2-0.9-2.5-1.2-3.8c-0.4-1.3-0.6-2.6-0.9-3.9c-0.2-1.3-0.4-2.6-0.5-3.9c-0.1-1.3-0.1-2.6-0.1-4c0-1.3,0.1-2.6,0.3-4
	c0.2-1.3,0.4-2.6,0.7-3.9c0.3-1.3,0.6-2.6,1.1-3.8c0.4-1.3,0.9-2.5,1.4-3.7c0.5-1.2,1.1-2.4,1.8-3.5c0.7-1.2,1.4-2.3,2.1-3.4
	s1.6-2.1,2.4-3.1c0.9-1,1.8-2,2.7-2.9c1-0.9,2-1.8,3-2.6c1-0.8,2.1-1.6,3.3-2.3c1.1-0.7,2.3-1.4,3.5-2c1.2-0.6,2.4-1.1,3.6-1.6
	c1.2-0.5,2.5-0.9,3.8-1.2c1.3-0.3,2.6-0.6,3.9-0.9s2.6-0.4,3.9-0.5c1.3-0.1,2.6-0.1,4-0.1c1.3,0,2.6,0.1,4,0.3
	c1.3,0.2,2.6,0.4,3.9,0.7c1.3,0.3,2.6,0.7,3.8,1.1c1.3,0.4,2.5,0.9,3.7,1.4c1.2,0.5,2.4,1.1,3.5,1.8c1.2,0.7,2.3,1.4,3.4,2.1
	s2.1,1.6,3.1,2.4c1,0.9,2,1.8,2.9,2.7c0.9,1,1.8,2,2.6,3c0.8,1,1.6,2.1,2.3,3.2C1327.8,209.9,1328.4,211,1329,212.2z"/>
<path class="st0" d="M2180,337.6h243.5c1.3,0,2.7,0.1,4,0.2c1.3,0.1,2.6,0.3,3.9,0.6c1.3,0.3,2.6,0.6,3.9,1c1.3,0.4,2.5,0.8,3.7,1.3
	c1.2,0.5,2.4,1.1,3.6,1.7c1.2,0.6,2.3,1.3,3.4,2c1.1,0.7,2.2,1.5,3.2,2.4c1,0.8,2,1.7,2.9,2.7s1.8,1.9,2.7,2.9
	c0.8,1,1.6,2.1,2.4,3.2c0.7,1.1,1.4,2.2,2,3.4c0.6,1.2,1.2,2.4,1.7,3.6c0.5,1.2,1,2.5,1.3,3.7c0.4,1.3,0.7,2.6,1,3.9
	c0.3,1.3,0.5,2.6,0.6,3.9c0.1,1.3,0.2,2.6,0.2,4s-0.1,2.7-0.2,4c-0.1,1.3-0.3,2.6-0.6,3.9c-0.3,1.3-0.6,2.6-1,3.9
	c-0.4,1.3-0.8,2.5-1.3,3.7c-0.5,1.2-1.1,2.4-1.7,3.6c-0.6,1.2-1.3,2.3-2,3.4c-0.7,1.1-1.5,2.2-2.4,3.2c-0.8,1-1.7,2-2.7,2.9
	s-1.9,1.8-2.9,2.7c-1,0.8-2.1,1.6-3.2,2.4c-1.1,0.7-2.2,1.4-3.4,2c-1.2,0.6-2.4,1.2-3.6,1.7c-1.2,0.5-2.5,1-3.7,1.3s-2.6,0.7-3.9,1
	c-1.3,0.3-2.6,0.5-3.9,0.6c-1.3,0.1-2.6,0.2-4,0.2H2180c-1.3,0-2.7-0.1-4-0.2c-1.3-0.1-2.6-0.3-3.9-0.6c-1.3-0.3-2.6-0.6-3.9-1
	s-2.5-0.8-3.7-1.3c-1.2-0.5-2.4-1.1-3.6-1.7c-1.2-0.6-2.3-1.3-3.4-2c-1.1-0.7-2.2-1.5-3.2-2.4c-1-0.8-2-1.7-2.9-2.7
	s-1.8-1.9-2.7-2.9c-0.8-1-1.6-2.1-2.4-3.2c-0.7-1.1-1.4-2.2-2-3.4c-0.6-1.2-1.2-2.4-1.7-3.6c-0.5-1.2-1-2.5-1.3-3.7s-0.7-2.6-1-3.9
	c-0.3-1.3-0.5-2.6-0.6-3.9c-0.1-1.3-0.2-2.6-0.2-4s0.1-2.7,0.2-4c0.1-1.3,0.3-2.6,0.6-3.9c0.3-1.3,0.6-2.6,1-3.9
	c0.4-1.3,0.8-2.5,1.3-3.7c0.5-1.2,1.1-2.4,1.7-3.6c0.6-1.2,1.3-2.3,2-3.4c0.7-1.1,1.5-2.2,2.4-3.2c0.8-1,1.7-2,2.7-2.9
	s1.9-1.8,2.9-2.7c1-0.8,2.1-1.6,3.2-2.4c1.1-0.7,2.2-1.4,3.4-2c1.2-0.6,2.4-1.2,3.6-1.7c1.2-0.5,2.5-1,3.7-1.3
	c1.3-0.4,2.6-0.7,3.9-1c1.3-0.3,2.6-0.5,3.9-0.6C2177.3,337.6,2178.6,337.6,2180,337.6z"/>
<path class="st0" d="M2180,15.1h243.5c1.3,0,2.7,0.1,4,0.2c1.3,0.1,2.6,0.3,3.9,0.6c1.3,0.3,2.6,0.6,3.9,1c1.3,0.4,2.5,0.8,3.7,1.3
	c1.2,0.5,2.4,1.1,3.6,1.7c1.2,0.6,2.3,1.3,3.4,2c1.1,0.7,2.2,1.5,3.2,2.4c1,0.8,2,1.7,2.9,2.7s1.8,1.9,2.7,2.9
	c0.8,1,1.6,2.1,2.4,3.2c0.7,1.1,1.4,2.2,2,3.4s1.2,2.4,1.7,3.6c0.5,1.2,1,2.5,1.3,3.7c0.4,1.3,0.7,2.6,1,3.9
	c0.3,1.3,0.5,2.6,0.6,3.9c0.1,1.3,0.2,2.6,0.2,4c0,1.3-0.1,2.7-0.2,4c-0.1,1.3-0.3,2.6-0.6,3.9c-0.3,1.3-0.6,2.6-1,3.9
	c-0.4,1.3-0.8,2.5-1.3,3.7c-0.5,1.2-1.1,2.4-1.7,3.6c-0.6,1.2-1.3,2.3-2,3.4c-0.7,1.1-1.5,2.2-2.4,3.2c-0.8,1-1.7,2-2.7,2.9
	c-0.9,0.9-1.9,1.8-2.9,2.7c-1,0.8-2.1,1.6-3.2,2.4c-1.1,0.7-2.2,1.4-3.4,2c-1.2,0.6-2.4,1.2-3.6,1.7c-1.2,0.5-2.5,1-3.7,1.3
	c-1.3,0.4-2.6,0.7-3.9,1c-1.3,0.3-2.6,0.5-3.9,0.6c-1.3,0.1-2.6,0.2-4,0.2H2180c-1.3,0-2.7-0.1-4-0.2c-1.3-0.1-2.6-0.3-3.9-0.6
	c-1.3-0.3-2.6-0.6-3.9-1c-1.3-0.4-2.5-0.8-3.7-1.3c-1.2-0.5-2.4-1.1-3.6-1.7c-1.2-0.6-2.3-1.3-3.4-2c-1.1-0.7-2.2-1.5-3.2-2.4
	c-1-0.8-2-1.7-2.9-2.7c-0.9-0.9-1.8-1.9-2.7-2.9c-0.8-1-1.6-2.1-2.4-3.2c-0.7-1.1-1.4-2.2-2-3.4c-0.6-1.2-1.2-2.4-1.7-3.6
	c-0.5-1.2-1-2.5-1.3-3.7c-0.4-1.3-0.7-2.6-1-3.9c-0.3-1.3-0.5-2.6-0.6-3.9c-0.1-1.3-0.2-2.6-0.2-4c0-1.3,0.1-2.6,0.2-4
	c0.1-1.3,0.3-2.6,0.6-3.9c0.3-1.3,0.6-2.6,1-3.9c0.4-1.3,0.8-2.5,1.3-3.7c0.5-1.2,1.1-2.4,1.7-3.6s1.3-2.3,2-3.4
	c0.7-1.1,1.5-2.2,2.4-3.2c0.8-1,1.7-2,2.7-2.9s1.9-1.8,2.9-2.7c1-0.8,2.1-1.6,3.2-2.4c1.1-0.7,2.2-1.4,3.4-2
	c1.2-0.6,2.4-1.2,3.6-1.7c1.2-0.5,2.5-1,3.7-1.3c1.3-0.4,2.6-0.7,3.9-1c1.3-0.3,2.6-0.5,3.9-0.6C2177.3,15.2,2178.6,15.1,2180,15.1z
	"/>
<path class="st0" d="M479.8,337.6h241.5c1.3,0,2.7,0.1,4,0.2c1.3,0.1,2.6,0.3,3.9,0.6c1.3,0.3,2.6,0.6,3.9,1
	c1.3,0.4,2.5,0.8,3.7,1.3c1.2,0.5,2.4,1.1,3.6,1.7c1.2,0.6,2.3,1.3,3.4,2c1.1,0.7,2.2,1.5,3.2,2.4c1,0.8,2,1.7,2.9,2.7
	s1.8,1.9,2.7,2.9c0.8,1,1.6,2.1,2.4,3.2c0.7,1.1,1.4,2.2,2,3.4c0.6,1.2,1.2,2.4,1.7,3.6c0.5,1.2,1,2.5,1.3,3.7
	c0.4,1.3,0.7,2.6,1,3.9c0.3,1.3,0.5,2.6,0.6,3.9c0.1,1.3,0.2,2.6,0.2,4s-0.1,2.7-0.2,4c-0.1,1.3-0.3,2.6-0.6,3.9
	c-0.3,1.3-0.6,2.6-1,3.9c-0.4,1.3-0.8,2.5-1.3,3.7c-0.5,1.2-1.1,2.4-1.7,3.6c-0.6,1.2-1.3,2.3-2,3.4c-0.7,1.1-1.5,2.2-2.4,3.2
	c-0.8,1-1.7,2-2.7,2.9s-1.9,1.8-2.9,2.7c-1,0.8-2.1,1.6-3.2,2.4c-1.1,0.7-2.2,1.4-3.4,2c-1.2,0.6-2.4,1.2-3.6,1.7
	c-1.2,0.5-2.5,1-3.7,1.3c-1.3,0.4-2.6,0.7-3.9,1c-1.3,0.3-2.6,0.5-3.9,0.6c-1.3,0.1-2.6,0.2-4,0.2H479.8c-1.3,0-2.6-0.1-4-0.2
	c-1.3-0.1-2.6-0.3-3.9-0.6c-1.3-0.3-2.6-0.6-3.9-1c-1.3-0.4-2.5-0.8-3.7-1.3c-1.2-0.5-2.4-1.1-3.6-1.7s-2.3-1.3-3.4-2
	c-1.1-0.7-2.2-1.5-3.2-2.4c-1-0.8-2-1.7-2.9-2.7s-1.8-1.9-2.7-2.9c-0.8-1-1.6-2.1-2.4-3.2c-0.7-1.1-1.4-2.2-2-3.4
	c-0.6-1.2-1.2-2.4-1.7-3.6c-0.5-1.2-1-2.5-1.3-3.7c-0.4-1.3-0.7-2.6-1-3.9c-0.3-1.3-0.5-2.6-0.6-3.9c-0.1-1.3-0.2-2.6-0.2-4
	s0.1-2.7,0.2-4c0.1-1.3,0.3-2.6,0.6-3.9c0.3-1.3,0.6-2.6,1-3.9c0.4-1.3,0.8-2.5,1.3-3.7c0.5-1.2,1.1-2.4,1.7-3.6
	c0.6-1.2,1.3-2.3,2-3.4c0.7-1.1,1.5-2.2,2.4-3.2c0.8-1,1.7-2,2.7-2.9s1.9-1.8,2.9-2.7c1-0.8,2.1-1.6,3.2-2.4c1.1-0.7,2.2-1.4,3.4-2
	c1.2-0.6,2.4-1.2,3.6-1.7c1.2-0.5,2.5-1,3.7-1.3c1.3-0.4,2.6-0.7,3.9-1c1.3-0.3,2.6-0.5,3.9-0.6
	C477.2,337.6,478.5,337.6,479.8,337.6z"/>
<path class="st0" d="M479.8,15.1h241.5c1.3,0,2.7,0.1,4,0.2c1.3,0.1,2.6,0.3,3.9,0.6c1.3,0.3,2.6,0.6,3.9,1c1.3,0.4,2.5,0.8,3.7,1.3
	c1.2,0.5,2.4,1.1,3.6,1.7c1.2,0.6,2.3,1.3,3.4,2c1.1,0.7,2.2,1.5,3.2,2.4c1,0.8,2,1.7,2.9,2.7s1.8,1.9,2.7,2.9
	c0.8,1,1.6,2.1,2.4,3.2c0.7,1.1,1.4,2.2,2,3.4s1.2,2.4,1.7,3.6c0.5,1.2,1,2.5,1.3,3.7c0.4,1.3,0.7,2.6,1,3.9
	c0.3,1.3,0.5,2.6,0.6,3.9c0.1,1.3,0.2,2.6,0.2,4c0,1.3-0.1,2.7-0.2,4c-0.1,1.3-0.3,2.6-0.6,3.9c-0.3,1.3-0.6,2.6-1,3.9
	c-0.4,1.3-0.8,2.5-1.3,3.7c-0.5,1.2-1.1,2.4-1.7,3.6c-0.6,1.2-1.3,2.3-2,3.4c-0.7,1.1-1.5,2.2-2.4,3.2c-0.8,1-1.7,2-2.7,2.9
	c-0.9,0.9-1.9,1.8-2.9,2.7c-1,0.8-2.1,1.6-3.2,2.4c-1.1,0.7-2.2,1.4-3.4,2c-1.2,0.6-2.4,1.2-3.6,1.7c-1.2,0.5-2.5,1-3.7,1.3
	c-1.3,0.4-2.6,0.7-3.9,1c-1.3,0.3-2.6,0.5-3.9,0.6c-1.3,0.1-2.6,0.2-4,0.2H479.8c-1.3,0-2.6-0.1-4-0.2c-1.3-0.1-2.6-0.3-3.9-0.6
	c-1.3-0.3-2.6-0.6-3.9-1c-1.3-0.4-2.5-0.8-3.7-1.3c-1.2-0.5-2.4-1.1-3.6-1.7s-2.3-1.3-3.4-2c-1.1-0.7-2.2-1.5-3.2-2.4
	c-1-0.8-2-1.7-2.9-2.7c-0.9-0.9-1.8-1.9-2.7-2.9c-0.8-1-1.6-2.1-2.4-3.2c-0.7-1.1-1.4-2.2-2-3.4c-0.6-1.2-1.2-2.4-1.7-3.6
	c-0.5-1.2-1-2.5-1.3-3.7c-0.4-1.3-0.7-2.6-1-3.9c-0.3-1.3-0.5-2.6-0.6-3.9c-0.1-1.3-0.2-2.6-0.2-4c0-1.3,0.1-2.6,0.2-4
	c0.1-1.3,0.3-2.6,0.6-3.9c0.3-1.3,0.6-2.6,1-3.9c0.4-1.3,0.8-2.5,1.3-3.7c0.5-1.2,1.1-2.4,1.7-3.6s1.3-2.3,2-3.4
	c0.7-1.1,1.5-2.2,2.4-3.2c0.8-1,1.7-2,2.7-2.9s1.9-1.8,2.9-2.7c1-0.8,2.1-1.6,3.2-2.4c1.1-0.7,2.2-1.4,3.4-2s2.4-1.2,3.6-1.7
	c1.2-0.5,2.5-1,3.7-1.3c1.3-0.4,2.6-0.7,3.9-1c1.3-0.3,2.6-0.5,3.9-0.6C477.2,15.2,478.5,15.1,479.8,15.1z"/>
<path class="st0" d="M480,175.9l139.2,0.3c1.3,0,2.6,0.1,4,0.2c1.3,0.1,2.6,0.3,3.9,0.6c1.3,0.3,2.6,0.6,3.9,1
	c1.3,0.4,2.5,0.8,3.7,1.3c1.2,0.5,2.4,1.1,3.6,1.7c1.2,0.6,2.3,1.3,3.4,2c1.1,0.7,2.2,1.5,3.2,2.4c1,0.8,2,1.7,2.9,2.7
	c0.9,0.9,1.8,1.9,2.7,3c0.8,1,1.6,2.1,2.4,3.2s1.4,2.2,2,3.4c0.6,1.2,1.2,2.4,1.7,3.6c0.5,1.2,0.9,2.5,1.3,3.7
	c0.4,1.3,0.7,2.6,1,3.9c0.3,1.3,0.4,2.6,0.6,3.9c0.1,1.3,0.2,2.6,0.2,4c0,1.3-0.1,2.6-0.2,4c-0.1,1.3-0.3,2.6-0.6,3.9
	c-0.3,1.3-0.6,2.6-1,3.9c-0.4,1.3-0.8,2.5-1.3,3.7c-0.5,1.2-1.1,2.4-1.7,3.6c-0.6,1.2-1.3,2.3-2.1,3.4c-0.7,1.1-1.5,2.2-2.4,3.2
	c-0.8,1-1.7,2-2.7,2.9c-0.9,0.9-1.9,1.8-2.9,2.7c-1,0.8-2.1,1.6-3.2,2.4c-1.1,0.7-2.2,1.4-3.4,2c-1.2,0.6-2.4,1.2-3.6,1.7
	c-1.2,0.5-2.5,0.9-3.7,1.3c-1.3,0.4-2.6,0.7-3.9,1c-1.3,0.3-2.6,0.4-3.9,0.6c-1.3,0.1-2.6,0.2-4,0.2l-139.2-0.3
	c-1.3,0-2.6-0.1-4-0.2c-1.3-0.1-2.6-0.3-3.9-0.6c-1.3-0.3-2.6-0.6-3.9-1c-1.3-0.4-2.5-0.8-3.7-1.3c-1.2-0.5-2.4-1.1-3.6-1.7
	c-1.2-0.6-2.3-1.3-3.4-2.1c-1.1-0.7-2.2-1.5-3.2-2.4c-1-0.8-2-1.7-2.9-2.7c-0.9-0.9-1.8-1.9-2.7-2.9c-0.8-1-1.6-2.1-2.4-3.2
	c-0.7-1.1-1.4-2.2-2-3.4c-0.6-1.2-1.2-2.4-1.7-3.6c-0.5-1.2-0.9-2.5-1.3-3.7c-0.4-1.3-0.7-2.6-1-3.9c-0.3-1.3-0.4-2.6-0.6-3.9
	c-0.1-1.3-0.2-2.6-0.2-4c0-1.3,0.1-2.7,0.2-4c0.1-1.3,0.3-2.6,0.6-3.9c0.3-1.3,0.6-2.6,1-3.9c0.4-1.3,0.8-2.5,1.3-3.7
	c0.5-1.2,1.1-2.4,1.7-3.6c0.6-1.2,1.3-2.3,2.1-3.4c0.7-1.1,1.5-2.2,2.4-3.2c0.8-1,1.7-2,2.7-2.9c0.9-0.9,1.9-1.8,2.9-2.7
	c1-0.8,2.1-1.6,3.2-2.4s2.2-1.4,3.4-2c1.2-0.6,2.4-1.2,3.6-1.7c1.2-0.5,2.5-0.9,3.7-1.3c1.3-0.4,2.6-0.7,3.9-1
	c1.3-0.3,2.6-0.4,3.9-0.6C477.4,176,478.7,175.9,480,175.9z"/>
<path class="st1" d="M1652.7,256.5l-0.6,0c-1.3,0-2.7-0.1-4-0.2c-1.3-0.1-2.6-0.3-3.9-0.6c-1.3-0.3-2.6-0.6-3.9-1
	c-1.3-0.4-2.5-0.8-3.7-1.3s-2.4-1.1-3.6-1.7c-1.2-0.6-2.3-1.3-3.4-2.1c-1.1-0.7-2.2-1.5-3.2-2.4c-1-0.8-2-1.7-2.9-2.7
	c-0.9-0.9-1.8-1.9-2.7-2.9c-0.8-1-1.6-2.1-2.4-3.2c-0.7-1.1-1.4-2.2-2-3.4c-0.6-1.2-1.2-2.4-1.7-3.6c-0.5-1.2-0.9-2.5-1.3-3.7
	c-0.4-1.3-0.7-2.6-1-3.9c-0.3-1.3-0.4-2.6-0.6-3.9c-0.1-1.3-0.2-2.6-0.2-4c0-1.3,0.1-2.7,0.2-4c0.1-1.3,0.3-2.6,0.6-3.9
	c0.3-1.3,0.6-2.6,1-3.8c0.4-1.3,0.8-2.5,1.3-3.7c0.5-1.2,1.1-2.4,1.7-3.6c0.6-1.2,1.3-2.3,2-3.4c0.7-1.1,1.5-2.2,2.4-3.2
	c0.8-1,1.7-2,2.7-2.9c0.9-0.9,1.9-1.8,3-2.7c1-0.8,2.1-1.6,3.2-2.4s2.2-1.4,3.4-2c1.2-0.6,2.4-1.2,3.6-1.7c1.2-0.5,2.5-0.9,3.7-1.3
	c1.3-0.4,2.6-0.7,3.9-1c1.3-0.3,2.6-0.4,3.9-0.6c1.3-0.1,2.6-0.2,4-0.2l0.6,0c1.3,0,2.6,0.1,4,0.2c1.3,0.1,2.6,0.3,3.9,0.6
	c1.3,0.3,2.6,0.6,3.9,1c1.3,0.4,2.5,0.8,3.7,1.3c1.2,0.5,2.4,1.1,3.6,1.7c1.2,0.6,2.3,1.3,3.4,2.1c1.1,0.7,2.2,1.5,3.2,2.4
	c1,0.8,2,1.7,2.9,2.7c0.9,0.9,1.8,1.9,2.7,2.9c0.8,1,1.6,2.1,2.4,3.2c0.7,1.1,1.4,2.2,2,3.4c0.6,1.2,1.2,2.4,1.7,3.6
	c0.5,1.2,0.9,2.5,1.3,3.7c0.4,1.3,0.7,2.6,1,3.9c0.3,1.3,0.5,2.6,0.6,3.9c0.1,1.3,0.2,2.6,0.2,4c0,1.3-0.1,2.7-0.2,4
	c-0.1,1.3-0.3,2.6-0.6,3.9c-0.3,1.3-0.6,2.6-1,3.8c-0.4,1.3-0.8,2.5-1.3,3.7c-0.5,1.2-1.1,2.4-1.7,3.6c-0.6,1.2-1.3,2.3-2.1,3.4
	c-0.7,1.1-1.5,2.2-2.4,3.2c-0.8,1-1.7,2-2.7,2.9s-1.9,1.8-2.9,2.7c-1,0.8-2.1,1.6-3.2,2.4c-1.1,0.7-2.2,1.4-3.4,2s-2.4,1.2-3.6,1.7
	c-1.2,0.5-2.5,0.9-3.7,1.3c-1.3,0.4-2.6,0.7-3.9,1c-1.3,0.3-2.6,0.4-3.9,0.6C1655.3,256.4,1654,256.5,1652.7,256.5z"/>
<path class="st0" d="M2180.2,175.7l139.2,0.3c1.3,0,2.7,0.1,4,0.2c1.3,0.1,2.6,0.3,3.9,0.6c1.3,0.3,2.6,0.6,3.8,1
	c1.3,0.4,2.5,0.8,3.7,1.3s2.4,1.1,3.6,1.7c1.2,0.6,2.3,1.3,3.4,2c1.1,0.7,2.2,1.5,3.2,2.4c1,0.8,2,1.7,2.9,2.7
	c0.9,0.9,1.8,1.9,2.7,3c0.8,1,1.6,2.1,2.4,3.2c0.7,1.1,1.4,2.2,2,3.4c0.6,1.2,1.2,2.4,1.7,3.6c0.5,1.2,0.9,2.5,1.3,3.7
	c0.4,1.3,0.7,2.6,1,3.9c0.3,1.3,0.4,2.6,0.6,3.9c0.1,1.3,0.2,2.6,0.2,4c0,1.3-0.1,2.6-0.2,4c-0.1,1.3-0.3,2.6-0.6,3.9
	c-0.3,1.3-0.6,2.6-1,3.9c-0.4,1.3-0.8,2.5-1.3,3.7c-0.5,1.2-1.1,2.4-1.7,3.6c-0.6,1.2-1.3,2.3-2,3.4c-0.7,1.1-1.5,2.2-2.4,3.2
	c-0.8,1-1.7,2-2.7,2.9c-0.9,0.9-1.9,1.8-3,2.7c-1,0.8-2.1,1.6-3.2,2.4c-1.1,0.7-2.2,1.4-3.4,2c-1.2,0.6-2.4,1.2-3.6,1.7
	c-1.2,0.5-2.5,0.9-3.7,1.3c-1.3,0.4-2.6,0.7-3.9,1c-1.3,0.3-2.6,0.4-3.9,0.6c-1.3,0.1-2.6,0.2-4,0.2l-139.2-0.3
	c-1.3,0-2.7-0.1-4-0.2c-1.3-0.1-2.6-0.3-3.9-0.6c-1.3-0.3-2.6-0.6-3.8-1c-1.3-0.4-2.5-0.8-3.7-1.3c-1.2-0.5-2.4-1.1-3.6-1.7
	c-1.2-0.6-2.3-1.3-3.4-2.1c-1.1-0.7-2.2-1.5-3.2-2.4c-1-0.8-2-1.7-2.9-2.7c-0.9-0.9-1.8-1.9-2.7-2.9c-0.8-1-1.6-2.1-2.4-3.2
	s-1.4-2.2-2-3.4c-0.6-1.2-1.2-2.4-1.7-3.6c-0.5-1.2-0.9-2.5-1.3-3.7c-0.4-1.3-0.7-2.6-1-3.9c-0.3-1.3-0.4-2.6-0.6-3.9
	c-0.1-1.3-0.2-2.6-0.2-4c0-1.3,0.1-2.7,0.2-4c0.1-1.3,0.3-2.6,0.6-3.9c0.3-1.3,0.6-2.6,1-3.9c0.4-1.3,0.8-2.5,1.3-3.7
	c0.5-1.2,1.1-2.4,1.7-3.6c0.6-1.2,1.3-2.3,2-3.4c0.7-1.1,1.5-2.2,2.4-3.2c0.8-1,1.7-2,2.7-2.9c0.9-0.9,1.9-1.8,3-2.7
	c1-0.8,2.1-1.6,3.2-2.4c1.1-0.7,2.2-1.4,3.4-2c1.2-0.6,2.4-1.2,3.6-1.7c1.2-0.5,2.5-0.9,3.7-1.3s2.6-0.7,3.9-1
	c1.3-0.3,2.6-0.4,3.9-0.6C2177.5,175.7,2178.8,175.7,2180.2,175.7z"/>
<path class="st2" d="M718.1,59.2H483"/>
<path class="st2" d="M718.1,377.5H483"/>
<path class="st2" d="M614.8,216.3H483"/>
<path class="st2" d="M315.4,378.9h-235"/>
<path class="st2" d="M77.4,297.8v80.6"/>
<path class="st2" d="M83.5,55.4h235"/>
<path class="st2" d="M318.4,139.9V56"/>
<path class="st2" d="M882.7,374.5L883.6,56"/>
<path class="st2" d="M967.2,59.4h-81.5"/>
<path class="st2" d="M1125,59.2l-0.9,318.5"/>
<path class="st2" d="M1037,378.3l87.5,0"/>
<path class="st2" d="M1529.5,55.4h-157.7"/>
<path class="st2" d="M1529.5,378.9h-157.7"/>
<path class="st2" d="M1369.7,55.7l-81.2,168.7"/>
<path class="st2" d="M1288.7,229.7l80.9,149.1"/>
<path class="st0" d="M1952.3,97.3L1791.4,97c-1.3,0-2.7-0.1-4-0.2c-1.3-0.1-2.6-0.3-3.9-0.6c-1.3-0.3-2.6-0.6-3.9-1
	c-1.3-0.4-2.5-0.8-3.7-1.3c-1.2-0.5-2.4-1.1-3.6-1.7c-1.2-0.6-2.3-1.3-3.4-2.1c-1.1-0.7-2.2-1.5-3.2-2.4c-1-0.8-2-1.7-2.9-2.7
	c-0.9-0.9-1.8-1.9-2.7-2.9c-0.8-1-1.6-2.1-2.4-3.2c-0.7-1.1-1.4-2.2-2-3.4c-0.6-1.2-1.2-2.4-1.7-3.6c-0.5-1.2-1-2.5-1.3-3.7
	c-0.4-1.3-0.7-2.6-1-3.9c-0.3-1.3-0.5-2.6-0.6-3.9c-0.1-1.3-0.2-2.6-0.2-4c0-1.3,0.1-2.7,0.2-4c0.1-1.3,0.3-2.6,0.6-3.9
	c0.3-1.3,0.6-2.6,1-3.9c0.4-1.3,0.8-2.5,1.3-3.7c0.5-1.2,1.1-2.4,1.7-3.6c0.6-1.2,1.3-2.3,2-3.4c0.7-1.1,1.5-2.2,2.4-3.2
	c0.8-1,1.7-2,2.7-2.9s1.9-1.8,2.9-2.7c1-0.8,2.1-1.6,3.2-2.4s2.2-1.4,3.4-2s2.4-1.2,3.6-1.7c1.2-0.5,2.5-1,3.7-1.3
	c1.3-0.4,2.6-0.7,3.9-1c1.3-0.3,2.6-0.5,3.9-0.6c1.3-0.1,2.6-0.2,4-0.2l160.8,0.3c1.3,0,2.7,0.1,4,0.2c1.3,0.1,2.6,0.3,3.9,0.6
	c1.3,0.3,2.6,0.6,3.9,1c1.3,0.4,2.5,0.8,3.7,1.3c1.2,0.5,2.4,1.1,3.6,1.7c1.2,0.6,2.3,1.3,3.4,2c1.1,0.7,2.2,1.5,3.2,2.4
	c1,0.8,2,1.7,2.9,2.7c0.9,0.9,1.8,1.9,2.7,3c0.8,1,1.6,2.1,2.4,3.2c0.7,1.1,1.4,2.2,2,3.4c0.6,1.2,1.2,2.4,1.7,3.6
	c0.5,1.2,0.9,2.5,1.3,3.7c0.4,1.3,0.7,2.6,1,3.9c0.3,1.3,0.4,2.6,0.6,3.9c0.1,1.3,0.2,2.6,0.2,4s-0.1,2.7-0.2,4
	c-0.1,1.3-0.3,2.6-0.6,3.9c-0.3,1.3-0.6,2.6-1,3.9c-0.4,1.3-0.8,2.5-1.3,3.7c-0.5,1.2-1.1,2.4-1.7,3.6c-0.6,1.2-1.3,2.3-2,3.4
	c-0.7,1.1-1.5,2.2-2.4,3.2c-0.8,1-1.7,2-2.7,2.9c-0.9,0.9-1.9,1.8-2.9,2.7c-1,0.8-2.1,1.6-3.2,2.4c-1.1,0.7-2.2,1.4-3.4,2
	c-1.2,0.6-2.4,1.2-3.6,1.7c-1.2,0.5-2.5,0.9-3.7,1.3c-1.3,0.4-2.6,0.7-3.9,1c-1.3,0.3-2.6,0.4-3.9,0.6
	C1954.9,97.2,1953.6,97.3,1952.3,97.3z"/>
<path class="st0" d="M1952.3,419.5l-160.8-0.1c-1.3,0-2.7-0.1-4-0.2c-1.3-0.1-2.6-0.3-3.9-0.6c-1.3-0.3-2.6-0.6-3.9-1
	c-1.3-0.4-2.5-0.8-3.7-1.3c-1.2-0.5-2.4-1.1-3.6-1.7c-1.2-0.6-2.3-1.3-3.4-2c-1.1-0.7-2.2-1.5-3.2-2.4c-1-0.8-2-1.7-2.9-2.7
	s-1.8-1.9-2.7-2.9c-0.8-1-1.6-2.1-2.4-3.2c-0.7-1.1-1.4-2.2-2-3.4c-0.6-1.2-1.2-2.4-1.7-3.6c-0.5-1.2-1-2.5-1.3-3.7
	c-0.4-1.3-0.7-2.6-1-3.9c-0.3-1.3-0.4-2.6-0.6-3.9c-0.1-1.3-0.2-2.6-0.2-4s0.1-2.7,0.2-4c0.1-1.3,0.3-2.6,0.6-3.9
	c0.3-1.3,0.6-2.6,1-3.9c0.4-1.3,0.8-2.5,1.3-3.7c0.5-1.2,1.1-2.4,1.7-3.6c0.6-1.2,1.3-2.3,2-3.4c0.7-1.1,1.5-2.2,2.4-3.2
	c0.8-1,1.7-2,2.7-2.9c0.9-0.9,1.9-1.8,2.9-2.7c1-0.8,2.1-1.6,3.2-2.4c1.1-0.7,2.2-1.4,3.4-2c1.2-0.6,2.4-1.2,3.6-1.7
	c1.2-0.5,2.5-1,3.7-1.3c1.3-0.4,2.6-0.7,3.9-1c1.3-0.3,2.6-0.5,3.9-0.6c1.3-0.1,2.6-0.2,4-0.2l160.8,0.1c1.3,0,2.7,0.1,4,0.2
	c1.3,0.1,2.6,0.3,3.9,0.6c1.3,0.3,2.6,0.6,3.9,1c1.3,0.4,2.5,0.8,3.7,1.3c1.2,0.5,2.4,1.1,3.6,1.7c1.2,0.6,2.3,1.3,3.4,2
	c1.1,0.7,2.2,1.5,3.2,2.4s2,1.7,2.9,2.7s1.8,1.9,2.7,2.9c0.8,1,1.6,2.1,2.4,3.2c0.7,1.1,1.4,2.2,2,3.4s1.2,2.4,1.7,3.6
	c0.5,1.2,0.9,2.5,1.3,3.7c0.4,1.3,0.7,2.6,1,3.9c0.3,1.3,0.5,2.6,0.6,3.9c0.1,1.3,0.2,2.6,0.2,4c0,1.3-0.1,2.6-0.2,4
	c-0.1,1.3-0.3,2.6-0.6,3.9c-0.3,1.3-0.6,2.6-1,3.9c-0.4,1.3-0.8,2.5-1.3,3.7c-0.5,1.2-1.1,2.4-1.7,3.6c-0.6,1.2-1.3,2.3-2,3.4
	c-0.7,1.1-1.5,2.2-2.4,3.2c-0.8,1-1.7,2-2.7,2.9s-1.9,1.8-2.9,2.7c-1,0.8-2.1,1.6-3.2,2.4c-1.1,0.7-2.2,1.4-3.4,2s-2.4,1.2-3.6,1.7
	c-1.2,0.5-2.5,1-3.7,1.3c-1.3,0.4-2.6,0.7-3.9,1c-1.3,0.3-2.6,0.5-3.9,0.6C1955,419.4,1953.7,419.5,1952.3,419.5z"/>
<path class="st0" d="M2064.7,223.8l-76.5,171c-0.5,1.2-1.1,2.4-1.8,3.5s-1.4,2.3-2.1,3.3c-0.8,1.1-1.6,2.1-2.5,3.1
	c-0.9,1-1.8,2-2.8,2.9c-1,0.9-2,1.8-3,2.6c-1.1,0.8-2.1,1.6-3.3,2.3c-1.1,0.7-2.3,1.4-3.5,1.9s-2.4,1.1-3.6,1.6s-2.5,0.9-3.8,1.2
	s-2.6,0.6-3.9,0.9c-1.3,0.2-2.6,0.4-3.9,0.5c-1.3,0.1-2.6,0.1-4,0.1c-1.3,0-2.6-0.1-4-0.3c-1.3-0.2-2.6-0.4-3.9-0.7
	c-1.3-0.3-2.6-0.7-3.8-1.1c-1.3-0.4-2.5-0.9-3.7-1.4c-1.2-0.5-2.4-1.1-3.5-1.8c-1.2-0.7-2.3-1.4-3.3-2.1c-1.1-0.8-2.1-1.6-3.1-2.5
	c-1-0.9-2-1.8-2.9-2.8c-0.9-1-1.8-2-2.6-3c-0.8-1-1.6-2.1-2.3-3.3c-0.7-1.1-1.4-2.3-1.9-3.5c-0.6-1.2-1.1-2.4-1.6-3.6
	c-0.5-1.2-0.9-2.5-1.2-3.8c-0.3-1.3-0.6-2.6-0.9-3.9c-0.2-1.3-0.4-2.6-0.5-3.9c-0.1-1.3-0.1-2.6-0.1-4c0-1.3,0.1-2.6,0.3-4
	c0.2-1.3,0.4-2.6,0.7-3.9c0.3-1.3,0.7-2.6,1.1-3.8c0.4-1.3,0.9-2.5,1.4-3.7l76.5-171c0.5-1.2,1.1-2.4,1.8-3.5
	c0.7-1.2,1.4-2.3,2.1-3.3c0.8-1.1,1.6-2.1,2.5-3.1c0.9-1,1.8-2,2.8-2.9c1-0.9,2-1.8,3-2.6c1.1-0.8,2.1-1.6,3.3-2.3
	c1.1-0.7,2.3-1.4,3.5-1.9s2.4-1.1,3.6-1.6c1.2-0.5,2.5-0.9,3.8-1.2c1.3-0.3,2.6-0.6,3.9-0.9c1.3-0.2,2.6-0.4,3.9-0.5s2.6-0.1,4-0.1
	c1.3,0,2.6,0.1,4,0.3c1.3,0.2,2.6,0.4,3.9,0.7c1.3,0.3,2.6,0.7,3.8,1.1c1.3,0.4,2.5,0.9,3.7,1.4c1.2,0.5,2.4,1.1,3.5,1.8
	c1.2,0.7,2.3,1.4,3.3,2.1c1.1,0.8,2.1,1.6,3.1,2.5c1,0.9,2,1.8,2.9,2.8c0.9,1,1.8,2,2.6,3s1.6,2.1,2.3,3.3c0.7,1.1,1.4,2.3,1.9,3.5
	c0.6,1.2,1.1,2.4,1.6,3.6c0.5,1.2,0.9,2.5,1.2,3.8c0.3,1.3,0.6,2.6,0.9,3.9c0.2,1.3,0.4,2.6,0.5,3.9c0.1,1.3,0.1,2.6,0.1,4
	c0,1.3-0.1,2.6-0.3,4c-0.2,1.3-0.4,2.6-0.7,3.9c-0.3,1.3-0.7,2.6-1.1,3.8C2065.7,221.3,2065.2,222.6,2064.7,223.8z"/>
<path class="st0" d="M1989.9,222.7l-73.3-146c-0.6-1.2-1.1-2.4-1.6-3.6c-0.5-1.2-0.9-2.5-1.2-3.8c-0.3-1.3-0.6-2.6-0.9-3.9
	c-0.2-1.3-0.4-2.6-0.5-3.9c-0.1-1.3-0.1-2.6-0.1-4c0-1.3,0.1-2.6,0.3-4c0.2-1.3,0.4-2.6,0.7-3.9c0.3-1.3,0.7-2.6,1.1-3.8
	c0.4-1.3,0.9-2.5,1.4-3.7c0.5-1.2,1.1-2.4,1.8-3.5c0.7-1.2,1.4-2.3,2.1-3.4s1.6-2.1,2.5-3.1c0.9-1,1.8-2,2.7-2.9c1-0.9,2-1.8,3-2.6
	c1-0.8,2.1-1.6,3.2-2.3c1.1-0.7,2.3-1.4,3.5-2c1.2-0.6,2.4-1.1,3.6-1.6c1.2-0.5,2.5-0.9,3.8-1.2c1.3-0.3,2.6-0.6,3.9-0.9
	c1.3-0.2,2.6-0.4,3.9-0.5c1.3-0.1,2.6-0.1,4-0.1c1.3,0,2.7,0.1,4,0.3c1.3,0.2,2.6,0.4,3.9,0.7c1.3,0.3,2.6,0.7,3.8,1.1
	c1.3,0.4,2.5,0.9,3.7,1.4c1.2,0.5,2.4,1.1,3.5,1.8s2.3,1.4,3.4,2.1c1.1,0.8,2.1,1.6,3.1,2.4c1,0.9,2,1.8,2.9,2.7c0.9,1,1.8,2,2.6,3
	c0.8,1,1.6,2.1,2.3,3.2c0.7,1.1,1.4,2.3,2,3.5l73.3,146c0.6,1.2,1.1,2.4,1.6,3.6c0.5,1.2,0.9,2.5,1.2,3.8c0.3,1.3,0.6,2.6,0.9,3.9
	s0.4,2.6,0.5,3.9c0.1,1.3,0.1,2.6,0.1,4c0,1.3-0.1,2.6-0.3,4c-0.2,1.3-0.4,2.6-0.7,3.9c-0.3,1.3-0.7,2.6-1.1,3.8
	c-0.4,1.3-0.9,2.5-1.4,3.7c-0.5,1.2-1.1,2.4-1.8,3.5c-0.7,1.2-1.4,2.3-2.1,3.4s-1.6,2.1-2.4,3.1c-0.9,1-1.8,2-2.7,2.9
	c-1,0.9-2,1.8-3,2.6c-1,0.8-2.1,1.6-3.3,2.3c-1.1,0.7-2.3,1.4-3.5,2c-1.2,0.6-2.4,1.1-3.6,1.6c-1.2,0.5-2.5,0.9-3.8,1.2
	c-1.3,0.3-2.6,0.6-3.9,0.9c-1.3,0.2-2.6,0.4-3.9,0.5c-1.3,0.1-2.7,0.1-4,0.1c-1.3,0-2.7-0.1-4-0.3c-1.3-0.2-2.6-0.4-3.9-0.7
	c-1.3-0.3-2.6-0.7-3.8-1.1c-1.3-0.4-2.5-0.9-3.7-1.4c-1.2-0.5-2.4-1.1-3.5-1.8c-1.2-0.7-2.3-1.4-3.4-2.1c-1.1-0.8-2.1-1.6-3.1-2.4
	c-1-0.9-2-1.8-2.9-2.7c-0.9-1-1.8-2-2.6-3c-0.8-1-1.6-2.1-2.3-3.2C1991.2,225,1990.5,223.9,1989.9,222.7z"/>
<path class="st2" d="M1789.5,379.5h157.7"/>
<path class="st2" d="M1789.5,56h157.7"/>
<path class="st2" d="M1949.2,379.2l81.2-171.2"/>
<path class="st2" d="M2030.3,208.3l-81-152.2"/>
<path class="st2" d="M2421.5,56.5h-235"/>
<path class="st2" d="M2421.5,374.8h-235"/>
<path class="st2" d="M2318.3,213.6h-131.8"/>
<g>
	<defs>
		<rect id="SVGID_1_" x="312.5" y="49.5" width="11.8" height="11.8"/>
	</defs>
	<clipPath id="SVGID_00000044866041777096125070000007021619689185143431_">
		<use xlink:href="#SVGID_1_"  style="overflow:visible;"/>
	</clipPath>
	<g style="clip-path:url(#SVGID_00000044866041777096125070000007021619689185143431_);">
		<g>
			<defs>
				<circle id="SVGID_00000060735324041381489840000011610763444507878046_" cx="318.4" cy="55.4" r="5.9"/>
			</defs>
			<clipPath id="SVGID_00000078740217263744707730000001773549029103865780_">
				<use xlink:href="#SVGID_00000060735324041381489840000011610763444507878046_"  style="overflow:visible;"/>
			</clipPath>
			<g style="clip-path:url(#SVGID_00000078740217263744707730000001773549029103865780_);">
				<g transform="matrix(1, 0, 0, 1, 234, 343)">
					<g>
						<defs>
							<rect id="SVGID_00000120522731064411053180000017241107108690574489_" x="78.1" y="-294.2" width="13.3" height="13.3"/>
						</defs>
						<clipPath id="SVGID_00000027591930308040518760000000984889810527272352_">
							<use xlink:href="#SVGID_00000120522731064411053180000017241107108690574489_"  style="overflow:visible;"/>
						</clipPath>
						<g style="clip-path:url(#SVGID_00000027591930308040518760000000984889810527272352_);">
							<g>
								<defs>
									<rect id="SVGID_00000008108863253555183580000006645153749919237291_" x="78.5" y="-293.5" width="11.8" height="11.8"/>
								</defs>
								<clipPath id="SVGID_00000023972146161277243190000015908142448062775988_">
									<use xlink:href="#SVGID_00000008108863253555183580000006645153749919237291_"  style="overflow:visible;"/>
								</clipPath>
								<g style="clip-path:url(#SVGID_00000023972146161277243190000015908142448062775988_);">
									<g>
										<defs>
											<circle id="SVGID_00000088854002588473190500000018192274309177460664_" cx="84.4" cy="-287.6" r="5.9"/>
										</defs>
										<clipPath id="SVGID_00000155857853639330741650000002600056029293394621_">
											<use xlink:href="#SVGID_00000088854002588473190500000018192274309177460664_"  style="overflow:visible;"/>
										</clipPath>
										<g style="clip-path:url(#SVGID_00000155857853639330741650000002600056029293394621_);">
											<path class="st1" d="M78.5-293.5h11.8v11.8H78.5V-293.5z"/>
										</g>
									</g>
								</g>
							</g>
						</g>
					</g>
				</g>
			</g>
		</g>
	</g>
</g>
<g>
	<defs>
		<rect id="SVGID_00000169531560767325418340000007142250908898807719_" x="71.5" y="372.6" width="11.7" height="11.7"/>
	</defs>
	<clipPath id="SVGID_00000071535804369349656000000011524093629608701057_">
		<use xlink:href="#SVGID_00000169531560767325418340000007142250908898807719_"  style="overflow:visible;"/>
	</clipPath>
	<g style="clip-path:url(#SVGID_00000071535804369349656000000011524093629608701057_);">
		<g>
			<defs>
				<path id="SVGID_00000181057521070011304210000014404498488588524446_" d="M77.4,372.6c-3.2,0-5.9,2.6-5.9,5.9
					c0,3.2,2.6,5.9,5.9,5.9c3.2,0,5.9-2.6,5.9-5.9C83.3,375.2,80.6,372.6,77.4,372.6z"/>
			</defs>
			<clipPath id="SVGID_00000078765786270185534970000017277112507949743255_">
				<use xlink:href="#SVGID_00000181057521070011304210000014404498488588524446_"  style="overflow:visible;"/>
			</clipPath>
			<g style="clip-path:url(#SVGID_00000078765786270185534970000017277112507949743255_);">
				<g transform="matrix(1, 0, 0, 1, 53, 585)">
					<g>
						<defs>
							<rect id="SVGID_00000129889444501937098460000009386064504927614397_" x="17.7" y="-213.5" width="13.3" height="13.3"/>
						</defs>
						<clipPath id="SVGID_00000033360032348017464960000015516789550712580277_">
							<use xlink:href="#SVGID_00000129889444501937098460000009386064504927614397_"  style="overflow:visible;"/>
						</clipPath>
						<g style="clip-path:url(#SVGID_00000033360032348017464960000015516789550712580277_);">
							<g>
								<defs>
									<rect id="SVGID_00000014603851048668519620000011943546366210300591_" x="18.5" y="-212.4" width="11.7" height="11.7"/>
								</defs>
								<clipPath id="SVGID_00000038375295166071420820000006588604948087334280_">
									<use xlink:href="#SVGID_00000014603851048668519620000011943546366210300591_"  style="overflow:visible;"/>
								</clipPath>
								<g style="clip-path:url(#SVGID_00000038375295166071420820000006588604948087334280_);">
									<g>
										<defs>
											<path id="SVGID_00000079448657018863595040000009305734127199667603_" d="M24.4-212.4c-3.2,0-5.9,2.6-5.9,5.9
												c0,3.2,2.6,5.9,5.9,5.9c3.2,0,5.9-2.6,5.9-5.9C30.3-209.8,27.6-212.4,24.4-212.4z"/>
										</defs>
										<clipPath id="SVGID_00000147900122260312577990000009728910909049105292_">
											<use xlink:href="#SVGID_00000079448657018863595040000009305734127199667603_"  style="overflow:visible;"/>
										</clipPath>
										<g style="clip-path:url(#SVGID_00000147900122260312577990000009728910909049105292_);">
											<path class="st1" d="M18.5-212.4h11.7v11.7H18.5V-212.4z"/>
										</g>
									</g>
								</g>
							</g>
						</g>
					</g>
				</g>
			</g>
		</g>
	</g>
</g>
<g>
	<defs>
		<rect id="SVGID_00000159464692888632912880000009878005222755472284_" x="709.3" y="371.7" width="11.7" height="11.8"/>
	</defs>
	<clipPath id="SVGID_00000070092116863067037050000017910488592480401078_">
		<use xlink:href="#SVGID_00000159464692888632912880000009878005222755472284_"  style="overflow:visible;"/>
	</clipPath>
	<g style="clip-path:url(#SVGID_00000070092116863067037050000017910488592480401078_);">
		<g>
			<defs>
				<path id="SVGID_00000132057295642109083330000007075640635194363803_" d="M715.2,371.7c-3.2,0-5.9,2.6-5.9,5.9
					c0,3.2,2.6,5.9,5.9,5.9c3.2,0,5.9-2.6,5.9-5.9C721.1,374.3,718.4,371.7,715.2,371.7z"/>
			</defs>
			<clipPath id="SVGID_00000024706681272570776390000009494793068189400970_">
				<use xlink:href="#SVGID_00000132057295642109083330000007075640635194363803_"  style="overflow:visible;"/>
			</clipPath>
			<g style="clip-path:url(#SVGID_00000024706681272570776390000009494793068189400970_);">
				<g transform="matrix(1, 0, 0, 1, 531, 585)">
					<g>
						<defs>
							<rect id="SVGID_00000055693053550470354140000008781010648123805587_" x="177.1" y="-213.5" width="13.3" height="12"/>
						</defs>
						<clipPath id="SVGID_00000114754522349708720060000009141862044228811137_">
							<use xlink:href="#SVGID_00000055693053550470354140000008781010648123805587_"  style="overflow:visible;"/>
						</clipPath>
						<g style="clip-path:url(#SVGID_00000114754522349708720060000009141862044228811137_);">
							<g>
								<defs>
									<rect id="SVGID_00000088827622530303752190000004395563591087279786_" x="178.3" y="-213.3" width="11.7" height="11.8"/>
								</defs>
								<clipPath id="SVGID_00000012456195348672497820000002215574476899471247_">
									<use xlink:href="#SVGID_00000088827622530303752190000004395563591087279786_"  style="overflow:visible;"/>
								</clipPath>
								<g style="clip-path:url(#SVGID_00000012456195348672497820000002215574476899471247_);">
									<g>
										<defs>
											<path id="SVGID_00000080186834109923124920000000892217363852518529_" d="M184.2-213.3c-3.2,0-5.9,2.6-5.9,5.9
												c0,3.2,2.6,5.9,5.9,5.9c3.2,0,5.9-2.6,5.9-5.9C190.1-210.7,187.4-213.3,184.2-213.3z"/>
										</defs>
										<clipPath id="SVGID_00000096772626578815744880000007392413908749417402_">
											<use xlink:href="#SVGID_00000080186834109923124920000000892217363852518529_"  style="overflow:visible;"/>
										</clipPath>
										<g style="clip-path:url(#SVGID_00000096772626578815744880000007392413908749417402_);">
											<path class="st1" d="M178.3-213.3h11.7v11.8h-11.7V-213.3z"/>
										</g>
									</g>
								</g>
							</g>
						</g>
					</g>
				</g>
			</g>
		</g>
	</g>
</g>
<g>
	<defs>
		<rect id="SVGID_00000109004901347203793540000013829118767789115779_" x="709.3" y="53.5" width="11.7" height="11.8"/>
	</defs>
	<clipPath id="SVGID_00000007421176697814090840000017243717608406070418_">
		<use xlink:href="#SVGID_00000109004901347203793540000013829118767789115779_"  style="overflow:visible;"/>
	</clipPath>
	<g style="clip-path:url(#SVGID_00000007421176697814090840000017243717608406070418_);">
		<g>
			<defs>
				<path id="SVGID_00000076602387297926358570000007750161610914575488_" d="M715.2,53.5c-3.2,0-5.9,2.6-5.9,5.9s2.6,5.9,5.9,5.9
					c3.2,0,5.9-2.6,5.9-5.9S718.4,53.5,715.2,53.5z"/>
			</defs>
			<clipPath id="SVGID_00000023970176931285717630000016944663722433104317_">
				<use xlink:href="#SVGID_00000076602387297926358570000007750161610914575488_"  style="overflow:visible;"/>
			</clipPath>
			<g style="clip-path:url(#SVGID_00000023970176931285717630000016944663722433104317_);">
				<g transform="matrix(1, 0, 0, 1, 531, 346)">
					<g>
						<defs>
							<rect id="SVGID_00000010284864418790164670000014032277051170806165_" x="177.1" y="-293.2" width="13.3" height="13.3"/>
						</defs>
						<clipPath id="SVGID_00000168806987451652071240000000403692772268622475_">
							<use xlink:href="#SVGID_00000010284864418790164670000014032277051170806165_"  style="overflow:visible;"/>
						</clipPath>
						<g style="clip-path:url(#SVGID_00000168806987451652071240000000403692772268622475_);">
							<g>
								<defs>
									<rect id="SVGID_00000047057035304007315610000009236429476608684690_" x="178.3" y="-292.5" width="11.7" height="11.8"/>
								</defs>
								<clipPath id="SVGID_00000021105435587997831490000005854607948083235977_">
									<use xlink:href="#SVGID_00000047057035304007315610000009236429476608684690_"  style="overflow:visible;"/>
								</clipPath>
								<g style="clip-path:url(#SVGID_00000021105435587997831490000005854607948083235977_);">
									<g>
										<defs>
											<path id="SVGID_00000096760938255480561890000017360081252045672889_" d="M184.2-292.5c-3.2,0-5.9,2.6-5.9,5.9
												c0,3.2,2.6,5.9,5.9,5.9c3.2,0,5.9-2.6,5.9-5.9C190.1-289.9,187.4-292.5,184.2-292.5z"/>
										</defs>
										<clipPath id="SVGID_00000067233844010303390530000001780986400655492022_">
											<use xlink:href="#SVGID_00000096760938255480561890000017360081252045672889_"  style="overflow:visible;"/>
										</clipPath>
										<g style="clip-path:url(#SVGID_00000067233844010303390530000001780986400655492022_);">
											<path class="st1" d="M178.3-292.5h11.7v11.8h-11.7V-292.5z"/>
										</g>
									</g>
								</g>
							</g>
						</g>
					</g>
				</g>
			</g>
		</g>
	</g>
</g>
<g>
	<defs>
		<rect id="SVGID_00000121268406769633930530000003977442036907097275_" x="608.2" y="211" width="11.8" height="11.8"/>
	</defs>
	<clipPath id="SVGID_00000099654233418885615420000012708239676136481193_">
		<use xlink:href="#SVGID_00000121268406769633930530000003977442036907097275_"  style="overflow:visible;"/>
	</clipPath>
	<g style="clip-path:url(#SVGID_00000099654233418885615420000012708239676136481193_);">
		<g>
			<defs>
				<circle id="SVGID_00000075140942143016030500000002044106482652131246_" cx="614.1" cy="216.9" r="5.9"/>
			</defs>
			<clipPath id="SVGID_00000148663798243029125590000003696799684111477180_">
				<use xlink:href="#SVGID_00000075140942143016030500000002044106482652131246_"  style="overflow:visible;"/>
			</clipPath>
			<g style="clip-path:url(#SVGID_00000148663798243029125590000003696799684111477180_);">
				<g transform="matrix(1, 0, 0, 1, 456, 464)">
					<g>
						<defs>
							<rect id="SVGID_00000044169296002271156160000018172174288701912995_" x="152.1" y="-253.9" width="12" height="13.3"/>
						</defs>
						<clipPath id="SVGID_00000021812886012177278970000013690879583904445089_">
							<use xlink:href="#SVGID_00000044169296002271156160000018172174288701912995_"  style="overflow:visible;"/>
						</clipPath>
						<g style="clip-path:url(#SVGID_00000021812886012177278970000013690879583904445089_);">
							<g>
								<defs>
									<rect id="SVGID_00000019657534836606627770000004124868213185993096_" x="152.2" y="-253" width="11.8" height="11.8"/>
								</defs>
								<clipPath id="SVGID_00000041982097486080584230000009291790957889027480_">
									<use xlink:href="#SVGID_00000019657534836606627770000004124868213185993096_"  style="overflow:visible;"/>
								</clipPath>
								<g style="clip-path:url(#SVGID_00000041982097486080584230000009291790957889027480_);">
									<g>
										<defs>
											<circle id="SVGID_00000183950727433794196160000013938888549722664833_" cx="158.1" cy="-247.1" r="5.9"/>
										</defs>
										<clipPath id="SVGID_00000149358690085967107400000006111272498909024917_">
											<use xlink:href="#SVGID_00000183950727433794196160000013938888549722664833_"  style="overflow:visible;"/>
										</clipPath>
										<g style="clip-path:url(#SVGID_00000149358690085967107400000006111272498909024917_);">
											<path class="st1" d="M152.2-253h11.8v11.8h-11.8V-253z"/>
										</g>
									</g>
								</g>
							</g>
						</g>
					</g>
				</g>
			</g>
		</g>
	</g>
</g>
<g>
	<defs>
		<rect id="SVGID_00000083767918411448180470000011276135083279700642_" x="877.7" y="53.5" width="11.8" height="11.8"/>
	</defs>
	<clipPath id="SVGID_00000155123205506701386820000008655948541021167527_">
		<use xlink:href="#SVGID_00000083767918411448180470000011276135083279700642_"  style="overflow:visible;"/>
	</clipPath>
	<g style="clip-path:url(#SVGID_00000155123205506701386820000008655948541021167527_);">
		<g>
			<defs>
				<circle id="SVGID_00000177477388514010823920000005335972997550163329_" cx="883.6" cy="59.4" r="5.9"/>
			</defs>
			<clipPath id="SVGID_00000007422339939070037810000003978916412340661672_">
				<use xlink:href="#SVGID_00000177477388514010823920000005335972997550163329_"  style="overflow:visible;"/>
			</clipPath>
			<g style="clip-path:url(#SVGID_00000007422339939070037810000003978916412340661672_);">
				<g transform="matrix(1, 0, 0, 1, 658, 346)">
					<g>
						<defs>
							<rect id="SVGID_00000169531517856538418060000002740398326828867998_" x="219.4" y="-293.2" width="13.3" height="13.3"/>
						</defs>
						<clipPath id="SVGID_00000047762550196676539470000009509091749005002416_">
							<use xlink:href="#SVGID_00000169531517856538418060000002740398326828867998_"  style="overflow:visible;"/>
						</clipPath>
						<g style="clip-path:url(#SVGID_00000047762550196676539470000009509091749005002416_);">
							<g>
								<defs>
									<rect id="SVGID_00000013193010305865850970000002095571840819532439_" x="219.7" y="-292.5" width="11.8" height="11.8"/>
								</defs>
								<clipPath id="SVGID_00000134209053194733389390000011421687283752440705_">
									<use xlink:href="#SVGID_00000013193010305865850970000002095571840819532439_"  style="overflow:visible;"/>
								</clipPath>
								<g style="clip-path:url(#SVGID_00000134209053194733389390000011421687283752440705_);">
									<g>
										<defs>
											<circle id="SVGID_00000044894267217737132900000002333025272470993078_" cx="225.6" cy="-286.6" r="5.9"/>
										</defs>
										<clipPath id="SVGID_00000066481215257782195610000015830027554672120713_">
											<use xlink:href="#SVGID_00000044894267217737132900000002333025272470993078_"  style="overflow:visible;"/>
										</clipPath>
										<g style="clip-path:url(#SVGID_00000066481215257782195610000015830027554672120713_);">
											<path class="st1" d="M219.7-292.5h11.8v11.8h-11.8V-292.5z"/>
										</g>
									</g>
								</g>
							</g>
						</g>
					</g>
				</g>
			</g>
		</g>
	</g>
</g>
<g>
	<defs>
		<rect id="SVGID_00000128452211448636587360000018348455953551762313_" x="1118.3" y="371.7" width="11.8" height="11.8"/>
	</defs>
	<clipPath id="SVGID_00000030477934458752051600000008528374646947451822_">
		<use xlink:href="#SVGID_00000128452211448636587360000018348455953551762313_"  style="overflow:visible;"/>
	</clipPath>
	<g style="clip-path:url(#SVGID_00000030477934458752051600000008528374646947451822_);">
		<g>
			<defs>
				<circle id="SVGID_00000027598401296310624040000013117135634197984646_" cx="1124.1" cy="377.5" r="5.9"/>
			</defs>
			<clipPath id="SVGID_00000014619469931730279880000007879832319668860556_">
				<use xlink:href="#SVGID_00000027598401296310624040000013117135634197984646_"  style="overflow:visible;"/>
			</clipPath>
			<g style="clip-path:url(#SVGID_00000014619469931730279880000007879832319668860556_);">
				<g transform="matrix(1, 0, 0, 1, 838, 585)">
					<g>
						<defs>
							<rect id="SVGID_00000134947996713618810400000006853301852498373776_" x="279.4" y="-213.5" width="13.3" height="12"/>
						</defs>
						<clipPath id="SVGID_00000031889036427023177410000016178727727094933432_">
							<use xlink:href="#SVGID_00000134947996713618810400000006853301852498373776_"  style="overflow:visible;"/>
						</clipPath>
						<g style="clip-path:url(#SVGID_00000031889036427023177410000016178727727094933432_);">
							<g>
								<defs>
									<rect id="SVGID_00000107557925254446841640000014657926516398685348_" x="280.3" y="-213.3" width="11.8" height="11.8"/>
								</defs>
								<clipPath id="SVGID_00000076584952514357382930000016971853161178941106_">
									<use xlink:href="#SVGID_00000107557925254446841640000014657926516398685348_"  style="overflow:visible;"/>
								</clipPath>
								<g style="clip-path:url(#SVGID_00000076584952514357382930000016971853161178941106_);">
									<g>
										<defs>
											<circle id="SVGID_00000173123085797567597220000003288788855151953322_" cx="286.1" cy="-207.5" r="5.9"/>
										</defs>
										<clipPath id="SVGID_00000028305321735743935720000013592668559990885249_">
											<use xlink:href="#SVGID_00000173123085797567597220000003288788855151953322_"  style="overflow:visible;"/>
										</clipPath>
										<g style="clip-path:url(#SVGID_00000028305321735743935720000013592668559990885249_);">
											<path class="st1" d="M280.3-213.3H292v11.8h-11.8V-213.3z"/>
										</g>
									</g>
								</g>
							</g>
						</g>
					</g>
				</g>
			</g>
		</g>
	</g>
</g>
<g>
	<defs>
		<rect id="SVGID_00000173847164693292512770000015815965519490653579_" x="1282.6" y="221.2" width="11.7" height="11.7"/>
	</defs>
	<clipPath id="SVGID_00000011732145213937573930000001882943086576201643_">
		<use xlink:href="#SVGID_00000173847164693292512770000015815965519490653579_"  style="overflow:visible;"/>
	</clipPath>
	<g style="clip-path:url(#SVGID_00000011732145213937573930000001882943086576201643_);">
		<g>
			<defs>
				<path id="SVGID_00000132055190335855195760000006623392055225294247_" d="M1288.5,221.2c-3.2,0-5.9,2.6-5.9,5.9
					c0,3.2,2.6,5.9,5.9,5.9c3.2,0,5.9-2.6,5.9-5.9C1294.4,223.9,1291.7,221.2,1288.5,221.2z"/>
			</defs>
			<clipPath id="SVGID_00000057847141371015022770000011564352092796003487_">
				<use xlink:href="#SVGID_00000132055190335855195760000006623392055225294247_"  style="overflow:visible;"/>
			</clipPath>
			<g style="clip-path:url(#SVGID_00000057847141371015022770000011564352092796003487_);">
				<g transform="matrix(1, 0, 0, 1, 961, 472)">
					<g>
						<defs>
							<rect id="SVGID_00000020394118741190255600000014838400779503470224_" x="320.4" y="-251.2" width="13.3" height="13.3"/>
						</defs>
						<clipPath id="SVGID_00000035522597862395948410000010186823894982375042_">
							<use xlink:href="#SVGID_00000020394118741190255600000014838400779503470224_"  style="overflow:visible;"/>
						</clipPath>
						<g style="clip-path:url(#SVGID_00000035522597862395948410000010186823894982375042_);">
							<g>
								<defs>
									<rect id="SVGID_00000075850775266097240800000006618566475721541028_" x="321.6" y="-250.8" width="11.7" height="11.7"/>
								</defs>
								<clipPath id="SVGID_00000062893210559408336630000014112310352554522787_">
									<use xlink:href="#SVGID_00000075850775266097240800000006618566475721541028_"  style="overflow:visible;"/>
								</clipPath>
								<g style="clip-path:url(#SVGID_00000062893210559408336630000014112310352554522787_);">
									<g>
										<defs>
											<path id="SVGID_00000169527014787769176850000005649394933914296203_" d="M327.5-250.8c-3.2,0-5.9,2.6-5.9,5.9
												s2.6,5.9,5.9,5.9c3.2,0,5.9-2.6,5.9-5.9S330.7-250.8,327.5-250.8z"/>
										</defs>
										<clipPath id="SVGID_00000041993887779149835250000012260880709077535374_">
											<use xlink:href="#SVGID_00000169527014787769176850000005649394933914296203_"  style="overflow:visible;"/>
										</clipPath>
										<g style="clip-path:url(#SVGID_00000041993887779149835250000012260880709077535374_);">
											<path class="st1" d="M321.6-250.8h11.7v11.7h-11.7V-250.8z"/>
										</g>
									</g>
								</g>
							</g>
						</g>
					</g>
				</g>
			</g>
		</g>
	</g>
</g>
<g>
	<defs>
		<rect id="SVGID_00000168821186175381884390000002692591166156702121_" x="1942.1" y="49.5" width="11.7" height="11.8"/>
	</defs>
	<clipPath id="SVGID_00000044867507687053837710000014355196528087552898_">
		<use xlink:href="#SVGID_00000168821186175381884390000002692591166156702121_"  style="overflow:visible;"/>
	</clipPath>
	<g style="clip-path:url(#SVGID_00000044867507687053837710000014355196528087552898_);">
		<g>
			<defs>
				<path id="SVGID_00000005266219530575624880000014833634928335234185_" d="M1947.9,49.5c-3.2,0-5.9,2.6-5.9,5.9s2.6,5.9,5.9,5.9
					c3.2,0,5.9-2.6,5.9-5.9S1951.2,49.5,1947.9,49.5z"/>
			</defs>
			<clipPath id="SVGID_00000127013069319375961570000007433228791379925654_">
				<use xlink:href="#SVGID_00000005266219530575624880000014833634928335234185_"  style="overflow:visible;"/>
			</clipPath>
			<g style="clip-path:url(#SVGID_00000127013069319375961570000007433228791379925654_);">
				<g transform="matrix(1, 0, 0, 1, 1456, 343)">
					<g>
						<defs>
							<rect id="SVGID_00000065054751371575692370000006673186560087101358_" x="485.4" y="-294.2" width="13.3" height="13.3"/>
						</defs>
						<clipPath id="SVGID_00000057859165625516028920000009113338118976873626_">
							<use xlink:href="#SVGID_00000065054751371575692370000006673186560087101358_"  style="overflow:visible;"/>
						</clipPath>
						<g style="clip-path:url(#SVGID_00000057859165625516028920000009113338118976873626_);">
							<g>
								<defs>
									<rect id="SVGID_00000176740083915423789520000012543101451616874425_" x="486.1" y="-293.5" width="11.7" height="11.8"/>
								</defs>
								<clipPath id="SVGID_00000074431989179502380570000002057648595778858637_">
									<use xlink:href="#SVGID_00000176740083915423789520000012543101451616874425_"  style="overflow:visible;"/>
								</clipPath>
								<g style="clip-path:url(#SVGID_00000074431989179502380570000002057648595778858637_);">
									<g>
										<defs>
											<path id="SVGID_00000053542083736194365990000014264924728642930311_" d="M491.9-293.5c-3.2,0-5.9,2.6-5.9,5.9
												c0,3.2,2.6,5.9,5.9,5.9c3.2,0,5.9-2.6,5.9-5.9C497.8-290.8,495.2-293.5,491.9-293.5z"/>
										</defs>
										<clipPath id="SVGID_00000171717206274978975590000016236303189251144616_">
											<use xlink:href="#SVGID_00000053542083736194365990000014264924728642930311_"  style="overflow:visible;"/>
										</clipPath>
										<g style="clip-path:url(#SVGID_00000171717206274978975590000016236303189251144616_);">
											<path class="st1" d="M486.1-293.5h11.7v11.8h-11.7V-293.5z"/>
										</g>
									</g>
								</g>
							</g>
						</g>
					</g>
				</g>
			</g>
		</g>
	</g>
</g>
<g>
	<defs>
		<rect id="SVGID_00000168823620627373779430000000978175920252068761_" x="1942.1" y="372.6" width="11.7" height="11.7"/>
	</defs>
	<clipPath id="SVGID_00000116923658504575444330000007668266994024274356_">
		<use xlink:href="#SVGID_00000168823620627373779430000000978175920252068761_"  style="overflow:visible;"/>
	</clipPath>
	<g style="clip-path:url(#SVGID_00000116923658504575444330000007668266994024274356_);">
		<g>
			<defs>
				<path id="SVGID_00000173848946029296984360000012215132694821022366_" d="M1947.9,372.6c-3.2,0-5.9,2.6-5.9,5.9
					c0,3.2,2.6,5.9,5.9,5.9c3.2,0,5.9-2.6,5.9-5.9C1953.8,375.2,1951.2,372.6,1947.9,372.6z"/>
			</defs>
			<clipPath id="SVGID_00000147917209868879365390000015472361977570403211_">
				<use xlink:href="#SVGID_00000173848946029296984360000012215132694821022366_"  style="overflow:visible;"/>
			</clipPath>
			<g style="clip-path:url(#SVGID_00000147917209868879365390000015472361977570403211_);">
				<g transform="matrix(1, 0, 0, 1, 1456, 585)">
					<g>
						<defs>
							<rect id="SVGID_00000044876855534201140930000003242993329875037116_" x="485.4" y="-213.5" width="13.3" height="13.3"/>
						</defs>
						<clipPath id="SVGID_00000012468072930015206690000013673803692473006230_">
							<use xlink:href="#SVGID_00000044876855534201140930000003242993329875037116_"  style="overflow:visible;"/>
						</clipPath>
						<g style="clip-path:url(#SVGID_00000012468072930015206690000013673803692473006230_);">
							<g>
								<defs>
									<rect id="SVGID_00000139279042938295186430000004343119322813318839_" x="486.1" y="-212.4" width="11.7" height="11.7"/>
								</defs>
								<clipPath id="SVGID_00000063600935662868653130000007776060516219223971_">
									<use xlink:href="#SVGID_00000139279042938295186430000004343119322813318839_"  style="overflow:visible;"/>
								</clipPath>
								<g style="clip-path:url(#SVGID_00000063600935662868653130000007776060516219223971_);">
									<g>
										<defs>
											<path id="SVGID_00000074444228036254076920000014866461600057192885_" d="M491.9-212.4c-3.2,0-5.9,2.6-5.9,5.9
												c0,3.2,2.6,5.9,5.9,5.9c3.2,0,5.9-2.6,5.9-5.9C497.8-209.8,495.2-212.4,491.9-212.4z"/>
										</defs>
										<clipPath id="SVGID_00000151501136869073774060000014962390370311586186_">
											<use xlink:href="#SVGID_00000074444228036254076920000014866461600057192885_"  style="overflow:visible;"/>
										</clipPath>
										<g style="clip-path:url(#SVGID_00000151501136869073774060000014962390370311586186_);">
											<path class="st1" d="M486.1-212.4h11.7v11.7h-11.7V-212.4z"/>
										</g>
									</g>
								</g>
							</g>
						</g>
					</g>
				</g>
			</g>
		</g>
	</g>
</g>
<g>
	<defs>
		<rect id="SVGID_00000023266157872213622540000002333958665385733788_" x="2412.8" y="367.7" width="11.8" height="11.7"/>
	</defs>
	<clipPath id="SVGID_00000142858617234597738710000003499845725597198741_">
		<use xlink:href="#SVGID_00000023266157872213622540000002333958665385733788_"  style="overflow:visible;"/>
	</clipPath>
	<g style="clip-path:url(#SVGID_00000142858617234597738710000003499845725597198741_);">
		<g>
			<defs>
				<path id="SVGID_00000094604382881591250110000007990880280856712322_" d="M2418.7,367.7c-3.2,0-5.9,2.6-5.9,5.9
					c0,3.2,2.6,5.9,5.9,5.9c3.2,0,5.9-2.6,5.9-5.9C2424.5,370.3,2421.9,367.7,2418.7,367.7z"/>
			</defs>
			<clipPath id="SVGID_00000025422942305388751230000000441271068800907922_">
				<use xlink:href="#SVGID_00000094604382881591250110000007990880280856712322_"  style="overflow:visible;"/>
			</clipPath>
			<g style="clip-path:url(#SVGID_00000025422942305388751230000000441271068800907922_);">
				<g transform="matrix(1, 0, 0, 1, 1809, 582)">
					<g>
						<defs>
							<rect id="SVGID_00000147200093250632824360000008533939045419207553_" x="603.1" y="-214.5" width="13.3" height="12"/>
						</defs>
						<clipPath id="SVGID_00000060733957131552677390000007895835265435294612_">
							<use xlink:href="#SVGID_00000147200093250632824360000008533939045419207553_"  style="overflow:visible;"/>
						</clipPath>
						<g style="clip-path:url(#SVGID_00000060733957131552677390000007895835265435294612_);">
							<g>
								<defs>
									<rect id="SVGID_00000150808838924604374820000002771099428551045815_" x="603.8" y="-214.3" width="11.8" height="11.7"/>
								</defs>
								<clipPath id="SVGID_00000080194545547129737980000002004324176744940716_">
									<use xlink:href="#SVGID_00000150808838924604374820000002771099428551045815_"  style="overflow:visible;"/>
								</clipPath>
								<g style="clip-path:url(#SVGID_00000080194545547129737980000002004324176744940716_);">
									<g>
										<defs>
											<path id="SVGID_00000016074998376404971140000006028951419124756915_" d="M609.7-214.3c-3.2,0-5.9,2.6-5.9,5.9
												c0,3.2,2.6,5.9,5.9,5.9c3.2,0,5.9-2.6,5.9-5.9C615.5-211.7,612.9-214.3,609.7-214.3z"/>
										</defs>
										<clipPath id="SVGID_00000065778863496535213810000010506079479303259799_">
											<use xlink:href="#SVGID_00000016074998376404971140000006028951419124756915_"  style="overflow:visible;"/>
										</clipPath>
										<g style="clip-path:url(#SVGID_00000065778863496535213810000010506079479303259799_);">
											<path class="st1" d="M603.8-214.3h11.8v11.7h-11.8V-214.3z"/>
										</g>
									</g>
								</g>
							</g>
						</g>
					</g>
				</g>
			</g>
		</g>
	</g>
</g>
<g>
	<defs>
		<rect id="SVGID_00000039108474936586289860000001644862526719690647_" x="2412.8" y="49.5" width="11.8" height="11.8"/>
	</defs>
	<clipPath id="SVGID_00000003806454952757524990000013596868459990040737_">
		<use xlink:href="#SVGID_00000039108474936586289860000001644862526719690647_"  style="overflow:visible;"/>
	</clipPath>
	<g style="clip-path:url(#SVGID_00000003806454952757524990000013596868459990040737_);">
		<g>
			<defs>
				<circle id="SVGID_00000036229981670733868240000011543713127582860677_" cx="2418.7" cy="55.4" r="5.9"/>
			</defs>
			<clipPath id="SVGID_00000152984797908699908800000010285982288174843555_">
				<use xlink:href="#SVGID_00000036229981670733868240000011543713127582860677_"  style="overflow:visible;"/>
			</clipPath>
			<g style="clip-path:url(#SVGID_00000152984797908699908800000010285982288174843555_);">
				<g transform="matrix(1, 0, 0, 1, 1809, 343)">
					<g>
						<defs>
							<rect id="SVGID_00000081646631244106344600000007252427350539340698_" x="603.1" y="-294.2" width="13.3" height="13.3"/>
						</defs>
						<clipPath id="SVGID_00000150095643063833724410000017491921486944117176_">
							<use xlink:href="#SVGID_00000081646631244106344600000007252427350539340698_"  style="overflow:visible;"/>
						</clipPath>
						<g style="clip-path:url(#SVGID_00000150095643063833724410000017491921486944117176_);">
							<g>
								<defs>
									<rect id="SVGID_00000031185229375492331650000008680893695910340278_" x="603.8" y="-293.5" width="11.8" height="11.8"/>
								</defs>
								<clipPath id="SVGID_00000026876778022171618960000004888621107419544249_">
									<use xlink:href="#SVGID_00000031185229375492331650000008680893695910340278_"  style="overflow:visible;"/>
								</clipPath>
								<g style="clip-path:url(#SVGID_00000026876778022171618960000004888621107419544249_);">
									<g>
										<defs>
											<circle id="SVGID_00000098913781215916182560000011038477125877909151_" cx="609.7" cy="-287.6" r="5.9"/>
										</defs>
										<clipPath id="SVGID_00000116952063071994795570000008798491248941109173_">
											<use xlink:href="#SVGID_00000098913781215916182560000011038477125877909151_"  style="overflow:visible;"/>
										</clipPath>
										<g style="clip-path:url(#SVGID_00000116952063071994795570000008798491248941109173_);">
											<path class="st1" d="M603.8-293.5h11.8v11.8h-11.8V-293.5z"/>
										</g>
									</g>
								</g>
							</g>
						</g>
					</g>
				</g>
			</g>
		</g>
	</g>
</g>
<g>
	<defs>
		<rect id="SVGID_00000119831679672076878790000004028055745681058961_" x="2311.7" y="207" width="11.7" height="11.8"/>
	</defs>
	<clipPath id="SVGID_00000008128846874189637270000010627793565803442103_">
		<use xlink:href="#SVGID_00000119831679672076878790000004028055745681058961_"  style="overflow:visible;"/>
	</clipPath>
	<g style="clip-path:url(#SVGID_00000008128846874189637270000010627793565803442103_);">
		<g>
			<defs>
				<path id="SVGID_00000121251204195139737330000002248537225019171975_" d="M2317.5,207c-3.2,0-5.9,2.6-5.9,5.9
					c0,3.2,2.6,5.9,5.9,5.9c3.2,0,5.9-2.6,5.9-5.9C2323.4,209.7,2320.8,207,2317.5,207z"/>
			</defs>
			<clipPath id="SVGID_00000036215445429802735500000004864302487790576025_">
				<use xlink:href="#SVGID_00000121251204195139737330000002248537225019171975_"  style="overflow:visible;"/>
			</clipPath>
			<g style="clip-path:url(#SVGID_00000036215445429802735500000004864302487790576025_);">
				<g transform="matrix(1, 0, 0, 1, 1733, 461)">
					<g>
						<defs>
							<rect id="SVGID_00000016038054943399508090000011982249087251197342_" x="577.7" y="-254.9" width="13.3" height="13.3"/>
						</defs>
						<clipPath id="SVGID_00000143596441746306630290000018116408287800081078_">
							<use xlink:href="#SVGID_00000016038054943399508090000011982249087251197342_"  style="overflow:visible;"/>
						</clipPath>
						<g style="clip-path:url(#SVGID_00000143596441746306630290000018116408287800081078_);">
							<g>
								<defs>
									<rect id="SVGID_00000052106590897374956130000004406102239506312873_" x="578.7" y="-254" width="11.7" height="11.8"/>
								</defs>
								<clipPath id="SVGID_00000057867596774279295080000017120991563670582913_">
									<use xlink:href="#SVGID_00000052106590897374956130000004406102239506312873_"  style="overflow:visible;"/>
								</clipPath>
								<g style="clip-path:url(#SVGID_00000057867596774279295080000017120991563670582913_);">
									<g>
										<defs>
											<path id="SVGID_00000125596140397047779050000012786987036233452195_" d="M584.5-254c-3.2,0-5.9,2.6-5.9,5.9
												s2.6,5.9,5.9,5.9c3.2,0,5.9-2.6,5.9-5.9S587.8-254,584.5-254z"/>
										</defs>
										<clipPath id="SVGID_00000091709825737741581770000004047986302541538710_">
											<use xlink:href="#SVGID_00000125596140397047779050000012786987036233452195_"  style="overflow:visible;"/>
										</clipPath>
										<g style="clip-path:url(#SVGID_00000091709825737741581770000004047986302541538710_);">
											<path class="st1" d="M578.7-254h11.7v11.8h-11.7V-254z"/>
										</g>
									</g>
								</g>
							</g>
						</g>
					</g>
				</g>
			</g>
		</g>
	</g>
</g>
</svg>
