<?xml version="1.0" encoding="utf-8"?>
<!-- Generator: Adobe Illustrator 30.0.0, SVG Export Plug-In . SVG Version: 9.03 Build 0)  -->
<svg version="1.0" id="Layer_1" xmlns="http://www.w3.org/2000/svg" xmlns:xlink="http://www.w3.org/1999/xlink" x="0px" y="0px"
	 viewBox="0 0 2500 698.5" style="enable-background:new 0 0 2500 698.5;" xml:space="preserve">
<style type="text/css">
	.st0{fill:#FFFDF5;}
	.st1{fill:#E45258;}
	.st2{fill:none;stroke:#E45258;stroke-width:5.9996;stroke-linecap:round;stroke-miterlimit:3.9997;}
	.st3{clip-path:url(#SVGID_00000042701427093509628660000013854254797011985826_);}
	.st4{clip-path:url(#SVGID_00000154386953823496665360000017570017315635691964_);}
	.st5{clip-path:url(#SVGID_00000010270456583466599470000015091284089219877819_);}
	.st6{clip-path:url(#SVGID_00000067205411935690589750000010981147134277931408_);}
	.st7{clip-path:url(#SVGID_00000131330092843442296100000013654791332970747833_);}
	.st8{clip-path:url(#SVGID_00000121989611466258738290000013514169382372424862_);}
	.st9{clip-path:url(#SVGID_00000027601582868124497400000000899937574470438323_);}
	.st10{clip-path:url(#SVGID_00000026883145685434095130000016085992303336364423_);}
	.st11{clip-path:url(#SVGID_00000170961853348344386280000009091907551806534574_);}
	.st12{clip-path:url(#SVGID_00000073692182831520346500000010249170304108546713_);}
	.st13{clip-path:url(#SVGID_00000041261000792524628330000001847734995606579867_);}
	.st14{clip-path:url(#SVGID_00000055695536942496020380000014427411096702153097_);}
	.st15{clip-path:url(#SVGID_00000054987436618364290510000000437768335107772078_);}
	.st16{clip-path:url(#SVGID_00000165916645731558999220000009774849002378223026_);}
	.st17{clip-path:url(#SVGID_00000109716541988524356500000007714766117739341447_);}
	.st18{clip-path:url(#SVGID_00000080895013555951697570000002060977162310613921_);}
	.st19{clip-path:url(#SVGID_00000095306632922797045980000006293379824683661216_);}
	.st20{clip-path:url(#SVGID_00000011711238225509772340000005702726138921907339_);}
	.st21{clip-path:url(#SVGID_00000180355131865149065530000017885418589836866234_);}
	.st22{clip-path:url(#SVGID_00000014625486109229194450000005377119470741427090_);}
	.st23{clip-path:url(#SVGID_00000179633172688914270510000001411704698123096456_);}
	.st24{clip-path:url(#SVGID_00000134226735084314354890000007856981251598357434_);}
	.st25{clip-path:url(#SVGID_00000114074839682635787710000018136904562919176846_);}
	.st26{clip-path:url(#SVGID_00000178180294234160331530000001622213509228656514_);}
	.st27{clip-path:url(#SVGID_00000109747008392206611690000000019031459269486742_);}
	.st28{clip-path:url(#SVGID_00000152241475060240832160000013698191675790701450_);}
	.st29{clip-path:url(#SVGID_00000134239094102401050240000002204268590188986537_);}
	.st30{clip-path:url(#SVGID_00000078729174349424691440000003654250243655149193_);}
	.st31{clip-path:url(#SVGID_00000014599875101075413710000017633807872421910165_);}
	.st32{clip-path:url(#SVGID_00000008117681116725008150000000394817383852742054_);}
	.st33{clip-path:url(#SVGID_00000084516372066946574240000010310470795363158152_);}
	.st34{clip-path:url(#SVGID_00000013908476155666281450000001457772047541146528_);}
	.st35{clip-path:url(#SVGID_00000110445365311655405350000005683073829056514998_);}
	.st36{clip-path:url(#SVGID_00000049184141216423177220000006060307653496496541_);}
	.st37{clip-path:url(#SVGID_00000111885469538004645800000011430166482131463297_);}
	.st38{clip-path:url(#SVGID_00000056428667496979629480000001725253768399004037_);}
	.st39{clip-path:url(#SVGID_00000182508298589158323300000007926047245684849594_);}
	.st40{clip-path:url(#SVGID_00000021807737958020087000000003418506228403260812_);}
	.st41{clip-path:url(#SVGID_00000029731466388106164180000005689347022388380093_);}
	.st42{clip-path:url(#SVGID_00000158730710002657009100000006911434608181923224_);}
	.st43{clip-path:url(#SVGID_00000161628303755768301560000005971775847002004619_);}
	.st44{clip-path:url(#SVGID_00000013153663846614597320000007523490526598877072_);}
	.st45{clip-path:url(#SVGID_00000080892087200091831480000009059789070180043151_);}
	.st46{clip-path:url(#SVGID_00000107572750739036087480000008885002432761732273_);}
	.st47{clip-path:url(#SVGID_00000019643755887011227430000015134389322345235604_);}
	.st48{clip-path:url(#SVGID_00000105429006852736458550000002217643597741059498_);}
	.st49{clip-path:url(#SVGID_00000059299566664757630540000014653527517467060141_);}
	.st50{clip-path:url(#SVGID_00000070841109562827401260000013339793369061530513_);}
	.st51{clip-path:url(#SVGID_00000072992978602005271180000000435669387977631647_);}
	.st52{clip-path:url(#SVGID_00000106841025857741362990000009986271013898524083_);}
	.st53{clip-path:url(#SVGID_00000003075417307852077180000005394729415887695233_);}
	.st54{clip-path:url(#SVGID_00000084488723879920939630000011179827754467856002_);}
	.st55{clip-path:url(#SVGID_00000093863929716974798290000012194753093955790238_);}
	.st56{clip-path:url(#SVGID_00000105400406874428367360000011205592553194957957_);}
	.st57{clip-path:url(#SVGID_00000018923659830462503040000007523262871155791014_);}
	.st58{clip-path:url(#SVGID_00000062874598904513190460000012292377227920276096_);}
	.st59{clip-path:url(#SVGID_00000069383774672512986660000015675705358953252741_);}
	.st60{clip-path:url(#SVGID_00000119813005738756911960000011028826857469396108_);}
	.st61{clip-path:url(#SVGID_00000166655319748952578110000008554394912559227838_);}
	.st62{clip-path:url(#SVGID_00000127041312524104233130000003751114085916561847_);}
	.st63{clip-path:url(#SVGID_00000098215680651310601110000013002040660555471272_);}
	.st64{clip-path:url(#SVGID_00000044861216677907384300000001389196559131783598_);}
	.st65{clip-path:url(#SVGID_00000168101443074797864030000008447941923683705521_);}
	.st66{clip-path:url(#SVGID_00000089555854217986220720000006482623188970435993_);}
	.st67{clip-path:url(#SVGID_00000109714287464029533550000017684026356968912803_);}
</style>
<path class="st0" d="M76.8,334.5l241.5,0.2c1.3,0,2.7,0.1,4,0.2c1.3,0.1,2.6,0.3,3.9,0.6c1.3,0.3,2.6,0.6,3.9,1
	c1.3,0.4,2.5,0.8,3.7,1.3c1.2,0.5,2.4,1.1,3.6,1.7c1.2,0.6,2.3,1.3,3.4,2c1.1,0.7,2.2,1.5,3.2,2.4c1,0.8,2,1.7,2.9,2.7
	c0.9,0.9,1.8,1.9,2.7,2.9c0.8,1,1.6,2.1,2.4,3.2c0.7,1.1,1.4,2.2,2,3.4c0.6,1.2,1.2,2.4,1.7,3.6c0.5,1.2,1,2.5,1.3,3.7
	c0.4,1.3,0.7,2.6,1,3.9c0.3,1.3,0.4,2.6,0.6,3.9c0.1,1.3,0.2,2.6,0.2,4c0,1.3-0.1,2.6-0.2,4c-0.1,1.3-0.3,2.6-0.6,3.9
	c-0.3,1.3-0.6,2.6-1,3.9c-0.4,1.3-0.8,2.5-1.3,3.7c-0.5,1.2-1.1,2.4-1.7,3.6c-0.6,1.2-1.3,2.3-2,3.4c-0.7,1.1-1.5,2.2-2.4,3.2
	c-0.8,1-1.7,2-2.7,2.9c-0.9,0.9-1.9,1.8-2.9,2.7c-1,0.8-2.1,1.6-3.2,2.4c-1.1,0.7-2.2,1.4-3.4,2c-1.2,0.6-2.4,1.2-3.6,1.7
	c-1.2,0.5-2.5,1-3.7,1.3c-1.3,0.4-2.6,0.7-3.9,1c-1.3,0.3-2.6,0.5-3.9,0.6c-1.3,0.1-2.6,0.2-4,0.2l-241.5-0.2c-1.3,0-2.7-0.1-4-0.2
	c-1.3-0.1-2.6-0.3-3.9-0.6c-1.3-0.3-2.6-0.6-3.9-1c-1.3-0.4-2.5-0.8-3.7-1.3c-1.2-0.5-2.4-1.1-3.6-1.7c-1.2-0.6-2.3-1.3-3.4-2
	c-1.1-0.7-2.2-1.5-3.2-2.4c-1-0.8-2-1.7-2.9-2.7s-1.8-1.9-2.7-2.9c-0.8-1-1.6-2.1-2.4-3.2c-0.7-1.1-1.4-2.2-2-3.4s-1.2-2.4-1.7-3.6
	c-0.5-1.2-0.9-2.5-1.3-3.7c-0.4-1.3-0.7-2.6-1-3.9c-0.3-1.3-0.4-2.6-0.6-3.9c-0.1-1.3-0.2-2.6-0.2-4s0.1-2.7,0.2-4
	c0.1-1.3,0.3-2.6,0.6-3.9c0.3-1.3,0.6-2.6,1-3.9s0.8-2.5,1.3-3.7c0.5-1.2,1.1-2.4,1.7-3.6c0.6-1.2,1.3-2.3,2-3.4
	c0.7-1.1,1.5-2.2,2.4-3.2c0.8-1,1.7-2,2.7-2.9c0.9-0.9,1.9-1.8,2.9-2.7c1-0.8,2.1-1.6,3.2-2.4c1.1-0.7,2.2-1.4,3.4-2
	c1.2-0.6,2.4-1.2,3.6-1.7c1.2-0.5,2.5-1,3.7-1.3c1.3-0.4,2.6-0.7,3.9-1c1.3-0.3,2.6-0.4,3.9-0.6C74.1,334.6,75.5,334.5,76.8,334.5z"
	/>
<path class="st0" d="M76.8,12h241.5c1.3,0,2.7,0.1,4,0.2c1.3,0.1,2.6,0.3,3.9,0.6c1.3,0.3,2.6,0.6,3.9,1c1.3,0.4,2.5,0.8,3.7,1.3
	c1.2,0.5,2.4,1.1,3.6,1.7c1.2,0.6,2.3,1.3,3.4,2c1.1,0.7,2.2,1.5,3.2,2.4c1,0.8,2,1.7,2.9,2.7s1.8,1.9,2.7,2.9
	c0.8,1,1.6,2.1,2.4,3.2c0.7,1.1,1.4,2.2,2,3.4s1.2,2.4,1.7,3.6c0.5,1.2,1,2.5,1.3,3.7c0.4,1.3,0.7,2.6,1,3.9
	c0.3,1.3,0.5,2.6,0.6,3.9c0.1,1.3,0.2,2.6,0.2,4c0,1.3-0.1,2.7-0.2,4c-0.1,1.3-0.3,2.6-0.6,3.9c-0.3,1.3-0.6,2.6-1,3.9
	c-0.4,1.3-0.8,2.5-1.3,3.7c-0.5,1.2-1.1,2.4-1.7,3.6c-0.6,1.2-1.3,2.3-2,3.4c-0.7,1.1-1.5,2.2-2.4,3.2c-0.8,1-1.7,2-2.7,2.9
	c-0.9,0.9-1.9,1.8-2.9,2.7c-1,0.8-2.1,1.6-3.2,2.4c-1.1,0.7-2.2,1.4-3.4,2c-1.2,0.6-2.4,1.2-3.6,1.7c-1.2,0.5-2.5,1-3.7,1.3
	c-1.3,0.4-2.6,0.7-3.9,1c-1.3,0.3-2.6,0.5-3.9,0.6c-1.3,0.1-2.6,0.2-4,0.2H76.8c-1.3,0-2.7-0.1-4-0.2c-1.3-0.1-2.6-0.3-3.9-0.6
	c-1.3-0.3-2.6-0.6-3.9-1c-1.3-0.4-2.5-0.8-3.7-1.3c-1.2-0.5-2.4-1.1-3.6-1.7c-1.2-0.6-2.3-1.3-3.4-2c-1.1-0.7-2.2-1.5-3.2-2.4
	c-1-0.8-2-1.7-2.9-2.7c-0.9-0.9-1.8-1.9-2.7-2.9c-0.8-1-1.6-2.1-2.4-3.2c-0.7-1.1-1.4-2.2-2-3.4c-0.6-1.2-1.2-2.4-1.7-3.6
	c-0.5-1.2-1-2.5-1.3-3.7c-0.4-1.3-0.7-2.6-1-3.9c-0.3-1.3-0.5-2.6-0.6-3.9c-0.1-1.3-0.2-2.6-0.2-4c0-1.3,0.1-2.6,0.2-4
	c0.1-1.3,0.3-2.6,0.6-3.9c0.3-1.3,0.6-2.6,1-3.9c0.4-1.3,0.8-2.5,1.3-3.7c0.5-1.2,1.1-2.4,1.7-3.6s1.3-2.3,2-3.4
	c0.7-1.1,1.5-2.2,2.4-3.2c0.8-1,1.7-2,2.7-2.9s1.9-1.8,2.9-2.7c1-0.8,2.1-1.6,3.2-2.4c1.1-0.7,2.2-1.4,3.4-2
	c1.2-0.6,2.4-1.2,3.6-1.7c1.2-0.5,2.5-1,3.7-1.3c1.3-0.4,2.6-0.7,3.9-1c1.3-0.3,2.6-0.5,3.9-0.6C74.1,12.1,75.4,12,76.8,12z"/>
<path class="st0" d="M358.9,53V133c0,1.3-0.1,2.7-0.2,4c-0.1,1.3-0.3,2.6-0.6,3.9c-0.3,1.3-0.6,2.6-1,3.9c-0.4,1.3-0.8,2.5-1.3,3.7
	c-0.5,1.2-1.1,2.4-1.7,3.6c-0.6,1.2-1.3,2.3-2,3.4c-0.7,1.1-1.5,2.2-2.4,3.2c-0.8,1-1.7,2-2.7,2.9s-1.9,1.8-2.9,2.7
	c-1,0.8-2.1,1.6-3.2,2.4c-1.1,0.7-2.2,1.4-3.4,2c-1.2,0.6-2.4,1.2-3.6,1.7c-1.2,0.5-2.5,1-3.7,1.3c-1.3,0.4-2.6,0.7-3.9,1
	c-1.3,0.3-2.6,0.5-3.9,0.6c-1.3,0.1-2.6,0.2-4,0.2c-1.3,0-2.6-0.1-4-0.2c-1.3-0.1-2.6-0.3-3.9-0.6c-1.3-0.3-2.6-0.6-3.9-1
	c-1.3-0.4-2.5-0.8-3.7-1.3c-1.2-0.5-2.4-1.1-3.6-1.7c-1.2-0.6-2.3-1.3-3.4-2c-1.1-0.7-2.2-1.5-3.2-2.4c-1-0.8-2-1.7-2.9-2.7
	s-1.8-1.9-2.7-2.9c-0.8-1-1.6-2.1-2.4-3.2c-0.7-1.1-1.4-2.2-2-3.4c-0.6-1.2-1.2-2.4-1.7-3.6c-0.5-1.2-1-2.5-1.3-3.7
	c-0.4-1.3-0.7-2.6-1-3.9c-0.3-1.3-0.5-2.6-0.6-3.9c-0.1-1.3-0.2-2.6-0.2-4V53c0-1.3,0.1-2.7,0.2-4c0.1-1.3,0.3-2.6,0.6-3.9
	c0.3-1.3,0.6-2.6,1-3.9c0.4-1.3,0.8-2.5,1.3-3.7c0.5-1.2,1.1-2.4,1.7-3.6c0.6-1.2,1.3-2.3,2-3.4c0.7-1.1,1.5-2.2,2.4-3.2
	c0.8-1,1.7-2,2.7-2.9s1.9-1.8,2.9-2.7c1-0.8,2.1-1.6,3.2-2.4c1.1-0.7,2.2-1.4,3.4-2c1.2-0.6,2.4-1.2,3.6-1.7c1.2-0.5,2.5-1,3.7-1.3
	c1.3-0.4,2.6-0.7,3.9-1c1.3-0.3,2.6-0.5,3.9-0.6c1.3-0.1,2.6-0.2,4-0.2c1.3,0,2.7,0.1,4,0.2c1.3,0.1,2.6,0.3,3.9,0.6
	c1.3,0.3,2.6,0.6,3.9,1c1.3,0.4,2.5,0.8,3.7,1.3c1.2,0.5,2.4,1.1,3.6,1.7c1.2,0.6,2.3,1.3,3.4,2c1.1,0.7,2.2,1.5,3.2,2.4
	c1,0.8,2,1.7,2.9,2.7s1.8,1.9,2.7,2.9c0.8,1,1.6,2.1,2.4,3.2c0.7,1.1,1.4,2.2,2,3.4c0.6,1.2,1.2,2.4,1.7,3.6c0.5,1.2,1,2.5,1.3,3.7
	c0.4,1.3,0.7,2.6,1,3.9c0.3,1.3,0.5,2.6,0.6,3.9C358.8,50.4,358.9,51.7,358.9,53z"/>
<path class="st0" d="M117,294.7v79.9c0,1.3-0.1,2.7-0.2,4c-0.1,1.3-0.3,2.6-0.6,3.9c-0.3,1.3-0.6,2.6-1,3.9
	c-0.4,1.3-0.8,2.5-1.3,3.7c-0.5,1.2-1.1,2.4-1.7,3.6c-0.6,1.2-1.3,2.3-2,3.4c-0.7,1.1-1.5,2.2-2.4,3.2c-0.8,1-1.7,2-2.7,2.9
	s-1.9,1.8-2.9,2.7c-1,0.8-2.1,1.6-3.2,2.4c-1.1,0.7-2.2,1.4-3.4,2c-1.2,0.6-2.4,1.2-3.6,1.7c-1.2,0.5-2.5,1-3.7,1.3
	c-1.3,0.4-2.6,0.7-3.9,1c-1.3,0.3-2.6,0.5-3.9,0.6c-1.3,0.1-2.6,0.2-4,0.2c-1.3,0-2.6-0.1-4-0.2c-1.3-0.1-2.6-0.3-3.9-0.6
	c-1.3-0.3-2.6-0.6-3.9-1s-2.5-0.8-3.7-1.3c-1.2-0.5-2.4-1.1-3.6-1.7c-1.2-0.6-2.3-1.3-3.4-2c-1.1-0.7-2.2-1.5-3.2-2.4
	c-1-0.8-2-1.7-2.9-2.7s-1.8-1.9-2.7-2.9c-0.8-1-1.6-2.1-2.4-3.2c-0.7-1.1-1.4-2.2-2-3.4c-0.6-1.2-1.2-2.4-1.7-3.6
	c-0.5-1.2-1-2.5-1.3-3.7c-0.4-1.3-0.7-2.6-1-3.9c-0.3-1.3-0.5-2.6-0.6-3.9c-0.1-1.3-0.2-2.6-0.2-4v-79.9c0-1.3,0.1-2.7,0.2-4
	c0.1-1.3,0.3-2.6,0.6-3.9c0.3-1.3,0.6-2.6,1-3.9c0.4-1.3,0.8-2.5,1.3-3.7c0.5-1.2,1.1-2.4,1.7-3.6c0.6-1.2,1.3-2.3,2-3.4
	c0.7-1.1,1.5-2.2,2.4-3.2c0.8-1,1.7-2,2.7-2.9s1.9-1.8,2.9-2.7c1-0.8,2.1-1.6,3.2-2.4c1.1-0.7,2.2-1.4,3.4-2
	c1.2-0.6,2.4-1.2,3.6-1.7c1.2-0.5,2.5-1,3.7-1.3c1.3-0.4,2.6-0.7,3.9-1c1.3-0.3,2.6-0.5,3.9-0.6c1.3-0.1,2.6-0.2,4-0.2
	c1.3,0,2.7,0.1,4,0.2c1.3,0.1,2.6,0.3,3.9,0.6c1.3,0.3,2.6,0.6,3.9,1c1.3,0.4,2.5,0.8,3.7,1.3c1.2,0.5,2.4,1.1,3.6,1.7
	c1.2,0.6,2.3,1.3,3.4,2c1.1,0.7,2.2,1.5,3.2,2.4c1,0.8,2,1.7,2.9,2.7s1.8,1.9,2.7,2.9c0.8,1,1.6,2.1,2.4,3.2c0.7,1.1,1.4,2.2,2,3.4
	c0.6,1.2,1.2,2.4,1.7,3.6c0.5,1.2,1,2.5,1.3,3.7c0.4,1.3,0.7,2.6,1,3.9c0.3,1.3,0.5,2.6,0.6,3.9C117,292.1,117,293.4,117,294.7z"/>
<path class="st0" d="M923.2,52.7v322.1c0,1.3-0.1,2.7-0.2,4c-0.1,1.3-0.3,2.6-0.6,3.9s-0.6,2.6-1,3.9c-0.4,1.3-0.8,2.5-1.3,3.7
	c-0.5,1.2-1.1,2.4-1.7,3.6c-0.6,1.2-1.3,2.3-2,3.4c-0.7,1.1-1.5,2.2-2.4,3.2c-0.8,1-1.7,2-2.7,2.9s-1.9,1.8-2.9,2.7
	c-1,0.8-2.1,1.6-3.2,2.4c-1.1,0.7-2.2,1.4-3.4,2c-1.2,0.6-2.4,1.2-3.6,1.7c-1.2,0.5-2.5,1-3.7,1.3c-1.3,0.4-2.6,0.7-3.9,1
	c-1.3,0.3-2.6,0.5-3.9,0.6c-1.3,0.1-2.6,0.2-4,0.2c-1.3,0-2.7-0.1-4-0.2c-1.3-0.1-2.6-0.3-3.9-0.6c-1.3-0.3-2.6-0.6-3.9-1
	c-1.3-0.4-2.5-0.8-3.7-1.3c-1.2-0.5-2.4-1.1-3.6-1.7c-1.2-0.6-2.3-1.3-3.4-2c-1.1-0.7-2.2-1.5-3.2-2.4c-1-0.8-2-1.7-2.9-2.7
	s-1.8-1.9-2.7-2.9c-0.8-1-1.6-2.1-2.4-3.2c-0.7-1.1-1.4-2.2-2-3.4c-0.6-1.2-1.2-2.4-1.7-3.6c-0.5-1.2-1-2.5-1.3-3.7
	c-0.4-1.3-0.7-2.6-1-3.9c-0.3-1.3-0.5-2.6-0.6-3.9c-0.1-1.3-0.2-2.6-0.2-4V52.7c0-1.3,0.1-2.7,0.2-4c0.1-1.3,0.3-2.6,0.6-3.9
	c0.3-1.3,0.6-2.6,1-3.9c0.4-1.3,0.8-2.5,1.3-3.7c0.5-1.2,1.1-2.4,1.7-3.6c0.6-1.2,1.3-2.3,2-3.4c0.7-1.1,1.5-2.2,2.4-3.2
	c0.8-1,1.7-2,2.7-2.9c0.9-0.9,1.9-1.8,2.9-2.7c1-0.8,2.1-1.6,3.2-2.4c1.1-0.7,2.2-1.4,3.4-2c1.2-0.6,2.4-1.2,3.6-1.7s2.5-1,3.7-1.3
	c1.3-0.4,2.6-0.7,3.9-1c1.3-0.3,2.6-0.5,3.9-0.6c1.3-0.1,2.6-0.2,4-0.2c1.3,0,2.6,0.1,4,0.2c1.3,0.1,2.6,0.3,3.9,0.6
	c1.3,0.3,2.6,0.6,3.9,1c1.3,0.4,2.5,0.8,3.7,1.3c1.2,0.5,2.4,1.1,3.6,1.7c1.2,0.6,2.3,1.3,3.4,2c1.1,0.7,2.2,1.5,3.2,2.4
	c1,0.8,2,1.7,2.9,2.7c0.9,0.9,1.8,1.9,2.7,2.9c0.8,1,1.6,2.1,2.4,3.2c0.7,1.1,1.4,2.2,2,3.4c0.6,1.2,1.2,2.4,1.7,3.6
	c0.5,1.2,1,2.5,1.3,3.7c0.4,1.3,0.7,2.6,1,3.9c0.3,1.3,0.5,2.6,0.6,3.9C923.1,50.1,923.2,51.4,923.2,52.7z"/>
<path class="st0" d="M1165.1,52.7v322.1c0,1.3-0.1,2.7-0.2,4c-0.1,1.3-0.3,2.6-0.6,3.9c-0.3,1.3-0.6,2.6-1,3.9
	c-0.4,1.3-0.8,2.5-1.3,3.7c-0.5,1.2-1.1,2.4-1.7,3.6c-0.6,1.2-1.3,2.3-2,3.4c-0.7,1.1-1.5,2.2-2.4,3.2c-0.8,1-1.7,2-2.7,2.9
	s-1.9,1.8-2.9,2.7c-1,0.8-2.1,1.6-3.2,2.4c-1.1,0.7-2.2,1.4-3.4,2c-1.2,0.6-2.4,1.2-3.6,1.7c-1.2,0.5-2.5,1-3.7,1.3
	c-1.3,0.4-2.6,0.7-3.9,1c-1.3,0.3-2.6,0.5-3.9,0.6c-1.3,0.1-2.6,0.2-4,0.2c-1.3,0-2.7-0.1-4-0.2c-1.3-0.1-2.6-0.3-3.9-0.6
	c-1.3-0.3-2.6-0.6-3.9-1c-1.3-0.4-2.5-0.8-3.7-1.3c-1.2-0.5-2.4-1.1-3.6-1.7c-1.2-0.6-2.3-1.3-3.4-2c-1.1-0.7-2.2-1.5-3.2-2.4
	c-1-0.8-2-1.7-2.9-2.7s-1.8-1.9-2.7-2.9c-0.8-1-1.6-2.1-2.4-3.2c-0.7-1.1-1.4-2.2-2-3.4c-0.6-1.2-1.2-2.4-1.7-3.6
	c-0.5-1.2-1-2.5-1.3-3.7c-0.4-1.3-0.7-2.6-1-3.9c-0.3-1.3-0.5-2.6-0.6-3.9c-0.1-1.3-0.2-2.6-0.2-4V52.7c0-1.3,0.1-2.7,0.2-4
	c0.1-1.3,0.3-2.6,0.6-3.9c0.3-1.3,0.6-2.6,1-3.9c0.4-1.3,0.8-2.5,1.3-3.7c0.5-1.2,1.1-2.4,1.7-3.6c0.6-1.2,1.3-2.3,2-3.4
	c0.7-1.1,1.5-2.2,2.4-3.2c0.8-1,1.7-2,2.7-2.9c0.9-0.9,1.9-1.8,2.9-2.7c1-0.8,2.1-1.6,3.2-2.4c1.1-0.7,2.2-1.4,3.4-2
	c1.2-0.6,2.4-1.2,3.6-1.7c1.2-0.5,2.5-1,3.7-1.3c1.3-0.4,2.6-0.7,3.9-1c1.3-0.3,2.6-0.5,3.9-0.6c1.3-0.1,2.6-0.2,4-0.2
	c1.3,0,2.7,0.1,4,0.2c1.3,0.1,2.6,0.3,3.9,0.6c1.3,0.3,2.6,0.6,3.9,1c1.3,0.4,2.5,0.8,3.7,1.3c1.2,0.5,2.4,1.1,3.6,1.7
	c1.2,0.6,2.3,1.3,3.4,2c1.1,0.7,2.2,1.5,3.2,2.4c1,0.8,2,1.7,2.9,2.7c0.9,0.9,1.8,1.9,2.7,2.9c0.8,1,1.6,2.1,2.4,3.2
	c0.7,1.1,1.4,2.2,2,3.4c0.6,1.2,1.2,2.4,1.7,3.6c0.5,1.2,1,2.5,1.3,3.7c0.4,1.3,0.7,2.6,1,3.9c0.3,1.3,0.5,2.6,0.6,3.9
	C1165,50.1,1165.1,51.4,1165.1,52.7z"/>
<path class="st0" d="M882.9,12.3h79.9c1.3,0,2.7,0.1,4,0.2c1.3,0.1,2.6,0.3,3.9,0.6c1.3,0.3,2.6,0.6,3.9,1c1.3,0.4,2.5,0.8,3.7,1.3
	c1.2,0.5,2.4,1.1,3.6,1.7c1.2,0.6,2.3,1.3,3.4,2c1.1,0.7,2.2,1.5,3.2,2.4c1,0.8,2,1.7,2.9,2.7c0.9,0.9,1.8,1.9,2.7,2.9
	c0.8,1,1.6,2.1,2.4,3.2c0.7,1.1,1.4,2.2,2,3.4c0.6,1.2,1.2,2.4,1.7,3.6c0.5,1.2,1,2.5,1.3,3.7c0.4,1.3,0.7,2.6,1,3.9
	c0.3,1.3,0.5,2.6,0.6,3.9c0.1,1.3,0.2,2.6,0.2,4c0,1.3-0.1,2.7-0.2,4c-0.1,1.3-0.3,2.6-0.6,3.9c-0.3,1.3-0.6,2.6-1,3.9
	c-0.4,1.3-0.8,2.5-1.3,3.7c-0.5,1.2-1.1,2.4-1.7,3.6c-0.6,1.2-1.3,2.3-2,3.4c-0.7,1.1-1.5,2.2-2.4,3.2s-1.7,2-2.7,2.9
	c-0.9,0.9-1.9,1.8-2.9,2.7c-1,0.8-2.1,1.6-3.2,2.4c-1.1,0.7-2.2,1.4-3.4,2c-1.2,0.6-2.4,1.2-3.6,1.7c-1.2,0.5-2.5,1-3.7,1.3
	c-1.3,0.4-2.6,0.7-3.9,1c-1.3,0.3-2.6,0.5-3.9,0.6c-1.3,0.1-2.6,0.2-4,0.2h-79.9c-1.3,0-2.7-0.1-4-0.2c-1.3-0.1-2.6-0.3-3.9-0.6
	c-1.3-0.3-2.6-0.6-3.9-1s-2.5-0.8-3.7-1.3c-1.2-0.5-2.4-1.1-3.6-1.7c-1.2-0.6-2.3-1.3-3.4-2c-1.1-0.7-2.2-1.5-3.2-2.4
	c-1-0.8-2-1.7-2.9-2.7s-1.8-1.9-2.7-2.9c-0.8-1-1.6-2.1-2.4-3.2c-0.7-1.1-1.4-2.2-2-3.4c-0.6-1.2-1.2-2.4-1.7-3.6
	c-0.5-1.2-1-2.5-1.3-3.7c-0.4-1.3-0.7-2.6-1-3.9c-0.3-1.3-0.5-2.6-0.6-3.9c-0.1-1.3-0.2-2.6-0.2-4c0-1.3,0.1-2.6,0.2-4
	c0.1-1.3,0.3-2.6,0.6-3.9c0.3-1.3,0.6-2.6,1-3.9c0.4-1.3,0.8-2.5,1.3-3.7c0.5-1.2,1.1-2.4,1.7-3.6c0.6-1.2,1.3-2.3,2-3.4
	c0.7-1.1,1.5-2.2,2.4-3.2c0.8-1,1.7-2,2.7-2.9s1.9-1.8,2.9-2.7c1-0.8,2.1-1.6,3.2-2.4c1.1-0.7,2.2-1.4,3.4-2
	c1.2-0.6,2.4-1.2,3.6-1.7c1.2-0.5,2.5-1,3.7-1.3c1.3-0.4,2.6-0.7,3.9-1c1.3-0.3,2.6-0.5,3.9-0.6C880.3,12.4,881.6,12.3,882.9,12.3z"
	/>
<path class="st0" d="M1043.9,334.4h80c1.3,0,2.7,0.1,4,0.2c1.3,0.1,2.6,0.3,3.9,0.6c1.3,0.3,2.6,0.6,3.9,1c1.3,0.4,2.5,0.8,3.7,1.3
	c1.2,0.5,2.4,1.1,3.6,1.7c1.2,0.6,2.3,1.3,3.4,2c1.1,0.7,2.2,1.5,3.2,2.4c1,0.8,2,1.7,2.9,2.7s1.8,1.9,2.7,2.9
	c0.8,1,1.6,2.1,2.4,3.2c0.7,1.1,1.4,2.2,2,3.4c0.6,1.2,1.2,2.4,1.7,3.6c0.5,1.2,1,2.5,1.3,3.7c0.4,1.3,0.7,2.6,1,3.9
	c0.3,1.3,0.5,2.6,0.6,3.9c0.1,1.3,0.2,2.6,0.2,4c0,1.3-0.1,2.7-0.2,4c-0.1,1.3-0.3,2.6-0.6,3.9c-0.3,1.3-0.6,2.6-1,3.9
	c-0.4,1.3-0.8,2.5-1.3,3.7c-0.5,1.2-1.1,2.4-1.7,3.6c-0.6,1.2-1.3,2.3-2,3.4c-0.7,1.1-1.5,2.2-2.4,3.2c-0.8,1-1.7,2-2.7,2.9
	s-1.9,1.8-2.9,2.7c-1,0.8-2.1,1.6-3.2,2.4c-1.1,0.7-2.2,1.4-3.4,2c-1.2,0.6-2.4,1.2-3.6,1.7c-1.2,0.5-2.5,1-3.7,1.3
	c-1.3,0.4-2.6,0.7-3.9,1c-1.3,0.3-2.6,0.5-3.9,0.6c-1.3,0.1-2.6,0.2-4,0.2h-80c-1.3,0-2.6-0.1-4-0.2c-1.3-0.1-2.6-0.3-3.9-0.6
	c-1.3-0.3-2.6-0.6-3.9-1c-1.3-0.4-2.5-0.8-3.7-1.3c-1.2-0.5-2.4-1.1-3.6-1.7c-1.2-0.6-2.3-1.3-3.4-2c-1.1-0.7-2.2-1.5-3.2-2.4
	c-1-0.8-2-1.7-2.9-2.7s-1.8-1.9-2.7-2.9c-0.8-1-1.6-2.1-2.4-3.2c-0.7-1.1-1.4-2.2-2-3.4c-0.6-1.2-1.2-2.4-1.7-3.6
	c-0.5-1.2-1-2.5-1.3-3.7c-0.4-1.3-0.7-2.6-1-3.9c-0.3-1.3-0.5-2.6-0.6-3.9c-0.1-1.3-0.2-2.6-0.2-4c0-1.3,0.1-2.6,0.2-4
	c0.1-1.3,0.3-2.6,0.6-3.9c0.3-1.3,0.6-2.6,1-3.9c0.4-1.3,0.8-2.5,1.3-3.7c0.5-1.2,1.1-2.4,1.7-3.6c0.6-1.2,1.3-2.3,2-3.4
	c0.7-1.1,1.5-2.2,2.4-3.2c0.8-1,1.7-2,2.7-2.9s1.9-1.8,2.9-2.7c1-0.8,2.1-1.6,3.2-2.4c1.1-0.7,2.2-1.4,3.4-2
	c1.2-0.6,2.4-1.2,3.6-1.7c1.2-0.5,2.5-1,3.7-1.3c1.3-0.4,2.6-0.7,3.9-1c1.3-0.3,2.6-0.5,3.9-0.6
	C1041.2,334.4,1042.5,334.4,1043.9,334.4z"/>
<path class="st0" d="M1366.7,334.6l160.9,0.3c1.3,0,2.7,0.1,4,0.2c1.3,0.1,2.6,0.3,3.9,0.6c1.3,0.3,2.6,0.6,3.8,1
	c1.3,0.4,2.5,0.8,3.7,1.3c1.2,0.5,2.4,1.1,3.6,1.7c1.2,0.6,2.3,1.3,3.4,2.1c1.1,0.7,2.2,1.5,3.2,2.4c1,0.8,2,1.7,2.9,2.7
	c0.9,0.9,1.8,1.9,2.7,2.9c0.8,1,1.6,2.1,2.4,3.2s1.4,2.2,2,3.4c0.6,1.2,1.2,2.4,1.7,3.6c0.5,1.2,0.9,2.5,1.3,3.7
	c0.4,1.3,0.7,2.6,1,3.9c0.3,1.3,0.4,2.6,0.6,3.9c0.1,1.3,0.2,2.6,0.2,4c0,1.3-0.1,2.6-0.2,4c-0.1,1.3-0.3,2.6-0.6,3.9
	c-0.3,1.3-0.6,2.6-1,3.9c-0.4,1.3-0.8,2.5-1.3,3.7c-0.5,1.2-1.1,2.4-1.7,3.6c-0.6,1.2-1.3,2.3-2.1,3.4c-0.7,1.1-1.5,2.2-2.4,3.2
	c-0.8,1-1.7,2-2.7,2.9c-0.9,0.9-1.9,1.8-2.9,2.7c-1,0.8-2.1,1.6-3.2,2.4c-1.1,0.7-2.2,1.4-3.4,2c-1.2,0.6-2.4,1.2-3.6,1.7
	c-1.2,0.5-2.5,1-3.7,1.3c-1.3,0.4-2.6,0.7-3.9,1c-1.3,0.3-2.6,0.5-3.9,0.6c-1.3,0.1-2.6,0.2-4,0.2l-160.9-0.3c-1.3,0-2.7-0.1-4-0.2
	c-1.3-0.1-2.6-0.3-3.9-0.6c-1.3-0.3-2.6-0.6-3.8-1c-1.3-0.4-2.5-0.8-3.7-1.3c-1.2-0.5-2.4-1.1-3.6-1.7c-1.2-0.6-2.3-1.3-3.4-2
	c-1.1-0.7-2.2-1.5-3.2-2.4c-1-0.8-2-1.7-2.9-2.7c-0.9-0.9-1.8-1.9-2.7-2.9c-0.8-1-1.6-2.1-2.4-3.2s-1.4-2.2-2-3.4
	c-0.6-1.2-1.2-2.4-1.7-3.6c-0.5-1.2-0.9-2.5-1.3-3.7c-0.4-1.3-0.7-2.6-1-3.9c-0.3-1.3-0.4-2.6-0.6-3.9c-0.1-1.3-0.2-2.6-0.2-4
	c0-1.3,0.1-2.7,0.2-4c0.1-1.3,0.3-2.6,0.6-3.9c0.3-1.3,0.6-2.6,1-3.9c0.4-1.3,0.8-2.5,1.3-3.7c0.5-1.2,1.1-2.4,1.7-3.6
	c0.6-1.2,1.3-2.3,2.1-3.4c0.7-1.1,1.5-2.2,2.4-3.2s1.7-2,2.7-2.9c0.9-0.9,1.9-1.8,2.9-2.7c1-0.8,2.1-1.6,3.2-2.4
	c1.1-0.7,2.2-1.4,3.4-2c1.2-0.6,2.4-1.2,3.6-1.7c1.2-0.5,2.5-0.9,3.7-1.3c1.3-0.4,2.6-0.7,3.9-1c1.3-0.3,2.6-0.4,3.9-0.6
	C1364,334.6,1365.3,334.6,1366.7,334.6z"/>
<path class="st0" d="M1366.6,12.3l160.9,0.1c1.3,0,2.6,0.1,4,0.2c1.3,0.1,2.6,0.3,3.9,0.6c1.3,0.3,2.6,0.6,3.9,1
	c1.3,0.4,2.5,0.8,3.7,1.3c1.2,0.5,2.4,1.1,3.6,1.7c1.2,0.6,2.3,1.3,3.4,2c1.1,0.7,2.2,1.5,3.2,2.4c1,0.8,2,1.7,2.9,2.7
	s1.8,1.9,2.7,2.9c0.8,1,1.6,2.1,2.4,3.2c0.7,1.1,1.4,2.2,2,3.4c0.6,1.2,1.2,2.4,1.7,3.6c0.5,1.2,1,2.5,1.3,3.7
	c0.4,1.3,0.7,2.6,1,3.9c0.3,1.3,0.5,2.6,0.6,3.9c0.1,1.3,0.2,2.6,0.2,4s-0.1,2.7-0.2,4c-0.1,1.3-0.3,2.6-0.6,3.9
	c-0.3,1.3-0.6,2.6-1,3.9c-0.4,1.3-0.8,2.5-1.3,3.7c-0.5,1.2-1.1,2.4-1.7,3.6c-0.6,1.2-1.3,2.3-2,3.4c-0.7,1.1-1.5,2.2-2.4,3.2
	c-0.8,1-1.7,2-2.7,2.9s-1.9,1.8-2.9,2.7c-1,0.8-2.1,1.6-3.2,2.4c-1.1,0.7-2.2,1.4-3.4,2c-1.2,0.6-2.4,1.2-3.6,1.7
	c-1.2,0.5-2.5,1-3.7,1.3c-1.3,0.4-2.6,0.7-3.9,1c-1.3,0.3-2.6,0.5-3.9,0.6c-1.3,0.1-2.6,0.2-4,0.2l-160.9-0.1c-1.3,0-2.6-0.1-4-0.2
	c-1.3-0.1-2.6-0.3-3.9-0.6c-1.3-0.3-2.6-0.6-3.9-1c-1.3-0.4-2.5-0.8-3.7-1.3s-2.4-1.1-3.6-1.7c-1.2-0.6-2.3-1.3-3.4-2
	c-1.1-0.7-2.2-1.5-3.2-2.4c-1-0.8-2-1.7-2.9-2.7c-0.9-0.9-1.8-1.9-2.7-2.9c-0.8-1-1.6-2.1-2.4-3.2c-0.7-1.1-1.4-2.2-2-3.4
	s-1.2-2.4-1.7-3.6c-0.5-1.2-1-2.5-1.3-3.7c-0.4-1.3-0.7-2.6-1-3.9c-0.3-1.3-0.5-2.6-0.6-3.9c-0.1-1.3-0.2-2.6-0.2-4
	c0-1.3,0.1-2.6,0.2-4c0.1-1.3,0.3-2.6,0.6-3.9c0.3-1.3,0.6-2.6,1-3.9c0.4-1.3,0.8-2.5,1.3-3.7c0.5-1.2,1.1-2.4,1.7-3.6
	c0.6-1.2,1.3-2.3,2-3.4c0.7-1.1,1.5-2.2,2.4-3.2c0.8-1,1.7-2,2.7-2.9s1.9-1.8,2.9-2.7c1-0.8,2.1-1.6,3.2-2.4c1.1-0.7,2.2-1.4,3.4-2
	c1.2-0.6,2.4-1.2,3.6-1.7c1.2-0.5,2.5-1,3.7-1.3c1.3-0.4,2.6-0.7,3.9-1c1.3-0.3,2.6-0.5,3.9-0.6C1364,12.4,1365.3,12.3,1366.6,12.3z
	"/>
<path class="st0" d="M1254.3,208.1l76.5-171c0.5-1.2,1.1-2.4,1.8-3.5c0.7-1.2,1.4-2.3,2.1-3.3c0.8-1.1,1.6-2.1,2.5-3.1
	s1.8-2,2.8-2.9c1-0.9,2-1.8,3-2.6s2.1-1.6,3.3-2.3c1.1-0.7,2.3-1.4,3.5-1.9c1.2-0.6,2.4-1.1,3.6-1.6c1.2-0.5,2.5-0.9,3.8-1.2
	c1.3-0.3,2.6-0.6,3.9-0.9c1.3-0.2,2.6-0.4,3.9-0.5s2.7-0.1,4-0.1c1.3,0,2.6,0.1,4,0.3s2.6,0.4,3.9,0.7c1.3,0.3,2.6,0.7,3.8,1.1
	c1.3,0.4,2.5,0.9,3.7,1.4c1.2,0.5,2.4,1.1,3.5,1.8s2.3,1.4,3.4,2.1c1.1,0.8,2.1,1.6,3.1,2.5c1,0.9,2,1.8,2.9,2.8c0.9,1,1.8,2,2.6,3
	c0.8,1,1.6,2.1,2.3,3.3c0.7,1.1,1.4,2.3,1.9,3.5c0.6,1.2,1.1,2.4,1.6,3.6c0.5,1.2,0.9,2.5,1.2,3.8c0.4,1.3,0.6,2.6,0.9,3.9
	s0.4,2.6,0.5,3.9c0.1,1.3,0.1,2.6,0.1,4c0,1.3-0.1,2.6-0.3,4c-0.2,1.3-0.4,2.6-0.7,3.9s-0.7,2.6-1.1,3.8c-0.4,1.3-0.9,2.5-1.4,3.7
	l-76.5,171c-0.5,1.2-1.1,2.4-1.8,3.5c-0.7,1.2-1.4,2.3-2.1,3.3c-0.8,1.1-1.6,2.1-2.5,3.1c-0.9,1-1.8,2-2.8,2.9c-1,0.9-2,1.8-3,2.6
	c-1,0.8-2.1,1.6-3.3,2.3c-1.1,0.7-2.3,1.4-3.5,1.9c-1.2,0.6-2.4,1.1-3.6,1.6c-1.2,0.5-2.5,0.9-3.8,1.2c-1.3,0.3-2.6,0.6-3.9,0.9
	c-1.3,0.2-2.6,0.4-3.9,0.5c-1.3,0.1-2.6,0.1-4,0.1c-1.3,0-2.6-0.1-4-0.3c-1.3-0.2-2.6-0.4-3.9-0.7c-1.3-0.3-2.6-0.7-3.8-1.1
	c-1.3-0.4-2.5-0.9-3.7-1.4c-1.2-0.5-2.4-1.1-3.5-1.8c-1.2-0.7-2.3-1.4-3.4-2.1c-1.1-0.8-2.1-1.6-3.1-2.5c-1-0.9-2-1.8-2.9-2.8
	c-0.9-1-1.8-2-2.6-3c-0.8-1-1.6-2.1-2.3-3.3c-0.7-1.1-1.4-2.3-1.9-3.5c-0.6-1.2-1.1-2.4-1.6-3.6c-0.5-1.2-0.9-2.5-1.2-3.8
	c-0.3-1.3-0.6-2.6-0.9-3.9c-0.2-1.3-0.4-2.6-0.5-3.9c-0.1-1.3-0.1-2.6-0.1-4s0.1-2.6,0.3-4c0.2-1.3,0.4-2.6,0.7-3.9
	c0.3-1.3,0.7-2.6,1.1-3.8C1253.2,210.5,1253.7,209.3,1254.3,208.1z"/>
<path class="st0" d="M1329,209.2l73.3,146c0.6,1.2,1.1,2.4,1.6,3.6c0.5,1.2,0.9,2.5,1.2,3.8c0.4,1.3,0.6,2.6,0.9,3.9
	c0.2,1.3,0.4,2.6,0.5,3.9s0.1,2.6,0.1,4c0,1.3-0.1,2.6-0.3,4c-0.2,1.3-0.4,2.6-0.7,3.9c-0.3,1.3-0.6,2.6-1.1,3.8
	c-0.4,1.3-0.9,2.5-1.4,3.7c-0.5,1.2-1.1,2.4-1.8,3.5c-0.7,1.2-1.4,2.3-2.1,3.4c-0.8,1.1-1.6,2.1-2.4,3.1c-0.9,1-1.8,2-2.7,2.9
	c-1,0.9-2,1.8-3,2.6c-1,0.8-2.1,1.6-3.3,2.3c-1.1,0.7-2.3,1.4-3.5,2s-2.4,1.1-3.6,1.6c-1.2,0.5-2.5,0.9-3.8,1.2
	c-1.3,0.3-2.6,0.6-3.9,0.9c-1.3,0.2-2.6,0.4-3.9,0.5c-1.3,0.1-2.6,0.1-4,0.1c-1.3,0-2.6-0.1-4-0.3c-1.3-0.2-2.6-0.4-3.9-0.7
	c-1.3-0.3-2.6-0.6-3.8-1.1c-1.3-0.4-2.5-0.9-3.7-1.4c-1.2-0.5-2.4-1.1-3.5-1.8c-1.2-0.7-2.3-1.4-3.4-2.1s-2.1-1.6-3.1-2.4
	c-1-0.9-2-1.8-2.9-2.7c-0.9-1-1.8-2-2.6-3s-1.6-2.1-2.3-3.2c-0.7-1.1-1.4-2.3-2-3.5l-73.3-146c-0.6-1.2-1.1-2.4-1.6-3.6
	c-0.5-1.2-0.9-2.5-1.2-3.8c-0.4-1.3-0.6-2.6-0.9-3.9c-0.2-1.3-0.4-2.6-0.5-3.9c-0.1-1.3-0.1-2.6-0.1-4c0-1.3,0.1-2.6,0.3-4
	c0.2-1.3,0.4-2.6,0.7-3.9c0.3-1.3,0.6-2.6,1.1-3.8c0.4-1.3,0.9-2.5,1.4-3.7c0.5-1.2,1.1-2.4,1.8-3.5c0.7-1.2,1.4-2.3,2.1-3.4
	s1.6-2.1,2.4-3.1c0.9-1,1.8-2,2.7-2.9c1-0.9,2-1.8,3-2.6c1-0.8,2.1-1.6,3.3-2.3c1.1-0.7,2.3-1.4,3.5-2c1.2-0.6,2.4-1.1,3.6-1.6
	c1.2-0.5,2.5-0.9,3.8-1.2c1.3-0.3,2.6-0.6,3.9-0.9s2.6-0.4,3.9-0.5c1.3-0.1,2.6-0.1,4-0.1c1.3,0,2.6,0.1,4,0.3
	c1.3,0.2,2.6,0.4,3.9,0.7c1.3,0.3,2.6,0.7,3.8,1.1c1.3,0.4,2.5,0.9,3.7,1.4c1.2,0.5,2.4,1.1,3.5,1.8c1.2,0.7,2.3,1.4,3.4,2.1
	s2.1,1.6,3.1,2.4c1,0.9,2,1.8,2.9,2.7c0.9,1,1.8,2,2.6,3c0.8,1,1.6,2.1,2.3,3.2C1327.8,206.8,1328.4,208,1329,209.2z"/>
<path class="st0" d="M2180,334.5h243.5c1.3,0,2.7,0.1,4,0.2c1.3,0.1,2.6,0.3,3.9,0.6c1.3,0.3,2.6,0.6,3.9,1s2.5,0.8,3.7,1.3
	c1.2,0.5,2.4,1.1,3.6,1.7c1.2,0.6,2.3,1.3,3.4,2c1.1,0.7,2.2,1.5,3.2,2.4c1,0.8,2,1.7,2.9,2.7s1.8,1.9,2.7,2.9
	c0.8,1,1.6,2.1,2.4,3.2c0.7,1.1,1.4,2.2,2,3.4c0.6,1.2,1.2,2.4,1.7,3.6c0.5,1.2,1,2.5,1.3,3.7c0.4,1.3,0.7,2.6,1,3.9
	c0.3,1.3,0.5,2.6,0.6,3.9c0.1,1.3,0.2,2.6,0.2,4s-0.1,2.7-0.2,4c-0.1,1.3-0.3,2.6-0.6,3.9c-0.3,1.3-0.6,2.6-1,3.9
	c-0.4,1.3-0.8,2.5-1.3,3.7c-0.5,1.2-1.1,2.4-1.7,3.6c-0.6,1.2-1.3,2.3-2,3.4c-0.7,1.1-1.5,2.2-2.4,3.2c-0.8,1-1.7,2-2.7,2.9
	s-1.9,1.8-2.9,2.7c-1,0.8-2.1,1.6-3.2,2.4c-1.1,0.7-2.2,1.4-3.4,2c-1.2,0.6-2.4,1.2-3.6,1.7c-1.2,0.5-2.5,1-3.7,1.3
	c-1.3,0.4-2.6,0.7-3.9,1c-1.3,0.3-2.6,0.5-3.9,0.6c-1.3,0.1-2.6,0.2-4,0.2H2180c-1.3,0-2.7-0.1-4-0.2c-1.3-0.1-2.6-0.3-3.9-0.6
	c-1.3-0.3-2.6-0.6-3.9-1c-1.3-0.4-2.5-0.8-3.7-1.3c-1.2-0.5-2.4-1.1-3.6-1.7c-1.2-0.6-2.3-1.3-3.4-2c-1.1-0.7-2.2-1.5-3.2-2.4
	c-1-0.8-2-1.7-2.9-2.7s-1.8-1.9-2.7-2.9c-0.8-1-1.6-2.1-2.4-3.2c-0.7-1.1-1.4-2.2-2-3.4c-0.6-1.2-1.2-2.4-1.7-3.6
	c-0.5-1.2-1-2.5-1.3-3.7c-0.4-1.3-0.7-2.6-1-3.9c-0.3-1.3-0.5-2.6-0.6-3.9c-0.1-1.3-0.2-2.6-0.2-4s0.1-2.7,0.2-4
	c0.1-1.3,0.3-2.6,0.6-3.9c0.3-1.3,0.6-2.6,1-3.9s0.8-2.5,1.3-3.7c0.5-1.2,1.1-2.4,1.7-3.6c0.6-1.2,1.3-2.3,2-3.4
	c0.7-1.1,1.5-2.2,2.4-3.2c0.8-1,1.7-2,2.7-2.9s1.9-1.8,2.9-2.7c1-0.8,2.1-1.6,3.2-2.4c1.1-0.7,2.2-1.4,3.4-2
	c1.2-0.6,2.4-1.2,3.6-1.7c1.2-0.5,2.5-1,3.7-1.3s2.6-0.7,3.9-1c1.3-0.3,2.6-0.5,3.9-0.6C2177.3,334.6,2178.6,334.5,2180,334.5z"/>
<path class="st0" d="M2180,12h243.5c1.3,0,2.7,0.1,4,0.2c1.3,0.1,2.6,0.3,3.9,0.6c1.3,0.3,2.6,0.6,3.9,1s2.5,0.8,3.7,1.3
	c1.2,0.5,2.4,1.1,3.6,1.7c1.2,0.6,2.3,1.3,3.4,2c1.1,0.7,2.2,1.5,3.2,2.4c1,0.8,2,1.7,2.9,2.7s1.8,1.9,2.7,2.9
	c0.8,1,1.6,2.1,2.4,3.2c0.7,1.1,1.4,2.2,2,3.4s1.2,2.4,1.7,3.6c0.5,1.2,1,2.5,1.3,3.7c0.4,1.3,0.7,2.6,1,3.9
	c0.3,1.3,0.5,2.6,0.6,3.9c0.1,1.3,0.2,2.6,0.2,4c0,1.3-0.1,2.7-0.2,4c-0.1,1.3-0.3,2.6-0.6,3.9c-0.3,1.3-0.6,2.6-1,3.9
	c-0.4,1.3-0.8,2.5-1.3,3.7c-0.5,1.2-1.1,2.4-1.7,3.6c-0.6,1.2-1.3,2.3-2,3.4c-0.7,1.1-1.5,2.2-2.4,3.2c-0.8,1-1.7,2-2.7,2.9
	c-0.9,0.9-1.9,1.8-2.9,2.7c-1,0.8-2.1,1.6-3.2,2.4c-1.1,0.7-2.2,1.4-3.4,2c-1.2,0.6-2.4,1.2-3.6,1.7c-1.2,0.5-2.5,1-3.7,1.3
	c-1.3,0.4-2.6,0.7-3.9,1c-1.3,0.3-2.6,0.5-3.9,0.6c-1.3,0.1-2.6,0.2-4,0.2H2180c-1.3,0-2.7-0.1-4-0.2c-1.3-0.1-2.6-0.3-3.9-0.6
	c-1.3-0.3-2.6-0.6-3.9-1c-1.3-0.4-2.5-0.8-3.7-1.3c-1.2-0.5-2.4-1.1-3.6-1.7c-1.2-0.6-2.3-1.3-3.4-2c-1.1-0.7-2.2-1.5-3.2-2.4
	c-1-0.8-2-1.7-2.9-2.7c-0.9-0.9-1.8-1.9-2.7-2.9c-0.8-1-1.6-2.1-2.4-3.2c-0.7-1.1-1.4-2.2-2-3.4c-0.6-1.2-1.2-2.4-1.7-3.6
	c-0.5-1.2-1-2.5-1.3-3.7c-0.4-1.3-0.7-2.6-1-3.9c-0.3-1.3-0.5-2.6-0.6-3.9c-0.1-1.3-0.2-2.6-0.2-4c0-1.3,0.1-2.6,0.2-4
	c0.1-1.3,0.3-2.6,0.6-3.9c0.3-1.3,0.6-2.6,1-3.9c0.4-1.3,0.8-2.5,1.3-3.7c0.5-1.2,1.1-2.4,1.7-3.6s1.3-2.3,2-3.4
	c0.7-1.1,1.5-2.2,2.4-3.2c0.8-1,1.7-2,2.7-2.9s1.9-1.8,2.9-2.7c1-0.8,2.1-1.6,3.2-2.4c1.1-0.7,2.2-1.4,3.4-2
	c1.2-0.6,2.4-1.2,3.6-1.7c1.2-0.5,2.5-1,3.7-1.3s2.6-0.7,3.9-1c1.3-0.3,2.6-0.5,3.9-0.6C2177.3,12.1,2178.6,12,2180,12z"/>
<path class="st0" d="M479.8,334.5h241.5c1.3,0,2.7,0.1,4,0.2c1.3,0.1,2.6,0.3,3.9,0.6c1.3,0.3,2.6,0.6,3.9,1
	c1.3,0.4,2.5,0.8,3.7,1.3c1.2,0.5,2.4,1.1,3.6,1.7c1.2,0.6,2.3,1.3,3.4,2c1.1,0.7,2.2,1.5,3.2,2.4c1,0.8,2,1.7,2.9,2.7
	s1.8,1.9,2.7,2.9c0.8,1,1.6,2.1,2.4,3.2c0.7,1.1,1.4,2.2,2,3.4c0.6,1.2,1.2,2.4,1.7,3.6c0.5,1.2,1,2.5,1.3,3.7
	c0.4,1.3,0.7,2.6,1,3.9c0.3,1.3,0.5,2.6,0.6,3.9c0.1,1.3,0.2,2.6,0.2,4s-0.1,2.7-0.2,4c-0.1,1.3-0.3,2.6-0.6,3.9
	c-0.3,1.3-0.6,2.6-1,3.9c-0.4,1.3-0.8,2.5-1.3,3.7c-0.5,1.2-1.1,2.4-1.7,3.6c-0.6,1.2-1.3,2.3-2,3.4c-0.7,1.1-1.5,2.2-2.4,3.2
	c-0.8,1-1.7,2-2.7,2.9s-1.9,1.8-2.9,2.7c-1,0.8-2.1,1.6-3.2,2.4c-1.1,0.7-2.2,1.4-3.4,2c-1.2,0.6-2.4,1.2-3.6,1.7
	c-1.2,0.5-2.5,1-3.7,1.3c-1.3,0.4-2.6,0.7-3.9,1s-2.6,0.5-3.9,0.6c-1.3,0.1-2.6,0.2-4,0.2H479.8c-1.3,0-2.6-0.1-4-0.2
	c-1.3-0.1-2.6-0.3-3.9-0.6c-1.3-0.3-2.6-0.6-3.9-1c-1.3-0.4-2.5-0.8-3.7-1.3c-1.2-0.5-2.4-1.1-3.6-1.7s-2.3-1.3-3.4-2
	c-1.1-0.7-2.2-1.5-3.2-2.4c-1-0.8-2-1.7-2.9-2.7s-1.8-1.9-2.7-2.9c-0.8-1-1.6-2.1-2.4-3.2c-0.7-1.1-1.4-2.2-2-3.4
	c-0.6-1.2-1.2-2.4-1.7-3.6c-0.5-1.2-1-2.5-1.3-3.7c-0.4-1.3-0.7-2.6-1-3.9c-0.3-1.3-0.5-2.6-0.6-3.9c-0.1-1.3-0.2-2.6-0.2-4
	s0.1-2.7,0.2-4c0.1-1.3,0.3-2.6,0.6-3.9c0.3-1.3,0.6-2.6,1-3.9c0.4-1.3,0.8-2.5,1.3-3.7c0.5-1.2,1.1-2.4,1.7-3.6
	c0.6-1.2,1.3-2.3,2-3.4c0.7-1.1,1.5-2.2,2.4-3.2c0.8-1,1.7-2,2.7-2.9s1.9-1.8,2.9-2.7c1-0.8,2.1-1.6,3.2-2.4c1.1-0.7,2.2-1.4,3.4-2
	c1.2-0.6,2.4-1.2,3.6-1.7c1.2-0.5,2.5-1,3.7-1.3c1.3-0.4,2.6-0.7,3.9-1c1.3-0.3,2.6-0.5,3.9-0.6
	C477.2,334.6,478.5,334.5,479.8,334.5z"/>
<path class="st0" d="M479.8,12h241.5c1.3,0,2.7,0.1,4,0.2c1.3,0.1,2.6,0.3,3.9,0.6c1.3,0.3,2.6,0.6,3.9,1c1.3,0.4,2.5,0.8,3.7,1.3
	c1.2,0.5,2.4,1.1,3.6,1.7c1.2,0.6,2.3,1.3,3.4,2c1.1,0.7,2.2,1.5,3.2,2.4c1,0.8,2,1.7,2.9,2.7s1.8,1.9,2.7,2.9
	c0.8,1,1.6,2.1,2.4,3.2c0.7,1.1,1.4,2.2,2,3.4s1.2,2.4,1.7,3.6c0.5,1.2,1,2.5,1.3,3.7c0.4,1.3,0.7,2.6,1,3.9
	c0.3,1.3,0.5,2.6,0.6,3.9c0.1,1.3,0.2,2.6,0.2,4c0,1.3-0.1,2.7-0.2,4c-0.1,1.3-0.3,2.6-0.6,3.9c-0.3,1.3-0.6,2.6-1,3.9
	c-0.4,1.3-0.8,2.5-1.3,3.7c-0.5,1.2-1.1,2.4-1.7,3.6c-0.6,1.2-1.3,2.3-2,3.4c-0.7,1.1-1.5,2.2-2.4,3.2c-0.8,1-1.7,2-2.7,2.9
	c-0.9,0.9-1.9,1.8-2.9,2.7c-1,0.8-2.1,1.6-3.2,2.4c-1.1,0.7-2.2,1.4-3.4,2c-1.2,0.6-2.4,1.2-3.6,1.7c-1.2,0.5-2.5,1-3.7,1.3
	c-1.3,0.4-2.6,0.7-3.9,1c-1.3,0.3-2.6,0.5-3.9,0.6c-1.3,0.1-2.6,0.2-4,0.2H479.8c-1.3,0-2.6-0.1-4-0.2c-1.3-0.1-2.6-0.3-3.9-0.6
	c-1.3-0.3-2.6-0.6-3.9-1c-1.3-0.4-2.5-0.8-3.7-1.3s-2.4-1.1-3.6-1.7s-2.3-1.3-3.4-2c-1.1-0.7-2.2-1.5-3.2-2.4c-1-0.8-2-1.7-2.9-2.7
	c-0.9-0.9-1.8-1.9-2.7-2.9c-0.8-1-1.6-2.1-2.4-3.2c-0.7-1.1-1.4-2.2-2-3.4c-0.6-1.2-1.2-2.4-1.7-3.6c-0.5-1.2-1-2.5-1.3-3.7
	c-0.4-1.3-0.7-2.6-1-3.9c-0.3-1.3-0.5-2.6-0.6-3.9c-0.1-1.3-0.2-2.6-0.2-4c0-1.3,0.1-2.6,0.2-4c0.1-1.3,0.3-2.6,0.6-3.9
	c0.3-1.3,0.6-2.6,1-3.9c0.4-1.3,0.8-2.5,1.3-3.7c0.5-1.2,1.1-2.4,1.7-3.6s1.3-2.3,2-3.4c0.7-1.1,1.5-2.2,2.4-3.2
	c0.8-1,1.7-2,2.7-2.9s1.9-1.8,2.9-2.7c1-0.8,2.1-1.6,3.2-2.4c1.1-0.7,2.2-1.4,3.4-2s2.4-1.2,3.6-1.7c1.2-0.5,2.5-1,3.7-1.3
	c1.3-0.4,2.6-0.7,3.9-1c1.3-0.3,2.6-0.5,3.9-0.6C477.2,12.1,478.5,12,479.8,12z"/>
<path class="st0" d="M480,172.9l139.2,0.3c1.3,0,2.6,0.1,4,0.2c1.3,0.1,2.6,0.3,3.9,0.6c1.3,0.3,2.6,0.6,3.9,1
	c1.3,0.4,2.5,0.8,3.7,1.3c1.2,0.5,2.4,1.1,3.6,1.7c1.2,0.6,2.3,1.3,3.4,2c1.1,0.7,2.2,1.5,3.2,2.4c1,0.8,2,1.7,2.9,2.7
	c0.9,0.9,1.8,1.9,2.7,3c0.8,1,1.6,2.1,2.4,3.2s1.4,2.2,2,3.4c0.6,1.2,1.2,2.4,1.7,3.6c0.5,1.2,0.9,2.5,1.3,3.7
	c0.4,1.3,0.7,2.6,1,3.9c0.3,1.3,0.4,2.6,0.6,3.9c0.1,1.3,0.2,2.6,0.2,4c0,1.3-0.1,2.6-0.2,4c-0.1,1.3-0.3,2.6-0.6,3.9
	c-0.3,1.3-0.6,2.6-1,3.9c-0.4,1.3-0.8,2.5-1.3,3.7c-0.5,1.2-1.1,2.4-1.7,3.6c-0.6,1.2-1.3,2.3-2.1,3.4c-0.7,1.1-1.5,2.2-2.4,3.2
	c-0.8,1-1.7,2-2.7,2.9c-0.9,0.9-1.9,1.8-2.9,2.7c-1,0.8-2.1,1.6-3.2,2.4c-1.1,0.7-2.2,1.4-3.4,2c-1.2,0.6-2.4,1.2-3.6,1.7
	c-1.2,0.5-2.5,0.9-3.7,1.3c-1.3,0.4-2.6,0.7-3.9,1c-1.3,0.3-2.6,0.4-3.9,0.6c-1.3,0.1-2.6,0.2-4,0.2l-139.2-0.3
	c-1.3,0-2.6-0.1-4-0.2c-1.3-0.1-2.6-0.3-3.9-0.6c-1.3-0.3-2.6-0.6-3.9-1c-1.3-0.4-2.5-0.8-3.7-1.3c-1.2-0.5-2.4-1.1-3.6-1.7
	c-1.2-0.6-2.3-1.3-3.4-2.1c-1.1-0.7-2.2-1.5-3.2-2.4c-1-0.8-2-1.7-2.9-2.7c-0.9-0.9-1.8-1.9-2.7-2.9c-0.8-1-1.6-2.1-2.4-3.2
	c-0.7-1.1-1.4-2.2-2-3.4c-0.6-1.2-1.2-2.4-1.7-3.6c-0.5-1.2-0.9-2.5-1.3-3.7c-0.4-1.3-0.7-2.6-1-3.9c-0.3-1.3-0.4-2.6-0.6-3.9
	c-0.1-1.3-0.2-2.6-0.2-4c0-1.3,0.1-2.7,0.2-4c0.1-1.3,0.3-2.6,0.6-3.9c0.3-1.3,0.6-2.6,1-3.9c0.4-1.3,0.8-2.5,1.3-3.7
	c0.5-1.2,1.1-2.4,1.7-3.6c0.6-1.2,1.3-2.3,2.1-3.4c0.7-1.1,1.5-2.2,2.4-3.2c0.8-1,1.7-2,2.7-2.9c0.9-0.9,1.9-1.8,2.9-2.7
	c1-0.8,2.1-1.6,3.2-2.4s2.2-1.4,3.4-2c1.2-0.6,2.4-1.2,3.6-1.7c1.2-0.5,2.5-0.9,3.7-1.3c1.3-0.4,2.6-0.7,3.9-1
	c1.3-0.3,2.6-0.4,3.9-0.6C477.4,172.9,478.7,172.9,480,172.9z"/>
<path class="st1" d="M1652.7,253.4l-0.6,0c-1.3,0-2.7-0.1-4-0.2c-1.3-0.1-2.6-0.3-3.9-0.6c-1.3-0.3-2.6-0.6-3.9-1
	c-1.3-0.4-2.5-0.8-3.7-1.3s-2.4-1.1-3.6-1.7c-1.2-0.6-2.3-1.3-3.4-2.1c-1.1-0.7-2.2-1.5-3.2-2.4c-1-0.8-2-1.7-2.9-2.7
	c-0.9-0.9-1.8-1.9-2.7-2.9c-0.8-1-1.6-2.1-2.4-3.2c-0.7-1.1-1.4-2.2-2-3.4c-0.6-1.2-1.2-2.4-1.7-3.6c-0.5-1.2-0.9-2.5-1.3-3.7
	c-0.4-1.3-0.7-2.6-1-3.9c-0.3-1.3-0.4-2.6-0.6-3.9c-0.1-1.3-0.2-2.6-0.2-4c0-1.3,0.1-2.7,0.2-4c0.1-1.3,0.3-2.6,0.6-3.9
	c0.3-1.3,0.6-2.6,1-3.8c0.4-1.3,0.8-2.5,1.3-3.7c0.5-1.2,1.1-2.4,1.7-3.6c0.6-1.2,1.3-2.3,2-3.4c0.7-1.1,1.5-2.2,2.4-3.2
	c0.8-1,1.7-2,2.7-2.9c0.9-0.9,1.9-1.8,3-2.7c1-0.8,2.1-1.6,3.2-2.4s2.2-1.4,3.4-2c1.2-0.6,2.4-1.2,3.6-1.7c1.2-0.5,2.5-0.9,3.7-1.3
	c1.3-0.4,2.6-0.7,3.9-1c1.3-0.3,2.6-0.4,3.9-0.6c1.3-0.1,2.6-0.2,4-0.2l0.6,0c1.3,0,2.6,0.1,4,0.2c1.3,0.1,2.6,0.3,3.9,0.6
	c1.3,0.3,2.6,0.6,3.9,1c1.3,0.4,2.5,0.8,3.7,1.3c1.2,0.5,2.4,1.1,3.6,1.7c1.2,0.6,2.3,1.3,3.4,2.1c1.1,0.7,2.2,1.5,3.2,2.4
	c1,0.8,2,1.7,2.9,2.7c0.9,0.9,1.8,1.9,2.7,2.9c0.8,1,1.6,2.1,2.4,3.2c0.7,1.1,1.4,2.2,2,3.4c0.6,1.2,1.2,2.4,1.7,3.6
	c0.5,1.2,0.9,2.5,1.3,3.7c0.4,1.3,0.7,2.6,1,3.9c0.3,1.3,0.5,2.6,0.6,3.9c0.1,1.3,0.2,2.6,0.2,4c0,1.3-0.1,2.7-0.2,4
	c-0.1,1.3-0.3,2.6-0.6,3.9c-0.3,1.3-0.6,2.6-1,3.8c-0.4,1.3-0.8,2.5-1.3,3.7c-0.5,1.2-1.1,2.4-1.7,3.6c-0.6,1.2-1.3,2.3-2.1,3.4
	c-0.7,1.1-1.5,2.2-2.4,3.2c-0.8,1-1.7,2-2.7,2.9s-1.9,1.8-2.9,2.7c-1,0.8-2.1,1.6-3.2,2.4c-1.1,0.7-2.2,1.4-3.4,2s-2.4,1.2-3.6,1.7
	c-1.2,0.5-2.5,0.9-3.7,1.3c-1.3,0.4-2.6,0.7-3.9,1c-1.3,0.3-2.6,0.4-3.9,0.6C1655.3,253.4,1654,253.4,1652.7,253.4z"/>
<path class="st0" d="M2180.2,172.6l139.2,0.3c1.3,0,2.7,0.1,4,0.2c1.3,0.1,2.6,0.3,3.9,0.6c1.3,0.3,2.6,0.6,3.8,1
	c1.3,0.4,2.5,0.8,3.7,1.3s2.4,1.1,3.6,1.7c1.2,0.6,2.3,1.3,3.4,2c1.1,0.7,2.2,1.5,3.2,2.4c1,0.8,2,1.7,2.9,2.7
	c0.9,0.9,1.8,1.9,2.7,3c0.8,1,1.6,2.1,2.4,3.2c0.7,1.1,1.4,2.2,2,3.4c0.6,1.2,1.2,2.4,1.7,3.6c0.5,1.2,0.9,2.5,1.3,3.7
	c0.4,1.3,0.7,2.6,1,3.9c0.3,1.3,0.4,2.6,0.6,3.9c0.1,1.3,0.2,2.6,0.2,4c0,1.3-0.1,2.6-0.2,4c-0.1,1.3-0.3,2.6-0.6,3.9
	c-0.3,1.3-0.6,2.6-1,3.9c-0.4,1.3-0.8,2.5-1.3,3.7c-0.5,1.2-1.1,2.4-1.7,3.6c-0.6,1.2-1.3,2.3-2,3.4c-0.7,1.1-1.5,2.2-2.4,3.2
	c-0.8,1-1.7,2-2.7,2.9c-0.9,0.9-1.9,1.8-3,2.7c-1,0.8-2.1,1.6-3.2,2.4c-1.1,0.7-2.2,1.4-3.4,2c-1.2,0.6-2.4,1.2-3.6,1.7
	c-1.2,0.5-2.5,0.9-3.7,1.3c-1.3,0.4-2.6,0.7-3.9,1c-1.3,0.3-2.6,0.4-3.9,0.6c-1.3,0.1-2.6,0.2-4,0.2l-139.2-0.3
	c-1.3,0-2.7-0.1-4-0.2c-1.3-0.1-2.6-0.3-3.9-0.6c-1.3-0.3-2.6-0.6-3.8-1c-1.3-0.4-2.5-0.8-3.7-1.3c-1.2-0.5-2.4-1.1-3.6-1.7
	c-1.2-0.6-2.3-1.3-3.4-2.1c-1.1-0.7-2.2-1.5-3.2-2.4c-1-0.8-2-1.7-2.9-2.7c-0.9-0.9-1.8-1.9-2.7-2.9c-0.8-1-1.6-2.1-2.4-3.2
	s-1.4-2.2-2-3.4c-0.6-1.2-1.2-2.4-1.7-3.6c-0.5-1.2-0.9-2.5-1.3-3.7c-0.4-1.3-0.7-2.6-1-3.9c-0.3-1.3-0.4-2.6-0.6-3.9
	c-0.1-1.3-0.2-2.6-0.2-4c0-1.3,0.1-2.7,0.2-4c0.1-1.3,0.3-2.6,0.6-3.9c0.3-1.3,0.6-2.6,1-3.9c0.4-1.3,0.8-2.5,1.3-3.7
	c0.5-1.2,1.1-2.4,1.7-3.6c0.6-1.2,1.3-2.3,2-3.4c0.7-1.1,1.5-2.2,2.4-3.2c0.8-1,1.7-2,2.7-2.9c0.9-0.9,1.9-1.8,3-2.7
	c1-0.8,2.1-1.6,3.2-2.4c1.1-0.7,2.2-1.4,3.4-2c1.2-0.6,2.4-1.2,3.6-1.7c1.2-0.5,2.5-0.9,3.7-1.3s2.6-0.7,3.9-1
	c1.3-0.3,2.6-0.4,3.9-0.6C2177.5,172.7,2178.8,172.6,2180.2,172.6z"/>
<path class="st2" d="M718.1,56.1H483"/>
<path class="st2" d="M718.1,374.5H483"/>
<path class="st2" d="M614.8,213.3H483"/>
<path class="st2" d="M315.4,375.9h-235"/>
<path class="st2" d="M77.4,294.8v80.6"/>
<path class="st2" d="M83.5,52.3h235"/>
<path class="st2" d="M318.4,136.8V53"/>
<path class="st2" d="M882.7,371.5L883.6,53"/>
<path class="st2" d="M967.2,56.3h-81.5"/>
<path class="st2" d="M1125,56.1l-0.9,318.5"/>
<path class="st2" d="M1037,375.3l87.5,0"/>
<path class="st2" d="M1529.5,52.3h-157.7"/>
<path class="st2" d="M1529.5,375.9h-157.7"/>
<path class="st2" d="M1369.7,52.7l-81.2,168.7"/>
<path class="st2" d="M1288.7,226.7l80.9,149.1"/>
<path class="st0" d="M1952.3,94.2L1791.4,94c-1.3,0-2.7-0.1-4-0.2c-1.3-0.1-2.6-0.3-3.9-0.6c-1.3-0.3-2.6-0.6-3.9-1
	c-1.3-0.4-2.5-0.8-3.7-1.3c-1.2-0.5-2.4-1.1-3.6-1.7c-1.2-0.6-2.3-1.3-3.4-2.1c-1.1-0.7-2.2-1.5-3.2-2.4c-1-0.8-2-1.7-2.9-2.7
	c-0.9-0.9-1.8-1.9-2.7-2.9c-0.8-1-1.6-2.1-2.4-3.2c-0.7-1.1-1.4-2.2-2-3.4c-0.6-1.2-1.2-2.4-1.7-3.6c-0.5-1.2-1-2.5-1.3-3.7
	c-0.4-1.3-0.7-2.6-1-3.9c-0.3-1.3-0.5-2.6-0.6-3.9c-0.1-1.3-0.2-2.6-0.2-4c0-1.3,0.1-2.7,0.2-4c0.1-1.3,0.3-2.6,0.6-3.9
	c0.3-1.3,0.6-2.6,1-3.9c0.4-1.3,0.8-2.5,1.3-3.7c0.5-1.2,1.1-2.4,1.7-3.6c0.6-1.2,1.3-2.3,2-3.4c0.7-1.1,1.5-2.2,2.4-3.2
	c0.8-1,1.7-2,2.7-2.9s1.9-1.8,2.9-2.7c1-0.8,2.1-1.6,3.2-2.4s2.2-1.4,3.4-2s2.4-1.2,3.6-1.7c1.2-0.5,2.5-1,3.7-1.3
	c1.3-0.4,2.6-0.7,3.9-1c1.3-0.3,2.6-0.5,3.9-0.6c1.3-0.1,2.6-0.2,4-0.2l160.8,0.3c1.3,0,2.7,0.1,4,0.2c1.3,0.1,2.6,0.3,3.9,0.6
	c1.3,0.3,2.6,0.6,3.9,1c1.3,0.4,2.5,0.8,3.7,1.3c1.2,0.5,2.4,1.1,3.6,1.7c1.2,0.6,2.3,1.3,3.4,2c1.1,0.7,2.2,1.5,3.2,2.4
	c1,0.8,2,1.7,2.9,2.7c0.9,0.9,1.8,1.9,2.7,3c0.8,1,1.6,2.1,2.4,3.2s1.4,2.2,2,3.4c0.6,1.2,1.2,2.4,1.7,3.6c0.5,1.2,0.9,2.5,1.3,3.7
	c0.4,1.3,0.7,2.6,1,3.9c0.3,1.3,0.4,2.6,0.6,3.9c0.1,1.3,0.2,2.6,0.2,4s-0.1,2.7-0.2,4c-0.1,1.3-0.3,2.6-0.6,3.9
	c-0.3,1.3-0.6,2.6-1,3.9c-0.4,1.3-0.8,2.5-1.3,3.7c-0.5,1.2-1.1,2.4-1.7,3.6c-0.6,1.2-1.3,2.3-2,3.4c-0.7,1.1-1.5,2.2-2.4,3.2
	c-0.8,1-1.7,2-2.7,2.9c-0.9,0.9-1.9,1.8-2.9,2.7c-1,0.8-2.1,1.6-3.2,2.4c-1.1,0.7-2.2,1.4-3.4,2c-1.2,0.6-2.4,1.2-3.6,1.7
	c-1.2,0.5-2.5,0.9-3.7,1.3c-1.3,0.4-2.6,0.7-3.9,1c-1.3,0.3-2.6,0.4-3.9,0.6C1954.9,94.2,1953.6,94.2,1952.3,94.2z"/>
<path class="st0" d="M1952.3,416.4l-160.8-0.1c-1.3,0-2.7-0.1-4-0.2c-1.3-0.1-2.6-0.3-3.9-0.6c-1.3-0.3-2.6-0.6-3.9-1
	c-1.3-0.4-2.5-0.8-3.7-1.3c-1.2-0.5-2.4-1.1-3.6-1.7c-1.2-0.6-2.3-1.3-3.4-2c-1.1-0.7-2.2-1.5-3.2-2.4c-1-0.8-2-1.7-2.9-2.7
	s-1.8-1.9-2.7-2.9c-0.8-1-1.6-2.1-2.4-3.2c-0.7-1.1-1.4-2.2-2-3.4c-0.6-1.2-1.2-2.4-1.7-3.6c-0.5-1.2-1-2.5-1.3-3.7
	c-0.4-1.3-0.7-2.6-1-3.9c-0.3-1.3-0.4-2.6-0.6-3.9c-0.1-1.3-0.2-2.6-0.2-4s0.1-2.7,0.2-4c0.1-1.3,0.3-2.6,0.6-3.9
	c0.3-1.3,0.6-2.6,1-3.9c0.4-1.3,0.8-2.5,1.3-3.7c0.5-1.2,1.1-2.4,1.7-3.6c0.6-1.2,1.3-2.3,2-3.4c0.7-1.1,1.5-2.2,2.4-3.2
	s1.7-2,2.7-2.9c0.9-0.9,1.9-1.8,2.9-2.7c1-0.8,2.1-1.6,3.2-2.4c1.1-0.7,2.2-1.4,3.4-2c1.2-0.6,2.4-1.2,3.6-1.7
	c1.2-0.5,2.5-1,3.7-1.3c1.3-0.4,2.6-0.7,3.9-1c1.3-0.3,2.6-0.5,3.9-0.6c1.3-0.1,2.6-0.2,4-0.2l160.8,0.1c1.3,0,2.7,0.1,4,0.2
	c1.3,0.1,2.6,0.3,3.9,0.6c1.3,0.3,2.6,0.6,3.9,1c1.3,0.4,2.5,0.8,3.7,1.3c1.2,0.5,2.4,1.1,3.6,1.7c1.2,0.6,2.3,1.3,3.4,2
	c1.1,0.7,2.2,1.5,3.2,2.4s2,1.7,2.9,2.7s1.8,1.9,2.7,2.9c0.8,1,1.6,2.1,2.4,3.2c0.7,1.1,1.4,2.2,2,3.4s1.2,2.4,1.7,3.6
	c0.5,1.2,0.9,2.5,1.3,3.7c0.4,1.3,0.7,2.6,1,3.9c0.3,1.3,0.5,2.6,0.6,3.9c0.1,1.3,0.2,2.6,0.2,4c0,1.3-0.1,2.6-0.2,4
	c-0.1,1.3-0.3,2.6-0.6,3.9c-0.3,1.3-0.6,2.6-1,3.9c-0.4,1.3-0.8,2.5-1.3,3.7c-0.5,1.2-1.1,2.4-1.7,3.6c-0.6,1.2-1.3,2.3-2,3.4
	c-0.7,1.1-1.5,2.2-2.4,3.2c-0.8,1-1.7,2-2.7,2.9s-1.9,1.8-2.9,2.7c-1,0.8-2.1,1.6-3.2,2.4c-1.1,0.7-2.2,1.4-3.4,2s-2.4,1.2-3.6,1.7
	c-1.2,0.5-2.5,1-3.7,1.3c-1.3,0.4-2.6,0.7-3.9,1c-1.3,0.3-2.6,0.5-3.9,0.6C1955,416.4,1953.7,416.4,1952.3,416.4z"/>
<path class="st0" d="M2064.7,220.7l-76.5,171c-0.5,1.2-1.1,2.4-1.8,3.5c-0.7,1.2-1.4,2.3-2.1,3.3c-0.8,1.1-1.6,2.1-2.5,3.1
	c-0.9,1-1.8,2-2.8,2.9c-1,0.9-2,1.8-3,2.6c-1.1,0.8-2.1,1.6-3.3,2.3c-1.1,0.7-2.3,1.4-3.5,1.9s-2.4,1.1-3.6,1.6
	c-1.2,0.5-2.5,0.9-3.8,1.2c-1.3,0.3-2.6,0.6-3.9,0.9c-1.3,0.2-2.6,0.4-3.9,0.5c-1.3,0.1-2.6,0.1-4,0.1c-1.3,0-2.6-0.1-4-0.3
	c-1.3-0.2-2.6-0.4-3.9-0.7c-1.3-0.3-2.6-0.7-3.8-1.1c-1.3-0.4-2.5-0.9-3.7-1.4c-1.2-0.5-2.4-1.1-3.5-1.8c-1.2-0.7-2.3-1.4-3.3-2.1
	c-1.1-0.8-2.1-1.6-3.1-2.5c-1-0.9-2-1.8-2.9-2.8c-0.9-1-1.8-2-2.6-3c-0.8-1-1.6-2.1-2.3-3.3c-0.7-1.1-1.4-2.3-1.9-3.5
	c-0.6-1.2-1.1-2.4-1.6-3.6c-0.5-1.2-0.9-2.5-1.2-3.8c-0.3-1.3-0.6-2.6-0.9-3.9c-0.2-1.3-0.4-2.6-0.5-3.9c-0.1-1.3-0.1-2.6-0.1-4
	c0-1.3,0.1-2.6,0.3-4c0.2-1.3,0.4-2.6,0.7-3.9c0.3-1.3,0.7-2.6,1.1-3.8c0.4-1.3,0.9-2.5,1.4-3.7l76.5-171c0.5-1.2,1.1-2.4,1.8-3.5
	c0.7-1.2,1.4-2.3,2.1-3.3c0.8-1.1,1.6-2.1,2.5-3.1c0.9-1,1.8-2,2.8-2.9c1-0.9,2-1.8,3-2.6c1.1-0.8,2.1-1.6,3.3-2.3
	c1.1-0.7,2.3-1.4,3.5-1.9s2.4-1.1,3.6-1.6c1.2-0.5,2.5-0.9,3.8-1.2c1.3-0.3,2.6-0.6,3.9-0.9c1.3-0.2,2.6-0.4,3.9-0.5s2.6-0.1,4-0.1
	c1.3,0,2.6,0.1,4,0.3c1.3,0.2,2.6,0.4,3.9,0.7c1.3,0.3,2.6,0.7,3.8,1.1c1.3,0.4,2.5,0.9,3.7,1.4c1.2,0.5,2.4,1.1,3.5,1.8
	c1.2,0.7,2.3,1.4,3.3,2.1c1.1,0.8,2.1,1.6,3.1,2.5c1,0.9,2,1.8,2.9,2.8c0.9,1,1.8,2,2.6,3s1.6,2.1,2.3,3.3c0.7,1.1,1.4,2.3,1.9,3.5
	c0.6,1.2,1.1,2.4,1.6,3.6c0.5,1.2,0.9,2.5,1.2,3.8c0.3,1.3,0.6,2.6,0.9,3.9c0.2,1.3,0.4,2.6,0.5,3.9c0.1,1.3,0.1,2.6,0.1,4
	c0,1.3-0.1,2.6-0.3,4c-0.2,1.3-0.4,2.6-0.7,3.9c-0.3,1.3-0.7,2.6-1.1,3.8C2065.7,218.3,2065.2,219.5,2064.7,220.7z"/>
<path class="st0" d="M1989.9,219.6l-73.3-146c-0.6-1.2-1.1-2.4-1.6-3.6c-0.5-1.2-0.9-2.5-1.2-3.8c-0.3-1.3-0.6-2.6-0.9-3.9
	c-0.2-1.3-0.4-2.6-0.5-3.9c-0.1-1.3-0.1-2.6-0.1-4c0-1.3,0.1-2.6,0.3-4c0.2-1.3,0.4-2.6,0.7-3.9c0.3-1.3,0.7-2.6,1.1-3.8
	c0.4-1.3,0.9-2.5,1.4-3.7c0.5-1.2,1.1-2.4,1.8-3.5c0.7-1.2,1.4-2.3,2.1-3.4c0.8-1.1,1.6-2.1,2.5-3.1c0.9-1,1.8-2,2.7-2.9
	c1-0.9,2-1.8,3-2.6c1-0.8,2.1-1.6,3.2-2.3c1.1-0.7,2.3-1.4,3.5-2c1.2-0.6,2.4-1.1,3.6-1.6c1.2-0.5,2.5-0.9,3.8-1.2
	c1.3-0.3,2.6-0.6,3.9-0.9c1.3-0.2,2.6-0.4,3.9-0.5c1.3-0.1,2.6-0.1,4-0.1c1.3,0,2.7,0.1,4,0.3c1.3,0.2,2.6,0.4,3.9,0.7
	c1.3,0.3,2.6,0.7,3.8,1.1c1.3,0.4,2.5,0.9,3.7,1.4c1.2,0.5,2.4,1.1,3.5,1.8s2.3,1.4,3.4,2.1c1.1,0.8,2.1,1.6,3.1,2.4
	c1,0.9,2,1.8,2.9,2.7c0.9,1,1.8,2,2.6,3c0.8,1,1.6,2.1,2.3,3.2s1.4,2.3,2,3.5l73.3,146c0.6,1.2,1.1,2.4,1.6,3.6
	c0.5,1.2,0.9,2.5,1.2,3.8c0.3,1.3,0.6,2.6,0.9,3.9s0.4,2.6,0.5,3.9c0.1,1.3,0.1,2.6,0.1,4c0,1.3-0.1,2.6-0.3,4
	c-0.2,1.3-0.4,2.6-0.7,3.9c-0.3,1.3-0.7,2.6-1.1,3.8c-0.4,1.3-0.9,2.5-1.4,3.7c-0.5,1.2-1.1,2.4-1.8,3.5c-0.7,1.2-1.4,2.3-2.1,3.4
	s-1.6,2.1-2.4,3.1c-0.9,1-1.8,2-2.7,2.9c-1,0.9-2,1.8-3,2.6c-1,0.8-2.1,1.6-3.3,2.3c-1.1,0.7-2.3,1.4-3.5,2
	c-1.2,0.6-2.4,1.1-3.6,1.6c-1.2,0.5-2.5,0.9-3.8,1.2c-1.3,0.3-2.6,0.6-3.9,0.9c-1.3,0.2-2.6,0.4-3.9,0.5c-1.3,0.1-2.7,0.1-4,0.1
	c-1.3,0-2.7-0.1-4-0.3c-1.3-0.2-2.6-0.4-3.9-0.7c-1.3-0.3-2.6-0.7-3.8-1.1c-1.3-0.4-2.5-0.9-3.7-1.4c-1.2-0.5-2.4-1.1-3.5-1.8
	c-1.2-0.7-2.3-1.4-3.4-2.1c-1.1-0.8-2.1-1.6-3.1-2.4c-1-0.9-2-1.8-2.9-2.7c-0.9-1-1.8-2-2.6-3c-0.8-1-1.6-2.1-2.3-3.2
	C1991.2,222,1990.5,220.8,1989.9,219.6z"/>
<path class="st2" d="M1789.5,376.4h157.7"/>
<path class="st2" d="M1789.5,52.9h157.7"/>
<path class="st2" d="M1949.2,376.1l81.2-171.2"/>
<path class="st2" d="M2030.3,205.3l-81-152.2"/>
<path class="st2" d="M2421.5,53.4h-235"/>
<path class="st2" d="M2421.5,371.7h-235"/>
<path class="st2" d="M2318.3,210.5h-131.8"/>
<g>
	<defs>
		<rect id="SVGID_1_" x="312.5" y="46.5" width="11.8" height="11.8"/>
	</defs>
	<clipPath id="SVGID_00000152235789301879146940000003304105272831758492_">
		<use xlink:href="#SVGID_1_"  style="overflow:visible;"/>
	</clipPath>
	<g style="clip-path:url(#SVGID_00000152235789301879146940000003304105272831758492_);">
		<g>
			<defs>
				<circle id="SVGID_00000078034911775264808680000002748744247317478073_" cx="318.4" cy="52.3" r="5.9"/>
			</defs>
			<clipPath id="SVGID_00000032629516381420131400000002435406607755054475_">
				<use xlink:href="#SVGID_00000078034911775264808680000002748744247317478073_"  style="overflow:visible;"/>
			</clipPath>
			<g style="clip-path:url(#SVGID_00000032629516381420131400000002435406607755054475_);">
				<g transform="matrix(1, 0, 0, 1, 234, 343)">
					<g>
						<defs>
							<rect id="SVGID_00000177477443200583329980000003645758622183897781_" x="78.1" y="-297.3" width="13.3" height="13.3"/>
						</defs>
						<clipPath id="SVGID_00000018236643964531394810000004127006242448753082_">
							<use xlink:href="#SVGID_00000177477443200583329980000003645758622183897781_"  style="overflow:visible;"/>
						</clipPath>
						<g style="clip-path:url(#SVGID_00000018236643964531394810000004127006242448753082_);">
							<g>
								<defs>
									<rect id="SVGID_00000060727844507743602640000009271220130045622692_" x="78.5" y="-296.5" width="11.8" height="11.8"/>
								</defs>
								<clipPath id="SVGID_00000109708747361073620630000004345173317296645013_">
									<use xlink:href="#SVGID_00000060727844507743602640000009271220130045622692_"  style="overflow:visible;"/>
								</clipPath>
								<g style="clip-path:url(#SVGID_00000109708747361073620630000004345173317296645013_);">
									<g>
										<defs>
											<circle id="SVGID_00000013912488937441037290000000725552270916208060_" cx="84.4" cy="-290.7" r="5.9"/>
										</defs>
										<clipPath id="SVGID_00000047040880810393041950000017037662378359429792_">
											<use xlink:href="#SVGID_00000013912488937441037290000000725552270916208060_"  style="overflow:visible;"/>
										</clipPath>
										<g style="clip-path:url(#SVGID_00000047040880810393041950000017037662378359429792_);">
											<path class="st1" d="M78.5-296.5h11.8v11.8H78.5V-296.5z"/>
										</g>
									</g>
								</g>
							</g>
						</g>
					</g>
				</g>
			</g>
		</g>
	</g>
</g>
<g>
	<defs>
		<rect id="SVGID_00000033343149714370549750000017511699262521377166_" x="71.5" y="369.5" width="11.7" height="11.7"/>
	</defs>
	<clipPath id="SVGID_00000130636231740572221010000010897987344112317372_">
		<use xlink:href="#SVGID_00000033343149714370549750000017511699262521377166_"  style="overflow:visible;"/>
	</clipPath>
	<g style="clip-path:url(#SVGID_00000130636231740572221010000010897987344112317372_);">
		<g>
			<defs>
				<path id="SVGID_00000176030820534052210710000013744573922339193262_" d="M77.4,369.5c-3.2,0-5.9,2.6-5.9,5.9
					c0,3.2,2.6,5.9,5.9,5.9c3.2,0,5.9-2.6,5.9-5.9C83.3,372.2,80.6,369.5,77.4,369.5z"/>
			</defs>
			<clipPath id="SVGID_00000086675088935051278370000002813465421800453769_">
				<use xlink:href="#SVGID_00000176030820534052210710000013744573922339193262_"  style="overflow:visible;"/>
			</clipPath>
			<g style="clip-path:url(#SVGID_00000086675088935051278370000002813465421800453769_);">
				<g transform="matrix(1, 0, 0, 1, 53, 585)">
					<g>
						<defs>
							<rect id="SVGID_00000119088517780932455270000002770815764653292455_" x="17.7" y="-216.6" width="13.3" height="13.3"/>
						</defs>
						<clipPath id="SVGID_00000140003166554190195250000018154585782321410990_">
							<use xlink:href="#SVGID_00000119088517780932455270000002770815764653292455_"  style="overflow:visible;"/>
						</clipPath>
						<g style="clip-path:url(#SVGID_00000140003166554190195250000018154585782321410990_);">
							<g>
								<defs>
									<rect id="SVGID_00000158014083028409280240000003980239984653656714_" x="18.5" y="-215.5" width="11.7" height="11.7"/>
								</defs>
								<clipPath id="SVGID_00000002360718829930873590000014574747071967954864_">
									<use xlink:href="#SVGID_00000158014083028409280240000003980239984653656714_"  style="overflow:visible;"/>
								</clipPath>
								<g style="clip-path:url(#SVGID_00000002360718829930873590000014574747071967954864_);">
									<g>
										<defs>
											<path id="SVGID_00000064319195564356730850000008751399736539240894_" d="M24.4-215.5c-3.2,0-5.9,2.6-5.9,5.9
												c0,3.2,2.6,5.9,5.9,5.9c3.2,0,5.9-2.6,5.9-5.9C30.3-212.8,27.6-215.5,24.4-215.5z"/>
										</defs>
										<clipPath id="SVGID_00000094587237269481733430000012948352260682432422_">
											<use xlink:href="#SVGID_00000064319195564356730850000008751399736539240894_"  style="overflow:visible;"/>
										</clipPath>
										<g style="clip-path:url(#SVGID_00000094587237269481733430000012948352260682432422_);">
											<path class="st1" d="M18.5-215.5h11.7v11.7H18.5V-215.5z"/>
										</g>
									</g>
								</g>
							</g>
						</g>
					</g>
				</g>
			</g>
		</g>
	</g>
</g>
<g>
	<defs>
		<rect id="SVGID_00000178183332331011606980000016913966795685201826_" x="709.3" y="368.6" width="11.7" height="11.8"/>
	</defs>
	<clipPath id="SVGID_00000065063002340172084350000015129372625249355431_">
		<use xlink:href="#SVGID_00000178183332331011606980000016913966795685201826_"  style="overflow:visible;"/>
	</clipPath>
	<g style="clip-path:url(#SVGID_00000065063002340172084350000015129372625249355431_);">
		<g>
			<defs>
				<path id="SVGID_00000167372390736151843950000006115021579436063922_" d="M715.2,368.6c-3.2,0-5.9,2.6-5.9,5.9
					c0,3.2,2.6,5.9,5.9,5.9c3.2,0,5.9-2.6,5.9-5.9C721.1,371.2,718.4,368.6,715.2,368.6z"/>
			</defs>
			<clipPath id="SVGID_00000041282471299058961830000015001902925183926660_">
				<use xlink:href="#SVGID_00000167372390736151843950000006115021579436063922_"  style="overflow:visible;"/>
			</clipPath>
			<g style="clip-path:url(#SVGID_00000041282471299058961830000015001902925183926660_);">
				<g transform="matrix(1, 0, 0, 1, 531, 585)">
					<g>
						<defs>
							<rect id="SVGID_00000053538981103069913860000011592316071947330996_" x="177.1" y="-216.6" width="13.3" height="12"/>
						</defs>
						<clipPath id="SVGID_00000093139362482326966010000018154144870049725590_">
							<use xlink:href="#SVGID_00000053538981103069913860000011592316071947330996_"  style="overflow:visible;"/>
						</clipPath>
						<g style="clip-path:url(#SVGID_00000093139362482326966010000018154144870049725590_);">
							<g>
								<defs>
									<rect id="SVGID_00000103943351710972172300000010602294555677190813_" x="178.3" y="-216.4" width="11.7" height="11.8"/>
								</defs>
								<clipPath id="SVGID_00000155838232648386766670000002559812314199239316_">
									<use xlink:href="#SVGID_00000103943351710972172300000010602294555677190813_"  style="overflow:visible;"/>
								</clipPath>
								<g style="clip-path:url(#SVGID_00000155838232648386766670000002559812314199239316_);">
									<g>
										<defs>
											<path id="SVGID_00000106144497194030657130000017126080722746490555_" d="M184.2-216.4c-3.2,0-5.9,2.6-5.9,5.9
												c0,3.2,2.6,5.9,5.9,5.9c3.2,0,5.9-2.6,5.9-5.9C190.1-213.8,187.4-216.4,184.2-216.4z"/>
										</defs>
										<clipPath id="SVGID_00000075850073002430771210000017681018058278401711_">
											<use xlink:href="#SVGID_00000106144497194030657130000017126080722746490555_"  style="overflow:visible;"/>
										</clipPath>
										<g style="clip-path:url(#SVGID_00000075850073002430771210000017681018058278401711_);">
											<path class="st1" d="M178.3-216.4h11.7v11.8h-11.7V-216.4z"/>
										</g>
									</g>
								</g>
							</g>
						</g>
					</g>
				</g>
			</g>
		</g>
	</g>
</g>
<g>
	<defs>
		<rect id="SVGID_00000003824400478972520580000001907104843301520054_" x="709.3" y="50.4" width="11.7" height="11.8"/>
	</defs>
	<clipPath id="SVGID_00000174569313611908346480000006271429847458393238_">
		<use xlink:href="#SVGID_00000003824400478972520580000001907104843301520054_"  style="overflow:visible;"/>
	</clipPath>
	<g style="clip-path:url(#SVGID_00000174569313611908346480000006271429847458393238_);">
		<g>
			<defs>
				<path id="SVGID_00000020395902733615632490000017135507852956933014_" d="M715.2,50.4c-3.2,0-5.9,2.6-5.9,5.9s2.6,5.9,5.9,5.9
					c3.2,0,5.9-2.6,5.9-5.9S718.4,50.4,715.2,50.4z"/>
			</defs>
			<clipPath id="SVGID_00000028304948081210758940000012434737857042909605_">
				<use xlink:href="#SVGID_00000020395902733615632490000017135507852956933014_"  style="overflow:visible;"/>
			</clipPath>
			<g style="clip-path:url(#SVGID_00000028304948081210758940000012434737857042909605_);">
				<g transform="matrix(1, 0, 0, 1, 531, 346)">
					<g>
						<defs>
							<rect id="SVGID_00000019675271132925515010000002155427495803799689_" x="177.1" y="-296.3" width="13.3" height="13.3"/>
						</defs>
						<clipPath id="SVGID_00000029017161628899900440000000400249965568133041_">
							<use xlink:href="#SVGID_00000019675271132925515010000002155427495803799689_"  style="overflow:visible;"/>
						</clipPath>
						<g style="clip-path:url(#SVGID_00000029017161628899900440000000400249965568133041_);">
							<g>
								<defs>
									<rect id="SVGID_00000159449556311878789810000008842841564384290999_" x="178.3" y="-295.6" width="11.7" height="11.8"/>
								</defs>
								<clipPath id="SVGID_00000155109523703902508570000011052690378716994202_">
									<use xlink:href="#SVGID_00000159449556311878789810000008842841564384290999_"  style="overflow:visible;"/>
								</clipPath>
								<g style="clip-path:url(#SVGID_00000155109523703902508570000011052690378716994202_);">
									<g>
										<defs>
											<path id="SVGID_00000118387188093339830530000005459428296490750627_" d="M184.2-295.6c-3.2,0-5.9,2.6-5.9,5.9
												c0,3.2,2.6,5.9,5.9,5.9c3.2,0,5.9-2.6,5.9-5.9C190.1-293,187.4-295.6,184.2-295.6z"/>
										</defs>
										<clipPath id="SVGID_00000065778371165694584070000006582446401974051469_">
											<use xlink:href="#SVGID_00000118387188093339830530000005459428296490750627_"  style="overflow:visible;"/>
										</clipPath>
										<g style="clip-path:url(#SVGID_00000065778371165694584070000006582446401974051469_);">
											<path class="st1" d="M178.3-295.6h11.7v11.8h-11.7V-295.6z"/>
										</g>
									</g>
								</g>
							</g>
						</g>
					</g>
				</g>
			</g>
		</g>
	</g>
</g>
<g>
	<defs>
		<rect id="SVGID_00000158749253632448016080000012115153441807936182_" x="608.2" y="207.9" width="11.8" height="11.8"/>
	</defs>
	<clipPath id="SVGID_00000114786045242328790940000014028020718659580085_">
		<use xlink:href="#SVGID_00000158749253632448016080000012115153441807936182_"  style="overflow:visible;"/>
	</clipPath>
	<g style="clip-path:url(#SVGID_00000114786045242328790940000014028020718659580085_);">
		<g>
			<defs>
				<circle id="SVGID_00000021821773484324399400000016001227462728216204_" cx="614.1" cy="213.8" r="5.9"/>
			</defs>
			<clipPath id="SVGID_00000167395843664723124990000000215330795848511122_">
				<use xlink:href="#SVGID_00000021821773484324399400000016001227462728216204_"  style="overflow:visible;"/>
			</clipPath>
			<g style="clip-path:url(#SVGID_00000167395843664723124990000000215330795848511122_);">
				<g transform="matrix(1, 0, 0, 1, 456, 464)">
					<g>
						<defs>
							<rect id="SVGID_00000105416066213359624310000004110268643694761116_" x="152.1" y="-256.9" width="12" height="13.3"/>
						</defs>
						<clipPath id="SVGID_00000043453026449816004050000005337725778074503096_">
							<use xlink:href="#SVGID_00000105416066213359624310000004110268643694761116_"  style="overflow:visible;"/>
						</clipPath>
						<g style="clip-path:url(#SVGID_00000043453026449816004050000005337725778074503096_);">
							<g>
								<defs>
									<rect id="SVGID_00000142143388784865257320000001688502279262637741_" x="152.2" y="-256.1" width="11.8" height="11.8"/>
								</defs>
								<clipPath id="SVGID_00000103259314586266040160000003235826437159452351_">
									<use xlink:href="#SVGID_00000142143388784865257320000001688502279262637741_"  style="overflow:visible;"/>
								</clipPath>
								<g style="clip-path:url(#SVGID_00000103259314586266040160000003235826437159452351_);">
									<g>
										<defs>
											<circle id="SVGID_00000045599997995230502690000015200168335664873857_" cx="158.1" cy="-250.2" r="5.9"/>
										</defs>
										<clipPath id="SVGID_00000011747374754797212860000011369276210795224248_">
											<use xlink:href="#SVGID_00000045599997995230502690000015200168335664873857_"  style="overflow:visible;"/>
										</clipPath>
										<g style="clip-path:url(#SVGID_00000011747374754797212860000011369276210795224248_);">
											<path class="st1" d="M152.2-256.1h11.8v11.8h-11.8V-256.1z"/>
										</g>
									</g>
								</g>
							</g>
						</g>
					</g>
				</g>
			</g>
		</g>
	</g>
</g>
<g>
	<defs>
		<rect id="SVGID_00000019676695647536651100000003975311768048285611_" x="877.7" y="50.4" width="11.8" height="11.8"/>
	</defs>
	<clipPath id="SVGID_00000090264696724176651350000008629986371134325128_">
		<use xlink:href="#SVGID_00000019676695647536651100000003975311768048285611_"  style="overflow:visible;"/>
	</clipPath>
	<g style="clip-path:url(#SVGID_00000090264696724176651350000008629986371134325128_);">
		<g>
			<defs>
				<circle id="SVGID_00000092429139442796595720000003047727835922363319_" cx="883.6" cy="56.3" r="5.9"/>
			</defs>
			<clipPath id="SVGID_00000142862763069113276600000015593054863019534781_">
				<use xlink:href="#SVGID_00000092429139442796595720000003047727835922363319_"  style="overflow:visible;"/>
			</clipPath>
			<g style="clip-path:url(#SVGID_00000142862763069113276600000015593054863019534781_);">
				<g transform="matrix(1, 0, 0, 1, 658, 346)">
					<g>
						<defs>
							<rect id="SVGID_00000124150281703042407320000014775502814647097531_" x="219.4" y="-296.3" width="13.3" height="13.3"/>
						</defs>
						<clipPath id="SVGID_00000183213211609159563420000011008078328140173737_">
							<use xlink:href="#SVGID_00000124150281703042407320000014775502814647097531_"  style="overflow:visible;"/>
						</clipPath>
						<g style="clip-path:url(#SVGID_00000183213211609159563420000011008078328140173737_);">
							<g>
								<defs>
									<rect id="SVGID_00000135680224619478707590000017747587790084321416_" x="219.7" y="-295.6" width="11.8" height="11.8"/>
								</defs>
								<clipPath id="SVGID_00000002359443321484012810000010621520403382910092_">
									<use xlink:href="#SVGID_00000135680224619478707590000017747587790084321416_"  style="overflow:visible;"/>
								</clipPath>
								<g style="clip-path:url(#SVGID_00000002359443321484012810000010621520403382910092_);">
									<g>
										<defs>
											<circle id="SVGID_00000078737642292031690350000016717670487116995755_" cx="225.6" cy="-289.7" r="5.9"/>
										</defs>
										<clipPath id="SVGID_00000078763195286578429180000009896955165334028938_">
											<use xlink:href="#SVGID_00000078737642292031690350000016717670487116995755_"  style="overflow:visible;"/>
										</clipPath>
										<g style="clip-path:url(#SVGID_00000078763195286578429180000009896955165334028938_);">
											<path class="st1" d="M219.7-295.6h11.8v11.8h-11.8V-295.6z"/>
										</g>
									</g>
								</g>
							</g>
						</g>
					</g>
				</g>
			</g>
		</g>
	</g>
</g>
<g>
	<defs>
		<rect id="SVGID_00000055686261285901513700000008671600298423842453_" x="1118.3" y="368.6" width="11.8" height="11.8"/>
	</defs>
	<clipPath id="SVGID_00000093879590303742664180000001164888119613384586_">
		<use xlink:href="#SVGID_00000055686261285901513700000008671600298423842453_"  style="overflow:visible;"/>
	</clipPath>
	<g style="clip-path:url(#SVGID_00000093879590303742664180000001164888119613384586_);">
		<g>
			<defs>
				<circle id="SVGID_00000180345668490799927520000005334087731714891682_" cx="1124.1" cy="374.5" r="5.9"/>
			</defs>
			<clipPath id="SVGID_00000106133458526096094000000000695813778711453347_">
				<use xlink:href="#SVGID_00000180345668490799927520000005334087731714891682_"  style="overflow:visible;"/>
			</clipPath>
			<g style="clip-path:url(#SVGID_00000106133458526096094000000000695813778711453347_);">
				<g transform="matrix(1, 0, 0, 1, 838, 585)">
					<g>
						<defs>
							<rect id="SVGID_00000090286294665882875880000013613292239963435704_" x="279.4" y="-216.6" width="13.3" height="12"/>
						</defs>
						<clipPath id="SVGID_00000116940100093928721690000003610893347341263295_">
							<use xlink:href="#SVGID_00000090286294665882875880000013613292239963435704_"  style="overflow:visible;"/>
						</clipPath>
						<g style="clip-path:url(#SVGID_00000116940100093928721690000003610893347341263295_);">
							<g>
								<defs>
									<rect id="SVGID_00000147906583545272908520000000916375394429639553_" x="280.3" y="-216.4" width="11.8" height="11.8"/>
								</defs>
								<clipPath id="SVGID_00000095327153493169865530000013238118097174460572_">
									<use xlink:href="#SVGID_00000147906583545272908520000000916375394429639553_"  style="overflow:visible;"/>
								</clipPath>
								<g style="clip-path:url(#SVGID_00000095327153493169865530000013238118097174460572_);">
									<g>
										<defs>
											<circle id="SVGID_00000101788037685533324700000005199293173733485223_" cx="286.1" cy="-210.5" r="5.9"/>
										</defs>
										<clipPath id="SVGID_00000165937916532564746410000017369285074938187192_">
											<use xlink:href="#SVGID_00000101788037685533324700000005199293173733485223_"  style="overflow:visible;"/>
										</clipPath>
										<g style="clip-path:url(#SVGID_00000165937916532564746410000017369285074938187192_);">
											<path class="st1" d="M280.3-216.4H292v11.8h-11.8V-216.4z"/>
										</g>
									</g>
								</g>
							</g>
						</g>
					</g>
				</g>
			</g>
		</g>
	</g>
</g>
<g>
	<defs>
		<rect id="SVGID_00000172399253148086750930000009693710950797424569_" x="1282.6" y="218.2" width="11.7" height="11.7"/>
	</defs>
	<clipPath id="SVGID_00000127764233097753454130000004708031739648693947_">
		<use xlink:href="#SVGID_00000172399253148086750930000009693710950797424569_"  style="overflow:visible;"/>
	</clipPath>
	<g style="clip-path:url(#SVGID_00000127764233097753454130000004708031739648693947_);">
		<g>
			<defs>
				<path id="SVGID_00000143598317546193292380000012952727167972675495_" d="M1288.5,218.2c-3.2,0-5.9,2.6-5.9,5.9
					c0,3.2,2.6,5.9,5.9,5.9c3.2,0,5.9-2.6,5.9-5.9C1294.4,220.8,1291.7,218.2,1288.5,218.2z"/>
			</defs>
			<clipPath id="SVGID_00000158010219556747281270000014445040777906895286_">
				<use xlink:href="#SVGID_00000143598317546193292380000012952727167972675495_"  style="overflow:visible;"/>
			</clipPath>
			<g style="clip-path:url(#SVGID_00000158010219556747281270000014445040777906895286_);">
				<g transform="matrix(1, 0, 0, 1, 961, 472)">
					<g>
						<defs>
							<rect id="SVGID_00000165954016377619807880000000603141475864070332_" x="320.4" y="-254.3" width="13.3" height="13.3"/>
						</defs>
						<clipPath id="SVGID_00000085958748601111067160000011815386913763920818_">
							<use xlink:href="#SVGID_00000165954016377619807880000000603141475864070332_"  style="overflow:visible;"/>
						</clipPath>
						<g style="clip-path:url(#SVGID_00000085958748601111067160000011815386913763920818_);">
							<g>
								<defs>
									<rect id="SVGID_00000172430535464554380040000006681169349973166246_" x="321.6" y="-253.8" width="11.7" height="11.7"/>
								</defs>
								<clipPath id="SVGID_00000177480560174697851860000015630797038821797030_">
									<use xlink:href="#SVGID_00000172430535464554380040000006681169349973166246_"  style="overflow:visible;"/>
								</clipPath>
								<g style="clip-path:url(#SVGID_00000177480560174697851860000015630797038821797030_);">
									<g>
										<defs>
											<path id="SVGID_00000116921666322056628720000007612662996087425681_" d="M327.5-253.8c-3.2,0-5.9,2.6-5.9,5.9
												s2.6,5.9,5.9,5.9c3.2,0,5.9-2.6,5.9-5.9S330.7-253.8,327.5-253.8z"/>
										</defs>
										<clipPath id="SVGID_00000174573304114097412970000012896198551079688375_">
											<use xlink:href="#SVGID_00000116921666322056628720000007612662996087425681_"  style="overflow:visible;"/>
										</clipPath>
										<g style="clip-path:url(#SVGID_00000174573304114097412970000012896198551079688375_);">
											<path class="st1" d="M321.6-253.8h11.7v11.7h-11.7V-253.8z"/>
										</g>
									</g>
								</g>
							</g>
						</g>
					</g>
				</g>
			</g>
		</g>
	</g>
</g>
<g>
	<defs>
		<rect id="SVGID_00000093860050137102492110000003317747295519563940_" x="1942.1" y="46.5" width="11.7" height="11.8"/>
	</defs>
	<clipPath id="SVGID_00000032627114934357407880000012307351834996572830_">
		<use xlink:href="#SVGID_00000093860050137102492110000003317747295519563940_"  style="overflow:visible;"/>
	</clipPath>
	<g style="clip-path:url(#SVGID_00000032627114934357407880000012307351834996572830_);">
		<g>
			<defs>
				<path id="SVGID_00000142155220312636813350000008303259711876429473_" d="M1947.9,46.5c-3.2,0-5.9,2.6-5.9,5.9s2.6,5.9,5.9,5.9
					c3.2,0,5.9-2.6,5.9-5.9S1951.2,46.5,1947.9,46.5z"/>
			</defs>
			<clipPath id="SVGID_00000065062655816636503970000003885677683827187860_">
				<use xlink:href="#SVGID_00000142155220312636813350000008303259711876429473_"  style="overflow:visible;"/>
			</clipPath>
			<g style="clip-path:url(#SVGID_00000065062655816636503970000003885677683827187860_);">
				<g transform="matrix(1, 0, 0, 1, 1456, 343)">
					<g>
						<defs>
							<rect id="SVGID_00000005988610224145759590000012554482775299969426_" x="485.4" y="-297.3" width="13.3" height="13.3"/>
						</defs>
						<clipPath id="SVGID_00000050646092595013043690000016472728544567944852_">
							<use xlink:href="#SVGID_00000005988610224145759590000012554482775299969426_"  style="overflow:visible;"/>
						</clipPath>
						<g style="clip-path:url(#SVGID_00000050646092595013043690000016472728544567944852_);">
							<g>
								<defs>
									<rect id="SVGID_00000177442115447278647120000000348894451232573603_" x="486.1" y="-296.5" width="11.7" height="11.8"/>
								</defs>
								<clipPath id="SVGID_00000135666606185003359350000016819650932976630415_">
									<use xlink:href="#SVGID_00000177442115447278647120000000348894451232573603_"  style="overflow:visible;"/>
								</clipPath>
								<g style="clip-path:url(#SVGID_00000135666606185003359350000016819650932976630415_);">
									<g>
										<defs>
											<path id="SVGID_00000063595251638767972840000003539496813179105670_" d="M491.9-296.5c-3.2,0-5.9,2.6-5.9,5.9
												c0,3.2,2.6,5.9,5.9,5.9c3.2,0,5.9-2.6,5.9-5.9C497.8-293.9,495.2-296.5,491.9-296.5z"/>
										</defs>
										<clipPath id="SVGID_00000093882183161982435410000009812739094875545021_">
											<use xlink:href="#SVGID_00000063595251638767972840000003539496813179105670_"  style="overflow:visible;"/>
										</clipPath>
										<g style="clip-path:url(#SVGID_00000093882183161982435410000009812739094875545021_);">
											<path class="st1" d="M486.1-296.5h11.7v11.8h-11.7V-296.5z"/>
										</g>
									</g>
								</g>
							</g>
						</g>
					</g>
				</g>
			</g>
		</g>
	</g>
</g>
<g>
	<defs>
		<rect id="SVGID_00000101802580633210324560000016946269388196814473_" x="1942.1" y="369.5" width="11.7" height="11.7"/>
	</defs>
	<clipPath id="SVGID_00000147904721008138001550000000482062652235535750_">
		<use xlink:href="#SVGID_00000101802580633210324560000016946269388196814473_"  style="overflow:visible;"/>
	</clipPath>
	<g style="clip-path:url(#SVGID_00000147904721008138001550000000482062652235535750_);">
		<g>
			<defs>
				<path id="SVGID_00000016071867170475349560000008207286547555846577_" d="M1947.9,369.5c-3.2,0-5.9,2.6-5.9,5.9
					c0,3.2,2.6,5.9,5.9,5.9c3.2,0,5.9-2.6,5.9-5.9C1953.8,372.2,1951.2,369.5,1947.9,369.5z"/>
			</defs>
			<clipPath id="SVGID_00000138545110285800290280000011978666635017717143_">
				<use xlink:href="#SVGID_00000016071867170475349560000008207286547555846577_"  style="overflow:visible;"/>
			</clipPath>
			<g style="clip-path:url(#SVGID_00000138545110285800290280000011978666635017717143_);">
				<g transform="matrix(1, 0, 0, 1, 1456, 585)">
					<g>
						<defs>
							<rect id="SVGID_00000088093079610230971080000004421617741560633253_" x="485.4" y="-216.6" width="13.3" height="13.3"/>
						</defs>
						<clipPath id="SVGID_00000123429323933607072280000006058656283782485685_">
							<use xlink:href="#SVGID_00000088093079610230971080000004421617741560633253_"  style="overflow:visible;"/>
						</clipPath>
						<g style="clip-path:url(#SVGID_00000123429323933607072280000006058656283782485685_);">
							<g>
								<defs>
									<rect id="SVGID_00000137823930180948015780000012691259694830755490_" x="486.1" y="-215.5" width="11.7" height="11.7"/>
								</defs>
								<clipPath id="SVGID_00000088130815871328732820000004744136747520574600_">
									<use xlink:href="#SVGID_00000137823930180948015780000012691259694830755490_"  style="overflow:visible;"/>
								</clipPath>
								<g style="clip-path:url(#SVGID_00000088130815871328732820000004744136747520574600_);">
									<g>
										<defs>
											<path id="SVGID_00000119805034375027399210000009285484252899179183_" d="M491.9-215.5c-3.2,0-5.9,2.6-5.9,5.9
												c0,3.2,2.6,5.9,5.9,5.9c3.2,0,5.9-2.6,5.9-5.9C497.8-212.8,495.2-215.5,491.9-215.5z"/>
										</defs>
										<clipPath id="SVGID_00000127022737995423379070000007909062671739886014_">
											<use xlink:href="#SVGID_00000119805034375027399210000009285484252899179183_"  style="overflow:visible;"/>
										</clipPath>
										<g style="clip-path:url(#SVGID_00000127022737995423379070000007909062671739886014_);">
											<path class="st1" d="M486.1-215.5h11.7v11.7h-11.7V-215.5z"/>
										</g>
									</g>
								</g>
							</g>
						</g>
					</g>
				</g>
			</g>
		</g>
	</g>
</g>
<g>
	<defs>
		<rect id="SVGID_00000005954789105934627620000005355906997547311744_" x="2412.8" y="364.7" width="11.8" height="11.7"/>
	</defs>
	<clipPath id="SVGID_00000160897047425408197440000012529275894045689220_">
		<use xlink:href="#SVGID_00000005954789105934627620000005355906997547311744_"  style="overflow:visible;"/>
	</clipPath>
	<g style="clip-path:url(#SVGID_00000160897047425408197440000012529275894045689220_);">
		<g>
			<defs>
				<path id="SVGID_00000025428040760569749450000005342060640075094195_" d="M2418.7,364.7c-3.2,0-5.9,2.6-5.9,5.9
					c0,3.2,2.6,5.9,5.9,5.9c3.2,0,5.9-2.6,5.9-5.9C2424.5,367.3,2421.9,364.7,2418.7,364.7z"/>
			</defs>
			<clipPath id="SVGID_00000097470007209392980340000003398670866784786817_">
				<use xlink:href="#SVGID_00000025428040760569749450000005342060640075094195_"  style="overflow:visible;"/>
			</clipPath>
			<g style="clip-path:url(#SVGID_00000097470007209392980340000003398670866784786817_);">
				<g transform="matrix(1, 0, 0, 1, 1809, 582)">
					<g>
						<defs>
							<rect id="SVGID_00000067224638491315975380000013011890772803639473_" x="603.1" y="-217.6" width="13.3" height="12"/>
						</defs>
						<clipPath id="SVGID_00000174585579985257844660000004286742652985882813_">
							<use xlink:href="#SVGID_00000067224638491315975380000013011890772803639473_"  style="overflow:visible;"/>
						</clipPath>
						<g style="clip-path:url(#SVGID_00000174585579985257844660000004286742652985882813_);">
							<g>
								<defs>
									<rect id="SVGID_00000062901563017040400890000012464833271720107914_" x="603.8" y="-217.3" width="11.8" height="11.7"/>
								</defs>
								<clipPath id="SVGID_00000125598044300266725220000015198045608918669448_">
									<use xlink:href="#SVGID_00000062901563017040400890000012464833271720107914_"  style="overflow:visible;"/>
								</clipPath>
								<g style="clip-path:url(#SVGID_00000125598044300266725220000015198045608918669448_);">
									<g>
										<defs>
											<path id="SVGID_00000164489533325920148320000011905650745612301449_" d="M609.7-217.3c-3.2,0-5.9,2.6-5.9,5.9
												c0,3.2,2.6,5.9,5.9,5.9c3.2,0,5.9-2.6,5.9-5.9C615.5-214.7,612.9-217.3,609.7-217.3z"/>
										</defs>
										<clipPath id="SVGID_00000052069791612288819450000015457660612319596686_">
											<use xlink:href="#SVGID_00000164489533325920148320000011905650745612301449_"  style="overflow:visible;"/>
										</clipPath>
										<g style="clip-path:url(#SVGID_00000052069791612288819450000015457660612319596686_);">
											<path class="st1" d="M603.8-217.3h11.8v11.7h-11.8V-217.3z"/>
										</g>
									</g>
								</g>
							</g>
						</g>
					</g>
				</g>
			</g>
		</g>
	</g>
</g>
<g>
	<defs>
		<rect id="SVGID_00000016045436412307779870000007444459615525966526_" x="2412.8" y="46.5" width="11.8" height="11.8"/>
	</defs>
	<clipPath id="SVGID_00000124850126278284099250000000715478418382061721_">
		<use xlink:href="#SVGID_00000016045436412307779870000007444459615525966526_"  style="overflow:visible;"/>
	</clipPath>
	<g style="clip-path:url(#SVGID_00000124850126278284099250000000715478418382061721_);">
		<g>
			<defs>
				<circle id="SVGID_00000148634497656316428400000000577261259754333098_" cx="2418.7" cy="52.3" r="5.9"/>
			</defs>
			<clipPath id="SVGID_00000088134777632900140650000005838156338984442004_">
				<use xlink:href="#SVGID_00000148634497656316428400000000577261259754333098_"  style="overflow:visible;"/>
			</clipPath>
			<g style="clip-path:url(#SVGID_00000088134777632900140650000005838156338984442004_);">
				<g transform="matrix(1, 0, 0, 1, 1809, 343)">
					<g>
						<defs>
							<rect id="SVGID_00000037657380832166995490000010521772385657590974_" x="603.1" y="-297.3" width="13.3" height="13.3"/>
						</defs>
						<clipPath id="SVGID_00000083076659834284669230000003059612347723401353_">
							<use xlink:href="#SVGID_00000037657380832166995490000010521772385657590974_"  style="overflow:visible;"/>
						</clipPath>
						<g style="clip-path:url(#SVGID_00000083076659834284669230000003059612347723401353_);">
							<g>
								<defs>
									<rect id="SVGID_00000033366132574573558470000004894242097404585376_" x="603.8" y="-296.5" width="11.8" height="11.8"/>
								</defs>
								<clipPath id="SVGID_00000101797129952960609930000015227136468595863997_">
									<use xlink:href="#SVGID_00000033366132574573558470000004894242097404585376_"  style="overflow:visible;"/>
								</clipPath>
								<g style="clip-path:url(#SVGID_00000101797129952960609930000015227136468595863997_);">
									<g>
										<defs>
											<circle id="SVGID_00000081610931875552553930000013081898601156177587_" cx="609.7" cy="-290.7" r="5.9"/>
										</defs>
										<clipPath id="SVGID_00000036252502261821520750000010282840919117904803_">
											<use xlink:href="#SVGID_00000081610931875552553930000013081898601156177587_"  style="overflow:visible;"/>
										</clipPath>
										<g style="clip-path:url(#SVGID_00000036252502261821520750000010282840919117904803_);">
											<path class="st1" d="M603.8-296.5h11.8v11.8h-11.8V-296.5z"/>
										</g>
									</g>
								</g>
							</g>
						</g>
					</g>
				</g>
			</g>
		</g>
	</g>
</g>
<g>
	<defs>
		<rect id="SVGID_00000089532480113651075580000016308388645953014660_" x="2311.7" y="204" width="11.7" height="11.8"/>
	</defs>
	<clipPath id="SVGID_00000164473975470592138700000005830772460412284046_">
		<use xlink:href="#SVGID_00000089532480113651075580000016308388645953014660_"  style="overflow:visible;"/>
	</clipPath>
	<g style="clip-path:url(#SVGID_00000164473975470592138700000005830772460412284046_);">
		<g>
			<defs>
				<path id="SVGID_00000182515938338388502110000001124240514760877487_" d="M2317.5,204c-3.2,0-5.9,2.6-5.9,5.9
					c0,3.2,2.6,5.9,5.9,5.9c3.2,0,5.9-2.6,5.9-5.9C2323.4,206.6,2320.8,204,2317.5,204z"/>
			</defs>
			<clipPath id="SVGID_00000028309108045049058640000013981439145143563919_">
				<use xlink:href="#SVGID_00000182515938338388502110000001124240514760877487_"  style="overflow:visible;"/>
			</clipPath>
			<g style="clip-path:url(#SVGID_00000028309108045049058640000013981439145143563919_);">
				<g transform="matrix(1, 0, 0, 1, 1733, 461)">
					<g>
						<defs>
							<rect id="SVGID_00000047766643449968944340000003857048647540531888_" x="577.7" y="-257.9" width="13.3" height="13.3"/>
						</defs>
						<clipPath id="SVGID_00000041995688932923606880000014533261441407509928_">
							<use xlink:href="#SVGID_00000047766643449968944340000003857048647540531888_"  style="overflow:visible;"/>
						</clipPath>
						<g style="clip-path:url(#SVGID_00000041995688932923606880000014533261441407509928_);">
							<g>
								<defs>
									<rect id="SVGID_00000166678117097593411900000002294449388329397383_" x="578.7" y="-257" width="11.7" height="11.8"/>
								</defs>
								<clipPath id="SVGID_00000034072983724190108010000015775343631739466904_">
									<use xlink:href="#SVGID_00000166678117097593411900000002294449388329397383_"  style="overflow:visible;"/>
								</clipPath>
								<g style="clip-path:url(#SVGID_00000034072983724190108010000015775343631739466904_);">
									<g>
										<defs>
											<path id="SVGID_00000109739412117937473940000013301715087131801770_" d="M584.5-257c-3.2,0-5.9,2.6-5.9,5.9
												s2.6,5.9,5.9,5.9c3.2,0,5.9-2.6,5.9-5.9S587.8-257,584.5-257z"/>
										</defs>
										<clipPath id="SVGID_00000051371735182194674540000000480539335140037274_">
											<use xlink:href="#SVGID_00000109739412117937473940000013301715087131801770_"  style="overflow:visible;"/>
										</clipPath>
										<g style="clip-path:url(#SVGID_00000051371735182194674540000000480539335140037274_);">
											<path class="st1" d="M578.7-257h11.7v11.8h-11.7V-257z"/>
										</g>
									</g>
								</g>
							</g>
						</g>
					</g>
				</g>
			</g>
		</g>
	</g>
</g>
<g>
	<g transform="translate(74.043623, 827.833178)">
		<g>
			<path class="st1" d="M97.4-135.6V-192h-46v-14.5h46v-21.1h-69v55.8h46v15.2h-46v20.9H97.4z"/>
		</g>
	</g>
</g>
<g>
	<g transform="translate(213.798904, 827.833178)">
		<g>
			<path class="st1" d="M144-135.6v-91.9h-69v91.9H144z M121-156.6h-23v-49.9h23V-156.6z"/>
		</g>
	</g>
</g>
<g>
	<g transform="translate(353.657567, 827.833178)">
		<g>
			<path class="st1" d="M190.3-171.8V-192h-45.8v-14.5h45.8v-21.1h-68.8v91.9h23v-36.1H190.3z"/>
		</g>
	</g>
</g>
<g>
	<g transform="translate(493.309483, 827.833178)">
		<g>
			<path class="st1" d="M235.6-206.5v-21.1h-69v21.1h23.2v70.8h23v-70.8H235.6z"/>
		</g>
	</g>
</g>
<g>
	<g transform="translate(630.894089, 827.833178)">
		<g>
			<path class="st1" d="M304.4-135.6v-91.9h-23v71h-11.4v-71h-23v71h-11.4v-71h-23v21.1h4.5v70.8H304.4z"/>
		</g>
	</g>
</g>
<g>
	<g transform="translate(786.774245, 827.833178)">
		<g>
			<path class="st1" d="M335-135.6v-91.9h-69v91.9h23v-25.6h23v25.6H335z M312-182.2h-23v-24.3h23V-182.2z"/>
		</g>
	</g>
</g>
<g>
	<g transform="translate(926.632915, 827.833178)">
		<g>
			<path class="st1" d="M381.6-135.6l-13.5-25.6h13.5v-66.3h-69v91.9h23v-25.6h9.9l13.1,25.6H381.6z M358.6-182.2h-23v-24.3h23
				V-182.2z"/>
		</g>
	</g>
</g>
<g>
	<g transform="translate(1066.49154, 827.833178)">
		<g>
			<path class="st1" d="M427.9-135.6v-20.9h-45.8v-15.2h45.8V-192h-45.8v-14.5h45.8v-21.1h-68.8v91.9H427.9z"/>
		</g>
	</g>
</g>
<g>
	<g transform="translate(1206.143456, 827.833178)">
	</g>
</g>
<g>
	<g transform="translate(1325.019082, 827.833178)">
		<g>
			<path class="st1" d="M514.1-135.6v-20.9h-45.8v-71h-23v91.9H514.1z"/>
		</g>
	</g>
</g>
<g>
	<g transform="translate(1464.050855, 827.833178)">
		<g>
			<path class="st1" d="M560.7-135.6v-91.9h-69v91.9h23v-25.6h23v25.6H560.7z M537.7-182.2h-23v-24.3h23V-182.2z"/>
		</g>
	</g>
</g>
<g>
	<g transform="translate(1603.909481, 827.833178)">
		<g>
			<path class="st1" d="M607.3-135.6v-36.1l-10.2-10.1l10.2-10.2v-35.6h-69v91.9H607.3z M584.3-192h-23v-14.5h23V-192z M584.3-156.6
				h-23v-15.2h23V-156.6z"/>
		</g>
	</g>
</g>
<g>
	<g transform="translate(1743.768106, 827.833178)">
		<g>
			<path class="st1" d="M654-135.6V-192h-46v-14.5h46v-21.1h-69v55.8h46v15.2h-46v20.9H654z"/>
		</g>
	</g>
</g>
</svg>
