<svg xmlns="http://www.w3.org/2000/svg" xmlns:xlink="http://www.w3.org/1999/xlink" width="1000" zoomAndPan="magnify" viewBox="0 0 750 749.999995" height="1000" preserveAspectRatio="xMidYMid meet" version="1.0"><defs><clipPath id="b68c522c38"><path d="M 340.429688 194.515625 L 349.261719 194.515625 L 349.261719 203.347656 L 340.429688 203.347656 Z M 340.429688 194.515625 " clip-rule="nonzero"/></clipPath><clipPath id="25b1c8f416"><path d="M 344.84375 194.515625 C 342.40625 194.515625 340.429688 196.492188 340.429688 198.933594 C 340.429688 201.371094 342.40625 203.347656 344.84375 203.347656 C 347.285156 203.347656 349.261719 201.371094 349.261719 198.933594 C 349.261719 196.492188 347.285156 194.515625 344.84375 194.515625 Z M 344.84375 194.515625 " clip-rule="nonzero"/></clipPath><clipPath id="03107281e5"><path d="M 0.429688 0.515625 L 9.261719 0.515625 L 9.261719 9.347656 L 0.429688 9.347656 Z M 0.429688 0.515625 " clip-rule="nonzero"/></clipPath><clipPath id="578ab5bff4"><path d="M 4.84375 0.515625 C 2.40625 0.515625 0.429688 2.492188 0.429688 4.933594 C 0.429688 7.371094 2.40625 9.347656 4.84375 9.347656 C 7.285156 9.347656 9.261719 7.371094 9.261719 4.933594 C 9.261719 2.492188 7.285156 0.515625 4.84375 0.515625 Z M 4.84375 0.515625 " clip-rule="nonzero"/></clipPath><clipPath id="af7f8ab220"><rect x="0" width="10" y="0" height="10"/></clipPath><clipPath id="5dd09e9f63"><path d="M 201.261719 339.378906 L 210.09375 339.378906 L 210.09375 348.214844 L 201.261719 348.214844 Z M 201.261719 339.378906 " clip-rule="nonzero"/></clipPath><clipPath id="5e28d1e517"><path d="M 205.679688 339.378906 C 203.238281 339.378906 201.261719 341.359375 201.261719 343.796875 C 201.261719 346.238281 203.238281 348.214844 205.679688 348.214844 C 208.117188 348.214844 210.09375 346.238281 210.09375 343.796875 C 210.09375 341.359375 208.117188 339.378906 205.679688 339.378906 Z M 205.679688 339.378906 " clip-rule="nonzero"/></clipPath><clipPath id="779a9f6664"><path d="M 0.261719 0.378906 L 9.09375 0.378906 L 9.09375 9.214844 L 0.261719 9.214844 Z M 0.261719 0.378906 " clip-rule="nonzero"/></clipPath><clipPath id="30a7c36088"><path d="M 4.679688 0.378906 C 2.238281 0.378906 0.261719 2.359375 0.261719 4.796875 C 0.261719 7.238281 2.238281 9.214844 4.679688 9.214844 C 7.117188 9.214844 9.09375 7.238281 9.09375 4.796875 C 9.09375 2.359375 7.117188 0.378906 4.679688 0.378906 Z M 4.679688 0.378906 " clip-rule="nonzero"/></clipPath><clipPath id="2f466c7124"><rect x="0" width="10" y="0" height="10"/></clipPath><clipPath id="43cc559f7a"><path d="M 202.890625 400.363281 L 211.722656 400.363281 L 211.722656 409.199219 L 202.890625 409.199219 Z M 202.890625 400.363281 " clip-rule="nonzero"/></clipPath><clipPath id="2657d0d9ce"><path d="M 207.304688 400.363281 C 204.867188 400.363281 202.890625 402.34375 202.890625 404.78125 C 202.890625 407.222656 204.867188 409.199219 207.304688 409.199219 C 209.746094 409.199219 211.722656 407.222656 211.722656 404.78125 C 211.722656 402.34375 209.746094 400.363281 207.304688 400.363281 Z M 207.304688 400.363281 " clip-rule="nonzero"/></clipPath><clipPath id="d0fb777a48"><path d="M 0.890625 0.363281 L 9.722656 0.363281 L 9.722656 9.199219 L 0.890625 9.199219 Z M 0.890625 0.363281 " clip-rule="nonzero"/></clipPath><clipPath id="a2e14bb089"><path d="M 5.304688 0.363281 C 2.867188 0.363281 0.890625 2.34375 0.890625 4.78125 C 0.890625 7.222656 2.867188 9.199219 5.304688 9.199219 C 7.746094 9.199219 9.722656 7.222656 9.722656 4.78125 C 9.722656 2.34375 7.746094 0.363281 5.304688 0.363281 Z M 5.304688 0.363281 " clip-rule="nonzero"/></clipPath><clipPath id="fda070e40f"><rect x="0" width="10" y="0" height="10"/></clipPath><clipPath id="9eb9a29c52"><path d="M 340.753906 547.234375 L 349.589844 547.234375 L 349.589844 556.070312 L 340.753906 556.070312 Z M 340.753906 547.234375 " clip-rule="nonzero"/></clipPath><clipPath id="51590a3fbb"><path d="M 345.171875 547.234375 C 342.730469 547.234375 340.753906 549.210938 340.753906 551.652344 C 340.753906 554.089844 342.730469 556.070312 345.171875 556.070312 C 347.609375 556.070312 349.589844 554.089844 349.589844 551.652344 C 349.589844 549.210938 347.609375 547.234375 345.171875 547.234375 Z M 345.171875 547.234375 " clip-rule="nonzero"/></clipPath><clipPath id="91e2593d1a"><path d="M 0.753906 0.234375 L 9.589844 0.234375 L 9.589844 9.070312 L 0.753906 9.070312 Z M 0.753906 0.234375 " clip-rule="nonzero"/></clipPath><clipPath id="2878c828c1"><path d="M 5.171875 0.234375 C 2.730469 0.234375 0.753906 2.210938 0.753906 4.652344 C 0.753906 7.089844 2.730469 9.070312 5.171875 9.070312 C 7.609375 9.070312 9.589844 7.089844 9.589844 4.652344 C 9.589844 2.210938 7.609375 0.234375 5.171875 0.234375 Z M 5.171875 0.234375 " clip-rule="nonzero"/></clipPath><clipPath id="6ab6c4d074"><rect x="0" width="10" y="0" height="10"/></clipPath><clipPath id="c4bb42d775"><path d="M 481.277344 267.179688 L 490.109375 267.179688 L 490.109375 276.015625 L 481.277344 276.015625 Z M 481.277344 267.179688 " clip-rule="nonzero"/></clipPath><clipPath id="36cd6f15d9"><path d="M 485.691406 267.179688 C 483.253906 267.179688 481.277344 269.15625 481.277344 271.597656 C 481.277344 274.035156 483.253906 276.015625 485.691406 276.015625 C 488.132812 276.015625 490.109375 274.035156 490.109375 271.597656 C 490.109375 269.15625 488.132812 267.179688 485.691406 267.179688 Z M 485.691406 267.179688 " clip-rule="nonzero"/></clipPath><clipPath id="a75131710e"><path d="M 0.277344 0.179688 L 9.109375 0.179688 L 9.109375 9.015625 L 0.277344 9.015625 Z M 0.277344 0.179688 " clip-rule="nonzero"/></clipPath><clipPath id="c159cc91b9"><path d="M 4.691406 0.179688 C 2.253906 0.179688 0.277344 2.15625 0.277344 4.597656 C 0.277344 7.035156 2.253906 9.015625 4.691406 9.015625 C 7.132812 9.015625 9.109375 7.035156 9.109375 4.597656 C 9.109375 2.15625 7.132812 0.179688 4.691406 0.179688 Z M 4.691406 0.179688 " clip-rule="nonzero"/></clipPath><clipPath id="45e9358bf6"><rect x="0" width="10" y="0" height="10"/></clipPath><clipPath id="aa27cb9c50"><path d="M 541.042969 194.515625 L 549.878906 194.515625 L 549.878906 203.347656 L 541.042969 203.347656 Z M 541.042969 194.515625 " clip-rule="nonzero"/></clipPath><clipPath id="0890fb969f"><path d="M 545.460938 194.515625 C 543.019531 194.515625 541.042969 196.492188 541.042969 198.933594 C 541.042969 201.371094 543.019531 203.347656 545.460938 203.347656 C 547.898438 203.347656 549.878906 201.371094 549.878906 198.933594 C 549.878906 196.492188 547.898438 194.515625 545.460938 194.515625 Z M 545.460938 194.515625 " clip-rule="nonzero"/></clipPath><clipPath id="cb9ff63ff7"><path d="M 0.0429688 0.515625 L 8.878906 0.515625 L 8.878906 9.347656 L 0.0429688 9.347656 Z M 0.0429688 0.515625 " clip-rule="nonzero"/></clipPath><clipPath id="46b95d345d"><path d="M 4.460938 0.515625 C 2.019531 0.515625 0.0429688 2.492188 0.0429688 4.933594 C 0.0429688 7.371094 2.019531 9.347656 4.460938 9.347656 C 6.898438 9.347656 8.878906 7.371094 8.878906 4.933594 C 8.878906 2.492188 6.898438 0.515625 4.460938 0.515625 Z M 4.460938 0.515625 " clip-rule="nonzero"/></clipPath><clipPath id="51bf78499b"><rect x="0" width="9" y="0" height="10"/></clipPath><clipPath id="d85b3fec13"><path d="M 541.042969 339.378906 L 549.878906 339.378906 L 549.878906 348.214844 L 541.042969 348.214844 Z M 541.042969 339.378906 " clip-rule="nonzero"/></clipPath><clipPath id="867aaec045"><path d="M 545.460938 339.378906 C 543.019531 339.378906 541.042969 341.359375 541.042969 343.796875 C 541.042969 346.238281 543.019531 348.214844 545.460938 348.214844 C 547.898438 348.214844 549.878906 346.238281 549.878906 343.796875 C 549.878906 341.359375 547.898438 339.378906 545.460938 339.378906 Z M 545.460938 339.378906 " clip-rule="nonzero"/></clipPath><clipPath id="d7f88da4fa"><path d="M 0.0429688 0.378906 L 8.878906 0.378906 L 8.878906 9.214844 L 0.0429688 9.214844 Z M 0.0429688 0.378906 " clip-rule="nonzero"/></clipPath><clipPath id="3cd144643e"><path d="M 4.460938 0.378906 C 2.019531 0.378906 0.0429688 2.359375 0.0429688 4.796875 C 0.0429688 7.238281 2.019531 9.214844 4.460938 9.214844 C 6.898438 9.214844 8.878906 7.238281 8.878906 4.796875 C 8.878906 2.359375 6.898438 0.378906 4.460938 0.378906 Z M 4.460938 0.378906 " clip-rule="nonzero"/></clipPath><clipPath id="2fafa190b9"><rect x="0" width="9" y="0" height="10"/></clipPath></defs><path fill="#ebe1d8" d="M 208.019531 325.960938 L 343.617188 327.195312 C 344.207031 327.203125 344.796875 327.238281 345.382812 327.300781 C 345.96875 327.363281 346.550781 327.453125 347.128906 327.574219 C 347.703125 327.695312 348.273438 327.84375 348.835938 328.019531 C 349.398438 328.195312 349.953125 328.398438 350.496094 328.628906 C 351.035156 328.859375 351.566406 329.117188 352.085938 329.398438 C 352.601562 329.683594 353.105469 329.988281 353.589844 330.320312 C 354.078125 330.652344 354.546875 331.007812 355 331.386719 C 355.453125 331.765625 355.886719 332.164062 356.296875 332.585938 C 356.710938 333.003906 357.101562 333.445312 357.472656 333.90625 C 357.84375 334.363281 358.1875 334.839844 358.511719 335.332031 C 358.835938 335.824219 359.132812 336.332031 359.40625 336.855469 C 359.679688 337.378906 359.925781 337.914062 360.148438 338.460938 C 360.367188 339.007812 360.5625 339.5625 360.726562 340.128906 C 360.894531 340.695312 361.03125 341.265625 361.140625 341.847656 C 361.25 342.425781 361.332031 343.007812 361.382812 343.59375 C 361.4375 344.183594 361.460938 344.769531 361.453125 345.359375 C 361.449219 345.949219 361.414062 346.539062 361.351562 347.125 C 361.289062 347.710938 361.195312 348.292969 361.078125 348.867188 C 360.957031 349.445312 360.808594 350.015625 360.632812 350.578125 C 360.457031 351.140625 360.25 351.691406 360.019531 352.234375 C 359.789062 352.777344 359.535156 353.308594 359.25 353.824219 C 358.96875 354.34375 358.660156 354.84375 358.328125 355.332031 C 357.996094 355.820312 357.644531 356.289062 357.265625 356.742188 C 356.886719 357.195312 356.488281 357.625 356.066406 358.039062 C 355.644531 358.453125 355.207031 358.84375 354.746094 359.214844 C 354.289062 359.582031 353.8125 359.929688 353.320312 360.253906 C 352.824219 360.578125 352.316406 360.875 351.796875 361.148438 C 351.273438 361.421875 350.738281 361.667969 350.191406 361.886719 C 349.644531 362.109375 349.089844 362.300781 348.523438 362.46875 C 347.957031 362.632812 347.386719 362.773438 346.804688 362.882812 C 346.226562 362.992188 345.644531 363.074219 345.054688 363.125 C 344.46875 363.175781 343.878906 363.199219 343.292969 363.195312 L 207.691406 361.960938 C 207.101562 361.957031 206.515625 361.921875 205.929688 361.859375 C 205.34375 361.796875 204.761719 361.703125 204.183594 361.582031 C 203.605469 361.460938 203.039062 361.3125 202.476562 361.136719 C 201.914062 360.960938 201.359375 360.757812 200.816406 360.527344 C 200.273438 360.296875 199.746094 360.039062 199.226562 359.757812 C 198.710938 359.476562 198.207031 359.167969 197.71875 358.835938 C 197.234375 358.503906 196.761719 358.148438 196.3125 357.769531 C 195.859375 357.394531 195.425781 356.992188 195.011719 356.574219 C 194.601562 356.152344 194.207031 355.710938 193.839844 355.253906 C 193.46875 354.792969 193.121094 354.316406 192.800781 353.824219 C 192.476562 353.332031 192.179688 352.824219 191.90625 352.300781 C 191.632812 351.78125 191.386719 351.246094 191.164062 350.699219 C 190.945312 350.152344 190.75 349.59375 190.585938 349.03125 C 190.417969 348.464844 190.28125 347.890625 190.171875 347.3125 C 190.0625 346.734375 189.980469 346.148438 189.929688 345.5625 C 189.875 344.976562 189.851562 344.386719 189.855469 343.796875 C 189.863281 343.207031 189.898438 342.621094 189.960938 342.035156 C 190.023438 341.449219 190.113281 340.867188 190.234375 340.289062 C 190.355469 339.710938 190.503906 339.140625 190.679688 338.578125 C 190.855469 338.015625 191.058594 337.464844 191.289062 336.921875 C 191.519531 336.378906 191.777344 335.847656 192.058594 335.332031 C 192.34375 334.816406 192.648438 334.3125 192.980469 333.824219 C 193.3125 333.339844 193.667969 332.867188 194.046875 332.417969 C 194.425781 331.964844 194.824219 331.53125 195.246094 331.117188 C 195.664062 330.707031 196.105469 330.3125 196.566406 329.945312 C 197.023438 329.574219 197.5 329.226562 197.992188 328.90625 C 198.484375 328.582031 198.992188 328.285156 199.515625 328.011719 C 200.039062 327.738281 200.574219 327.492188 201.121094 327.269531 C 201.667969 327.050781 202.222656 326.855469 202.789062 326.691406 C 203.355469 326.523438 203.925781 326.386719 204.503906 326.277344 C 205.085938 326.167969 205.667969 326.085938 206.253906 326.03125 C 206.84375 325.980469 207.429688 325.957031 208.019531 325.960938 Z M 208.019531 325.960938 " fill-opacity="1" fill-rule="nonzero"/><path fill="#ebe1d8" d="M 224.621094 297.175781 L 224.621094 343.34375 C 224.621094 343.933594 224.59375 344.519531 224.535156 345.109375 C 224.476562 345.695312 224.390625 346.277344 224.277344 346.855469 C 224.160156 347.433594 224.019531 348.003906 223.847656 348.566406 C 223.675781 349.132812 223.476562 349.6875 223.253906 350.230469 C 223.027344 350.777344 222.773438 351.308594 222.496094 351.828125 C 222.21875 352.347656 221.917969 352.851562 221.589844 353.34375 C 221.261719 353.832031 220.910156 354.304688 220.535156 354.761719 C 220.164062 355.21875 219.765625 355.652344 219.351562 356.070312 C 218.933594 356.488281 218.496094 356.882812 218.042969 357.257812 C 217.585938 357.632812 217.113281 357.980469 216.621094 358.308594 C 216.132812 358.636719 215.628906 358.941406 215.109375 359.21875 C 214.585938 359.496094 214.054688 359.746094 213.511719 359.972656 C 212.964844 360.199219 212.410156 360.398438 211.847656 360.566406 C 211.285156 360.738281 210.710938 360.882812 210.132812 360.996094 C 209.554688 361.113281 208.972656 361.199219 208.386719 361.257812 C 207.800781 361.3125 207.210938 361.34375 206.621094 361.34375 C 206.03125 361.34375 205.445312 361.3125 204.859375 361.257812 C 204.269531 361.199219 203.6875 361.113281 203.109375 360.996094 C 202.53125 360.882812 201.960938 360.738281 201.398438 360.566406 C 200.832031 360.398438 200.277344 360.199219 199.734375 359.972656 C 199.1875 359.746094 198.65625 359.496094 198.136719 359.21875 C 197.617188 358.941406 197.113281 358.636719 196.621094 358.308594 C 196.132812 357.980469 195.660156 357.632812 195.203125 357.257812 C 194.746094 356.882812 194.3125 356.488281 193.894531 356.070312 C 193.476562 355.652344 193.082031 355.21875 192.707031 354.761719 C 192.335938 354.304688 191.984375 353.832031 191.65625 353.34375 C 191.328125 352.851562 191.027344 352.347656 190.746094 351.828125 C 190.46875 351.308594 190.21875 350.777344 189.992188 350.230469 C 189.765625 349.6875 189.570312 349.132812 189.398438 348.566406 C 189.226562 348.003906 189.082031 347.433594 188.96875 346.855469 C 188.851562 346.277344 188.765625 345.695312 188.707031 345.109375 C 188.652344 344.519531 188.621094 343.933594 188.621094 343.34375 L 188.621094 297.175781 C 188.621094 296.585938 188.652344 296 188.707031 295.414062 C 188.765625 294.828125 188.851562 294.242188 188.96875 293.664062 C 189.082031 293.085938 189.226562 292.515625 189.398438 291.953125 C 189.570312 291.386719 189.765625 290.832031 189.992188 290.289062 C 190.21875 289.746094 190.46875 289.210938 190.746094 288.691406 C 191.027344 288.171875 191.328125 287.667969 191.65625 287.175781 C 191.984375 286.6875 192.335938 286.214844 192.707031 285.757812 C 193.082031 285.300781 193.476562 284.867188 193.894531 284.449219 C 194.3125 284.03125 194.746094 283.636719 195.203125 283.261719 C 195.660156 282.890625 196.132812 282.539062 196.621094 282.210938 C 197.113281 281.882812 197.617188 281.582031 198.136719 281.304688 C 198.65625 281.023438 199.1875 280.773438 199.734375 280.546875 C 200.277344 280.320312 200.832031 280.125 201.398438 279.953125 C 201.960938 279.78125 202.53125 279.636719 203.109375 279.523438 C 203.6875 279.40625 204.269531 279.320312 204.859375 279.265625 C 205.445312 279.207031 206.03125 279.175781 206.621094 279.175781 C 207.210938 279.175781 207.800781 279.207031 208.386719 279.265625 C 208.972656 279.320312 209.554688 279.40625 210.132812 279.523438 C 210.710938 279.636719 211.285156 279.78125 211.847656 279.953125 C 212.410156 280.125 212.964844 280.320312 213.511719 280.546875 C 214.054688 280.773438 214.585938 281.023438 215.109375 281.304688 C 215.628906 281.582031 216.132812 281.882812 216.621094 282.210938 C 217.113281 282.539062 217.585938 282.890625 218.042969 283.261719 C 218.496094 283.636719 218.933594 284.03125 219.351562 284.449219 C 219.765625 284.867188 220.164062 285.300781 220.535156 285.757812 C 220.910156 286.214844 221.261719 286.6875 221.589844 287.175781 C 221.917969 287.667969 222.21875 288.171875 222.496094 288.691406 C 222.773438 289.210938 223.027344 289.746094 223.253906 290.289062 C 223.476562 290.832031 223.675781 291.386719 223.847656 291.953125 C 224.019531 292.515625 224.160156 293.085938 224.277344 293.664062 C 224.390625 294.242188 224.476562 294.828125 224.535156 295.414062 C 224.59375 296 224.621094 296.585938 224.621094 297.175781 Z M 224.621094 297.175781 " fill-opacity="1" fill-rule="nonzero"/><path fill="#ebe1d8" d="M 400.824219 325.796875 L 543.207031 325.796875 C 543.796875 325.796875 544.386719 325.828125 544.972656 325.882812 C 545.558594 325.941406 546.140625 326.027344 546.71875 326.144531 C 547.296875 326.257812 547.867188 326.402344 548.433594 326.574219 C 548.996094 326.742188 549.550781 326.941406 550.097656 327.167969 C 550.640625 327.394531 551.171875 327.644531 551.691406 327.921875 C 552.210938 328.199219 552.71875 328.503906 553.207031 328.832031 C 553.699219 329.160156 554.171875 329.507812 554.625 329.882812 C 555.082031 330.257812 555.519531 330.652344 555.933594 331.070312 C 556.351562 331.488281 556.746094 331.921875 557.121094 332.378906 C 557.496094 332.835938 557.847656 333.308594 558.175781 333.796875 C 558.5 334.289062 558.804688 334.792969 559.082031 335.3125 C 559.359375 335.832031 559.613281 336.363281 559.835938 336.910156 C 560.0625 337.453125 560.261719 338.007812 560.433594 338.574219 C 560.605469 339.136719 560.746094 339.707031 560.863281 340.285156 C 560.976562 340.863281 561.0625 341.445312 561.121094 342.035156 C 561.179688 342.621094 561.207031 343.207031 561.207031 343.796875 C 561.207031 344.386719 561.179688 344.976562 561.121094 345.5625 C 561.0625 346.148438 560.976562 346.730469 560.863281 347.308594 C 560.746094 347.886719 560.605469 348.457031 560.433594 349.023438 C 560.261719 349.585938 560.0625 350.140625 559.835938 350.6875 C 559.613281 351.230469 559.359375 351.761719 559.082031 352.28125 C 558.804688 352.800781 558.5 353.308594 558.175781 353.796875 C 557.847656 354.289062 557.496094 354.761719 557.121094 355.214844 C 556.746094 355.671875 556.351562 356.109375 555.933594 356.527344 C 555.519531 356.941406 555.082031 357.335938 554.625 357.710938 C 554.171875 358.085938 553.699219 358.4375 553.207031 358.765625 C 552.71875 359.089844 552.210938 359.394531 551.691406 359.671875 C 551.171875 359.949219 550.640625 360.203125 550.097656 360.425781 C 549.550781 360.652344 548.996094 360.851562 548.433594 361.023438 C 547.867188 361.195312 547.296875 361.335938 546.71875 361.453125 C 546.140625 361.566406 545.558594 361.652344 544.972656 361.710938 C 544.386719 361.769531 543.796875 361.796875 543.207031 361.796875 L 400.824219 361.796875 C 400.234375 361.796875 399.644531 361.769531 399.058594 361.710938 C 398.472656 361.652344 397.890625 361.566406 397.3125 361.453125 C 396.734375 361.335938 396.164062 361.195312 395.597656 361.023438 C 395.035156 360.851562 394.480469 360.652344 393.933594 360.425781 C 393.390625 360.203125 392.859375 359.949219 392.339844 359.671875 C 391.816406 359.394531 391.3125 359.089844 390.824219 358.765625 C 390.332031 358.4375 389.859375 358.085938 389.402344 357.710938 C 388.949219 357.335938 388.511719 356.941406 388.09375 356.527344 C 387.679688 356.109375 387.28125 355.671875 386.910156 355.214844 C 386.535156 354.761719 386.183594 354.289062 385.855469 353.796875 C 385.53125 353.308594 385.226562 352.800781 384.949219 352.28125 C 384.671875 351.761719 384.417969 351.230469 384.195312 350.6875 C 383.96875 350.140625 383.769531 349.585938 383.597656 349.023438 C 383.425781 348.457031 383.285156 347.886719 383.167969 347.308594 C 383.054688 346.730469 382.96875 346.148438 382.910156 345.5625 C 382.851562 344.976562 382.824219 344.386719 382.824219 343.796875 C 382.824219 343.207031 382.851562 342.621094 382.910156 342.035156 C 382.96875 341.445312 383.054688 340.863281 383.167969 340.285156 C 383.285156 339.707031 383.425781 339.136719 383.597656 338.574219 C 383.769531 338.007812 383.96875 337.453125 384.195312 336.910156 C 384.417969 336.363281 384.671875 335.832031 384.949219 335.3125 C 385.226562 334.792969 385.53125 334.289062 385.855469 333.796875 C 386.183594 333.308594 386.535156 332.835938 386.910156 332.378906 C 387.28125 331.921875 387.679688 331.488281 388.09375 331.070312 C 388.511719 330.652344 388.949219 330.257812 389.402344 329.882812 C 389.859375 329.507812 390.332031 329.160156 390.824219 328.832031 C 391.3125 328.503906 391.816406 328.199219 392.339844 327.921875 C 392.859375 327.644531 393.390625 327.394531 393.933594 327.167969 C 394.480469 326.941406 395.035156 326.742188 395.597656 326.574219 C 396.164062 326.402344 396.734375 326.257812 397.3125 326.144531 C 397.890625 326.027344 398.472656 325.941406 399.058594 325.882812 C 399.644531 325.828125 400.234375 325.796875 400.824219 325.796875 Z M 400.824219 325.796875 " fill-opacity="1" fill-rule="nonzero"/><path fill="#ebe1d8" d="M 400.820312 181.679688 L 543.207031 181.679688 C 543.796875 181.679688 544.382812 181.707031 544.96875 181.765625 C 545.558594 181.824219 546.140625 181.910156 546.71875 182.023438 C 547.296875 182.140625 547.867188 182.285156 548.429688 182.453125 C 548.996094 182.625 549.550781 182.824219 550.09375 183.050781 C 550.640625 183.273438 551.171875 183.527344 551.691406 183.804688 C 552.210938 184.082031 552.714844 184.386719 553.207031 184.714844 C 553.695312 185.039062 554.167969 185.390625 554.625 185.765625 C 555.082031 186.140625 555.515625 186.535156 555.933594 186.953125 C 556.351562 187.367188 556.746094 187.804688 557.121094 188.261719 C 557.496094 188.714844 557.84375 189.1875 558.171875 189.679688 C 558.5 190.167969 558.804688 190.675781 559.082031 191.195312 C 559.359375 191.714844 559.609375 192.246094 559.835938 192.792969 C 560.0625 193.335938 560.261719 193.890625 560.429688 194.453125 C 560.601562 195.019531 560.746094 195.589844 560.859375 196.167969 C 560.976562 196.746094 561.0625 197.328125 561.121094 197.914062 C 561.175781 198.5 561.207031 199.089844 561.207031 199.679688 C 561.207031 200.269531 561.175781 200.855469 561.121094 201.445312 C 561.0625 202.03125 560.976562 202.613281 560.859375 203.191406 C 560.746094 203.769531 560.601562 204.339844 560.429688 204.90625 C 560.261719 205.46875 560.0625 206.023438 559.835938 206.566406 C 559.609375 207.113281 559.359375 207.644531 559.082031 208.164062 C 558.804688 208.683594 558.5 209.191406 558.171875 209.679688 C 557.84375 210.167969 557.496094 210.644531 557.121094 211.097656 C 556.746094 211.554688 556.351562 211.992188 555.933594 212.40625 C 555.515625 212.824219 555.082031 213.21875 554.625 213.59375 C 554.167969 213.96875 553.695312 214.316406 553.207031 214.644531 C 552.714844 214.972656 552.210938 215.277344 551.691406 215.554688 C 551.171875 215.832031 550.640625 216.082031 550.09375 216.308594 C 549.550781 216.535156 548.996094 216.734375 548.429688 216.90625 C 547.867188 217.074219 547.296875 217.21875 546.71875 217.332031 C 546.140625 217.449219 545.558594 217.535156 544.96875 217.59375 C 544.382812 217.652344 543.796875 217.679688 543.207031 217.679688 L 400.820312 217.679688 C 400.230469 217.679688 399.644531 217.652344 399.058594 217.59375 C 398.472656 217.535156 397.886719 217.449219 397.308594 217.332031 C 396.730469 217.21875 396.160156 217.074219 395.597656 216.90625 C 395.03125 216.734375 394.476562 216.535156 393.933594 216.308594 C 393.390625 216.082031 392.855469 215.832031 392.335938 215.554688 C 391.816406 215.277344 391.3125 214.972656 390.820312 214.644531 C 390.332031 214.316406 389.859375 213.96875 389.402344 213.59375 C 388.945312 213.21875 388.511719 212.824219 388.09375 212.40625 C 387.675781 211.992188 387.28125 211.554688 386.90625 211.097656 C 386.535156 210.644531 386.183594 210.167969 385.855469 209.679688 C 385.527344 209.191406 385.226562 208.683594 384.949219 208.164062 C 384.667969 207.644531 384.417969 207.113281 384.191406 206.566406 C 383.964844 206.023438 383.769531 205.46875 383.597656 204.90625 C 383.425781 204.339844 383.28125 203.769531 383.167969 203.191406 C 383.054688 202.613281 382.964844 202.03125 382.910156 201.445312 C 382.851562 200.855469 382.820312 200.269531 382.820312 199.679688 C 382.820312 199.089844 382.851562 198.5 382.910156 197.914062 C 382.964844 197.328125 383.054688 196.746094 383.167969 196.167969 C 383.28125 195.589844 383.425781 195.019531 383.597656 194.453125 C 383.769531 193.890625 383.964844 193.335938 384.191406 192.792969 C 384.417969 192.246094 384.667969 191.714844 384.949219 191.195312 C 385.226562 190.675781 385.527344 190.167969 385.855469 189.679688 C 386.183594 189.1875 386.535156 188.714844 386.90625 188.261719 C 387.28125 187.804688 387.675781 187.367188 388.09375 186.953125 C 388.511719 186.535156 388.945312 186.140625 389.402344 185.765625 C 389.859375 185.390625 390.332031 185.039062 390.820312 184.714844 C 391.3125 184.386719 391.816406 184.082031 392.335938 183.804688 C 392.855469 183.527344 393.390625 183.273438 393.933594 183.050781 C 394.476562 182.824219 395.03125 182.625 395.597656 182.453125 C 396.160156 182.285156 396.730469 182.140625 397.308594 182.023438 C 397.886719 181.910156 398.472656 181.824219 399.058594 181.765625 C 399.644531 181.707031 400.230469 181.679688 400.820312 181.679688 Z M 400.820312 181.679688 " fill-opacity="1" fill-rule="nonzero"/><path fill="#ebe1d8" d="M 400.902344 253.640625 L 486.71875 253.839844 C 487.308594 253.839844 487.894531 253.871094 488.480469 253.929688 C 489.066406 253.988281 489.652344 254.074219 490.226562 254.191406 C 490.804688 254.308594 491.378906 254.453125 491.941406 254.625 C 492.503906 254.796875 493.058594 254.996094 493.601562 255.222656 C 494.148438 255.449219 494.679688 255.703125 495.199219 255.984375 C 495.71875 256.261719 496.222656 256.566406 496.710938 256.894531 C 497.199219 257.222656 497.671875 257.574219 498.128906 257.949219 C 498.582031 258.324219 499.015625 258.722656 499.433594 259.140625 C 499.847656 259.558594 500.242188 259.996094 500.617188 260.453125 C 500.988281 260.90625 501.339844 261.382812 501.664062 261.871094 C 501.992188 262.363281 502.292969 262.871094 502.570312 263.390625 C 502.847656 263.910156 503.097656 264.441406 503.320312 264.988281 C 503.546875 265.535156 503.742188 266.089844 503.914062 266.652344 C 504.082031 267.21875 504.222656 267.789062 504.339844 268.367188 C 504.453125 268.945312 504.535156 269.527344 504.59375 270.117188 C 504.648438 270.703125 504.675781 271.289062 504.675781 271.878906 C 504.675781 272.46875 504.644531 273.058594 504.585938 273.644531 C 504.527344 274.230469 504.4375 274.8125 504.320312 275.390625 C 504.207031 275.96875 504.0625 276.539062 503.886719 277.101562 C 503.714844 277.667969 503.515625 278.222656 503.289062 278.765625 C 503.0625 279.308594 502.808594 279.839844 502.53125 280.359375 C 502.25 280.878906 501.949219 281.382812 501.617188 281.871094 C 501.289062 282.363281 500.9375 282.835938 500.5625 283.289062 C 500.1875 283.746094 499.792969 284.179688 499.375 284.59375 C 498.957031 285.011719 498.519531 285.40625 498.0625 285.777344 C 497.605469 286.152344 497.132812 286.5 496.640625 286.828125 C 496.152344 287.152344 495.644531 287.457031 495.125 287.730469 C 494.605469 288.007812 494.070312 288.257812 493.527344 288.484375 C 492.980469 288.707031 492.425781 288.90625 491.859375 289.074219 C 491.296875 289.246094 490.726562 289.386719 490.148438 289.5 C 489.566406 289.613281 488.984375 289.699219 488.398438 289.753906 C 487.8125 289.8125 487.222656 289.839844 486.632812 289.839844 L 400.820312 289.640625 C 400.230469 289.636719 399.644531 289.605469 399.054688 289.546875 C 398.46875 289.488281 397.886719 289.402344 397.308594 289.285156 C 396.730469 289.167969 396.160156 289.023438 395.597656 288.851562 C 395.035156 288.679688 394.480469 288.480469 393.933594 288.253906 C 393.390625 288.027344 392.859375 287.773438 392.339844 287.492188 C 391.820312 287.214844 391.316406 286.910156 390.828125 286.582031 C 390.335938 286.253906 389.867188 285.902344 389.410156 285.527344 C 388.957031 285.152344 388.519531 284.753906 388.105469 284.335938 C 387.6875 283.917969 387.292969 283.480469 386.921875 283.027344 C 386.546875 282.570312 386.199219 282.09375 385.871094 281.605469 C 385.546875 281.113281 385.246094 280.609375 384.96875 280.085938 C 384.691406 279.566406 384.441406 279.035156 384.214844 278.488281 C 383.992188 277.945312 383.796875 277.386719 383.625 276.824219 C 383.457031 276.257812 383.3125 275.6875 383.199219 275.109375 C 383.085938 274.53125 383 273.949219 382.945312 273.363281 C 382.886719 272.773438 382.859375 272.1875 382.863281 271.597656 C 382.863281 271.007812 382.894531 270.417969 382.953125 269.832031 C 383.011719 269.246094 383.101562 268.664062 383.214844 268.085938 C 383.332031 267.507812 383.476562 266.9375 383.648438 266.375 C 383.820312 265.808594 384.023438 265.257812 384.25 264.710938 C 384.476562 264.167969 384.726562 263.636719 385.007812 263.117188 C 385.285156 262.597656 385.589844 262.09375 385.917969 261.605469 C 386.246094 261.113281 386.597656 260.640625 386.972656 260.1875 C 387.351562 259.734375 387.746094 259.296875 388.164062 258.882812 C 388.582031 258.464844 389.019531 258.070312 389.476562 257.699219 C 389.933594 257.324219 390.40625 256.976562 390.898438 256.648438 C 391.386719 256.324219 391.894531 256.019531 392.414062 255.746094 C 392.933594 255.46875 393.46875 255.21875 394.011719 254.992188 C 394.558594 254.769531 395.113281 254.570312 395.675781 254.402344 C 396.242188 254.230469 396.8125 254.089844 397.390625 253.976562 C 397.96875 253.863281 398.550781 253.777344 399.140625 253.722656 C 399.726562 253.664062 400.316406 253.636719 400.902344 253.640625 Z M 400.902344 253.640625 " fill-opacity="1" fill-rule="nonzero"/><path fill="#ebe1d8" d="M 224.6875 406.863281 L 225.230469 548.292969 C 225.234375 548.882812 225.207031 549.472656 225.152344 550.058594 C 225.097656 550.644531 225.011719 551.226562 224.898438 551.808594 C 224.785156 552.386719 224.644531 552.957031 224.476562 553.523438 C 224.308594 554.085938 224.109375 554.640625 223.886719 555.1875 C 223.664062 555.734375 223.414062 556.265625 223.136719 556.789062 C 222.863281 557.308594 222.5625 557.8125 222.234375 558.304688 C 221.910156 558.796875 221.5625 559.269531 221.1875 559.730469 C 220.816406 560.1875 220.421875 560.625 220.007812 561.042969 C 219.59375 561.460938 219.15625 561.859375 218.703125 562.234375 C 218.25 562.609375 217.777344 562.960938 217.289062 563.289062 C 216.800781 563.621094 216.296875 563.925781 215.777344 564.203125 C 215.257812 564.484375 214.726562 564.738281 214.183594 564.964844 C 213.640625 565.195312 213.085938 565.394531 212.523438 565.566406 C 211.960938 565.742188 211.386719 565.886719 210.8125 566.003906 C 210.234375 566.121094 209.652344 566.210938 209.066406 566.269531 C 208.476562 566.328125 207.890625 566.359375 207.300781 566.363281 C 206.710938 566.363281 206.121094 566.339844 205.535156 566.28125 C 204.949219 566.226562 204.367188 566.144531 203.789062 566.03125 C 203.210938 565.917969 202.636719 565.777344 202.074219 565.609375 C 201.507812 565.4375 200.953125 565.242188 200.40625 565.019531 C 199.863281 564.796875 199.328125 564.546875 198.808594 564.269531 C 198.285156 563.992188 197.78125 563.691406 197.289062 563.367188 C 196.796875 563.042969 196.324219 562.691406 195.867188 562.320312 C 195.410156 561.949219 194.972656 561.554688 194.550781 561.140625 C 194.132812 560.722656 193.738281 560.289062 193.359375 559.835938 C 192.984375 559.382812 192.632812 558.910156 192.304688 558.421875 C 191.972656 557.933594 191.667969 557.429688 191.390625 556.910156 C 191.109375 556.390625 190.855469 555.859375 190.628906 555.316406 C 190.402344 554.769531 190.199219 554.21875 190.027344 553.652344 C 189.851562 553.089844 189.707031 552.519531 189.589844 551.941406 C 189.472656 551.363281 189.386719 550.78125 189.324219 550.195312 C 189.265625 549.609375 189.234375 549.023438 189.230469 548.433594 L 188.6875 407 C 188.6875 406.410156 188.714844 405.824219 188.769531 405.234375 C 188.824219 404.648438 188.910156 404.066406 189.019531 403.488281 C 189.132812 402.910156 189.273438 402.335938 189.445312 401.773438 C 189.613281 401.207031 189.808594 400.652344 190.03125 400.105469 C 190.257812 399.5625 190.503906 399.027344 190.78125 398.507812 C 191.058594 397.984375 191.359375 397.480469 191.683594 396.988281 C 192.007812 396.496094 192.359375 396.023438 192.730469 395.566406 C 193.101562 395.109375 193.496094 394.671875 193.910156 394.253906 C 194.328125 393.832031 194.761719 393.4375 195.214844 393.0625 C 195.671875 392.683594 196.140625 392.332031 196.632812 392.003906 C 197.121094 391.671875 197.625 391.367188 198.144531 391.089844 C 198.660156 390.808594 199.191406 390.554688 199.738281 390.328125 C 200.28125 390.101562 200.835938 389.898438 201.398438 389.726562 C 201.960938 389.554688 202.53125 389.40625 203.109375 389.289062 C 203.6875 389.171875 204.269531 389.085938 204.855469 389.023438 C 205.441406 388.964844 206.03125 388.933594 206.621094 388.929688 C 207.210938 388.929688 207.796875 388.957031 208.382812 389.011719 C 208.972656 389.066406 209.554688 389.152344 210.132812 389.261719 C 210.710938 389.375 211.28125 389.515625 211.847656 389.6875 C 212.414062 389.855469 212.96875 390.050781 213.511719 390.273438 C 214.058594 390.5 214.59375 390.75 215.113281 391.023438 C 215.632812 391.300781 216.140625 391.601562 216.632812 391.925781 C 217.121094 392.25 217.597656 392.601562 218.054688 392.972656 C 218.511719 393.34375 218.949219 393.738281 219.367188 394.15625 C 219.785156 394.570312 220.183594 395.003906 220.558594 395.457031 C 220.933594 395.914062 221.289062 396.382812 221.617188 396.875 C 221.945312 397.363281 222.25 397.867188 222.53125 398.386719 C 222.808594 398.902344 223.0625 399.433594 223.292969 399.980469 C 223.519531 400.523438 223.71875 401.078125 223.894531 401.640625 C 224.066406 402.203125 224.210938 402.773438 224.328125 403.351562 C 224.445312 403.929688 224.535156 404.511719 224.59375 405.097656 C 224.65625 405.683594 224.6875 406.273438 224.6875 406.863281 Z M 224.6875 406.863281 " fill-opacity="1" fill-rule="nonzero"/><path fill="#ebe1d8" d="M 207.976562 386.292969 L 264.0625 386.664062 C 264.652344 386.667969 265.242188 386.699219 265.828125 386.761719 C 266.414062 386.824219 266.996094 386.914062 267.574219 387.03125 C 268.152344 387.152344 268.71875 387.296875 269.285156 387.472656 C 269.847656 387.648438 270.398438 387.851562 270.941406 388.078125 C 271.484375 388.308594 272.015625 388.5625 272.535156 388.84375 C 273.054688 389.125 273.554688 389.433594 274.042969 389.761719 C 274.53125 390.09375 275.003906 390.449219 275.457031 390.824219 C 275.910156 391.203125 276.34375 391.601562 276.757812 392.019531 C 277.171875 392.4375 277.5625 392.878906 277.933594 393.335938 C 278.304688 393.792969 278.652344 394.269531 278.976562 394.761719 C 279.300781 395.253906 279.601562 395.761719 279.875 396.28125 C 280.148438 396.804688 280.398438 397.339844 280.621094 397.882812 C 280.84375 398.429688 281.035156 398.988281 281.203125 399.550781 C 281.371094 400.117188 281.511719 400.6875 281.621094 401.269531 C 281.734375 401.847656 281.816406 402.429688 281.871094 403.015625 C 281.921875 403.605469 281.949219 404.191406 281.945312 404.78125 C 281.941406 405.371094 281.90625 405.960938 281.847656 406.546875 C 281.785156 407.132812 281.695312 407.714844 281.574219 408.292969 C 281.457031 408.867188 281.308594 409.4375 281.136719 410 C 280.960938 410.566406 280.757812 411.117188 280.527344 411.660156 C 280.300781 412.203125 280.042969 412.734375 279.761719 413.253906 C 279.480469 413.769531 279.175781 414.273438 278.84375 414.761719 C 278.515625 415.25 278.160156 415.71875 277.785156 416.171875 C 277.40625 416.625 277.007812 417.0625 276.589844 417.476562 C 276.167969 417.890625 275.730469 418.28125 275.273438 418.652344 C 274.8125 419.023438 274.339844 419.371094 273.847656 419.695312 C 273.355469 420.019531 272.847656 420.320312 272.324219 420.59375 C 271.804688 420.867188 271.269531 421.117188 270.722656 421.339844 C 270.175781 421.558594 269.621094 421.753906 269.054688 421.921875 C 268.492188 422.089844 267.917969 422.230469 267.339844 422.339844 C 266.761719 422.449219 266.179688 422.535156 265.589844 422.585938 C 265.003906 422.640625 264.414062 422.667969 263.828125 422.664062 L 207.738281 422.292969 C 207.148438 422.289062 206.5625 422.253906 205.972656 422.195312 C 205.386719 422.132812 204.804688 422.042969 204.230469 421.921875 C 203.652344 421.804688 203.082031 421.65625 202.519531 421.484375 C 201.957031 421.308594 201.402344 421.105469 200.859375 420.875 C 200.316406 420.648438 199.785156 420.390625 199.265625 420.109375 C 198.75 419.828125 198.246094 419.523438 197.757812 419.191406 C 197.269531 418.863281 196.800781 418.507812 196.347656 418.132812 C 195.894531 417.753906 195.460938 417.355469 195.046875 416.9375 C 194.632812 416.515625 194.238281 416.078125 193.867188 415.621094 C 193.496094 415.160156 193.148438 414.6875 192.824219 414.195312 C 192.5 413.703125 192.199219 413.195312 191.925781 412.671875 C 191.652344 412.152344 191.402344 411.617188 191.183594 411.070312 C 190.960938 410.523438 190.765625 409.96875 190.597656 409.402344 C 190.429688 408.839844 190.292969 408.265625 190.179688 407.6875 C 190.070312 407.109375 189.984375 406.527344 189.933594 405.9375 C 189.878906 405.351562 189.851562 404.761719 189.855469 404.175781 C 189.859375 403.585938 189.894531 402.996094 189.957031 402.410156 C 190.015625 401.824219 190.109375 401.242188 190.226562 400.664062 C 190.34375 400.085938 190.492188 399.515625 190.667969 398.953125 C 190.839844 398.390625 191.042969 397.839844 191.273438 397.296875 C 191.503906 396.75 191.757812 396.222656 192.039062 395.703125 C 192.320312 395.183594 192.625 394.683594 192.957031 394.195312 C 193.289062 393.707031 193.640625 393.234375 194.019531 392.78125 C 194.394531 392.328125 194.792969 391.894531 195.214844 391.480469 C 195.632812 391.066406 196.070312 390.675781 196.53125 390.304688 C 196.988281 389.933594 197.464844 389.585938 197.957031 389.261719 C 198.449219 388.9375 198.953125 388.636719 199.476562 388.363281 C 200 388.089844 200.53125 387.839844 201.078125 387.617188 C 201.625 387.394531 202.179688 387.203125 202.746094 387.035156 C 203.3125 386.867188 203.882812 386.726562 204.460938 386.617188 C 205.039062 386.503906 205.625 386.421875 206.210938 386.367188 C 206.796875 386.3125 207.386719 386.289062 207.976562 386.292969 Z M 207.976562 386.292969 " fill-opacity="1" fill-rule="nonzero"/><path fill="#ebe1d8" d="M 472.996094 530.25 L 543.300781 530.25 C 543.890625 530.25 544.476562 530.277344 545.066406 530.335938 C 545.652344 530.394531 546.234375 530.480469 546.8125 530.59375 C 547.390625 530.710938 547.960938 530.855469 548.527344 531.023438 C 549.089844 531.195312 549.644531 531.394531 550.1875 531.621094 C 550.734375 531.84375 551.265625 532.097656 551.785156 532.375 C 552.304688 532.652344 552.8125 532.957031 553.300781 533.285156 C 553.792969 533.609375 554.265625 533.960938 554.71875 534.335938 C 555.175781 534.710938 555.613281 535.105469 556.027344 535.523438 C 556.445312 535.9375 556.839844 536.375 557.214844 536.832031 C 557.589844 537.285156 557.941406 537.757812 558.265625 538.25 C 558.59375 538.738281 558.898438 539.246094 559.175781 539.765625 C 559.453125 540.285156 559.703125 540.816406 559.929688 541.363281 C 560.15625 541.90625 560.355469 542.460938 560.527344 543.023438 C 560.695312 543.589844 560.839844 544.160156 560.953125 544.738281 C 561.070312 545.316406 561.15625 545.898438 561.214844 546.484375 C 561.273438 547.070312 561.300781 547.660156 561.300781 548.25 C 561.300781 548.839844 561.273438 549.425781 561.214844 550.015625 C 561.15625 550.601562 561.070312 551.183594 560.953125 551.761719 C 560.839844 552.339844 560.695312 552.910156 560.527344 553.476562 C 560.355469 554.039062 560.15625 554.59375 559.929688 555.136719 C 559.703125 555.683594 559.453125 556.214844 559.175781 556.734375 C 558.898438 557.253906 558.59375 557.761719 558.265625 558.25 C 557.941406 558.738281 557.589844 559.214844 557.214844 559.667969 C 556.839844 560.125 556.445312 560.5625 556.027344 560.976562 C 555.613281 561.394531 555.175781 561.789062 554.71875 562.164062 C 554.265625 562.539062 553.792969 562.886719 553.300781 563.214844 C 552.8125 563.542969 552.304688 563.847656 551.785156 564.125 C 551.265625 564.402344 550.734375 564.652344 550.1875 564.878906 C 549.644531 565.105469 549.089844 565.304688 548.527344 565.476562 C 547.960938 565.644531 547.390625 565.789062 546.8125 565.902344 C 546.234375 566.019531 545.652344 566.105469 545.066406 566.164062 C 544.476562 566.222656 543.890625 566.25 543.300781 566.25 L 472.996094 566.25 C 472.410156 566.25 471.820312 566.222656 471.234375 566.164062 C 470.648438 566.105469 470.0625 566.019531 469.484375 565.902344 C 468.90625 565.789062 468.335938 565.644531 467.773438 565.476562 C 467.207031 565.304688 466.652344 565.105469 466.109375 564.878906 C 465.566406 564.652344 465.03125 564.402344 464.511719 564.125 C 463.992188 563.847656 463.488281 563.542969 462.996094 563.214844 C 462.507812 562.886719 462.035156 562.539062 461.578125 562.164062 C 461.121094 561.789062 460.6875 561.394531 460.269531 560.976562 C 459.851562 560.5625 459.457031 560.125 459.082031 559.667969 C 458.710938 559.214844 458.359375 558.738281 458.03125 558.25 C 457.703125 557.761719 457.402344 557.253906 457.125 556.734375 C 456.84375 556.214844 456.59375 555.683594 456.367188 555.136719 C 456.140625 554.59375 455.945312 554.039062 455.773438 553.476562 C 455.601562 552.910156 455.457031 552.339844 455.34375 551.761719 C 455.230469 551.183594 455.140625 550.601562 455.085938 550.015625 C 455.027344 549.425781 454.996094 548.839844 454.996094 548.25 C 454.996094 547.660156 455.027344 547.070312 455.085938 546.484375 C 455.140625 545.898438 455.230469 545.316406 455.34375 544.738281 C 455.457031 544.160156 455.601562 543.589844 455.773438 543.023438 C 455.945312 542.460938 456.140625 541.90625 456.367188 541.363281 C 456.59375 540.816406 456.84375 540.285156 457.125 539.765625 C 457.402344 539.246094 457.703125 538.738281 458.03125 538.25 C 458.359375 537.757812 458.710938 537.285156 459.082031 536.832031 C 459.457031 536.375 459.851562 535.9375 460.269531 535.523438 C 460.6875 535.105469 461.121094 534.710938 461.578125 534.335938 C 462.035156 533.960938 462.507812 533.609375 462.996094 533.285156 C 463.488281 532.957031 463.992188 532.652344 464.511719 532.375 C 465.03125 532.097656 465.566406 531.84375 466.109375 531.621094 C 466.652344 531.394531 467.207031 531.195312 467.773438 531.023438 C 468.335938 530.855469 468.90625 530.710938 469.484375 530.59375 C 470.0625 530.480469 470.648438 530.394531 471.234375 530.335938 C 471.820312 530.277344 472.410156 530.25 472.996094 530.25 Z M 472.996094 530.25 " fill-opacity="1" fill-rule="nonzero"/><path fill="#e45258" d="M 400.820312 385.699219 L 486.5 385.699219 C 487.089844 385.699219 487.675781 385.730469 488.261719 385.785156 C 488.851562 385.84375 489.433594 385.929688 490.011719 386.046875 C 490.589844 386.160156 491.160156 386.304688 491.722656 386.476562 C 492.289062 386.644531 492.84375 386.84375 493.386719 387.070312 C 493.929688 387.296875 494.464844 387.546875 494.984375 387.824219 C 495.503906 388.101562 496.007812 388.40625 496.5 388.734375 C 496.988281 389.0625 497.460938 389.410156 497.917969 389.785156 C 498.375 390.160156 498.808594 390.554688 499.226562 390.972656 C 499.644531 391.390625 500.039062 391.824219 500.414062 392.28125 C 500.785156 392.738281 501.136719 393.210938 501.464844 393.699219 C 501.792969 394.191406 502.09375 394.695312 502.375 395.214844 C 502.652344 395.734375 502.902344 396.265625 503.128906 396.8125 C 503.355469 397.355469 503.550781 397.910156 503.722656 398.476562 C 503.894531 399.039062 504.039062 399.609375 504.152344 400.1875 C 504.269531 400.765625 504.355469 401.347656 504.410156 401.9375 C 504.46875 402.523438 504.5 403.109375 504.5 403.699219 C 504.5 404.289062 504.46875 404.878906 504.410156 405.464844 C 504.355469 406.050781 504.269531 406.632812 504.152344 407.210938 C 504.039062 407.789062 503.894531 408.359375 503.722656 408.925781 C 503.550781 409.488281 503.355469 410.042969 503.128906 410.589844 C 502.902344 411.132812 502.652344 411.664062 502.375 412.183594 C 502.09375 412.703125 501.792969 413.210938 501.464844 413.699219 C 501.136719 414.191406 500.785156 414.664062 500.414062 415.117188 C 500.039062 415.574219 499.644531 416.011719 499.226562 416.429688 C 498.808594 416.84375 498.375 417.238281 497.917969 417.613281 C 497.460938 417.988281 496.988281 418.339844 496.5 418.667969 C 496.007812 418.992188 495.503906 419.296875 494.984375 419.574219 C 494.464844 419.851562 493.929688 420.105469 493.386719 420.328125 C 492.84375 420.554688 492.289062 420.753906 491.722656 420.925781 C 491.160156 421.097656 490.589844 421.238281 490.011719 421.355469 C 489.433594 421.46875 488.851562 421.554688 488.261719 421.613281 C 487.675781 421.671875 487.089844 421.699219 486.5 421.699219 L 400.820312 421.699219 C 400.230469 421.699219 399.644531 421.671875 399.058594 421.613281 C 398.472656 421.554688 397.886719 421.46875 397.308594 421.355469 C 396.730469 421.238281 396.160156 421.097656 395.597656 420.925781 C 395.03125 420.753906 394.476562 420.554688 393.933594 420.328125 C 393.390625 420.105469 392.855469 419.851562 392.335938 419.574219 C 391.816406 419.296875 391.3125 418.992188 390.820312 418.667969 C 390.332031 418.339844 389.859375 417.988281 389.402344 417.613281 C 388.945312 417.238281 388.511719 416.84375 388.09375 416.429688 C 387.675781 416.011719 387.28125 415.574219 386.90625 415.117188 C 386.535156 414.664062 386.183594 414.191406 385.855469 413.699219 C 385.527344 413.210938 385.226562 412.703125 384.949219 412.183594 C 384.667969 411.664062 384.417969 411.132812 384.191406 410.589844 C 383.964844 410.042969 383.769531 409.488281 383.597656 408.925781 C 383.425781 408.359375 383.28125 407.789062 383.167969 407.210938 C 383.054688 406.632812 382.964844 406.050781 382.910156 405.464844 C 382.851562 404.878906 382.820312 404.289062 382.820312 403.699219 C 382.820312 403.109375 382.851562 402.523438 382.910156 401.9375 C 382.964844 401.347656 383.054688 400.765625 383.167969 400.1875 C 383.28125 399.609375 383.425781 399.039062 383.597656 398.476562 C 383.769531 397.910156 383.964844 397.355469 384.191406 396.8125 C 384.417969 396.265625 384.667969 395.734375 384.949219 395.214844 C 385.226562 394.695312 385.527344 394.191406 385.855469 393.699219 C 386.183594 393.210938 386.535156 392.738281 386.90625 392.28125 C 387.28125 391.824219 387.675781 391.390625 388.09375 390.972656 C 388.511719 390.554688 388.945312 390.160156 389.402344 389.785156 C 389.859375 389.410156 390.332031 389.0625 390.820312 388.734375 C 391.3125 388.40625 391.816406 388.101562 392.335938 387.824219 C 392.855469 387.546875 393.390625 387.296875 393.933594 387.070312 C 394.476562 386.84375 395.03125 386.644531 395.597656 386.476562 C 396.160156 386.304688 396.730469 386.160156 397.308594 386.046875 C 397.886719 385.929688 398.472656 385.84375 399.058594 385.785156 C 399.644531 385.730469 400.230469 385.699219 400.820312 385.699219 Z M 400.820312 385.699219 " fill-opacity="1" fill-rule="nonzero"/><path fill="#ebe1d8" d="M 400.875 435.339844 L 543.320312 435.339844 C 543.90625 435.339844 544.496094 435.367188 545.082031 435.425781 C 545.667969 435.484375 546.25 435.570312 546.828125 435.683594 C 547.410156 435.800781 547.980469 435.941406 548.542969 436.113281 C 549.109375 436.285156 549.660156 436.484375 550.207031 436.710938 C 550.75 436.933594 551.285156 437.1875 551.804688 437.464844 C 552.324219 437.742188 552.828125 438.046875 553.320312 438.371094 C 553.808594 438.699219 554.28125 439.050781 554.738281 439.425781 C 555.191406 439.800781 555.628906 440.195312 556.046875 440.613281 C 556.464844 441.027344 556.859375 441.464844 557.234375 441.921875 C 557.605469 442.375 557.957031 442.847656 558.285156 443.339844 C 558.613281 443.828125 558.914062 444.335938 559.191406 444.855469 C 559.472656 445.375 559.722656 445.90625 559.949219 446.449219 C 560.175781 446.996094 560.371094 447.550781 560.542969 448.113281 C 560.714844 448.679688 560.859375 449.25 560.972656 449.828125 C 561.085938 450.40625 561.175781 450.988281 561.230469 451.574219 C 561.289062 452.160156 561.320312 452.75 561.320312 453.339844 C 561.320312 453.929688 561.289062 454.515625 561.230469 455.105469 C 561.175781 455.691406 561.085938 456.273438 560.972656 456.851562 C 560.859375 457.429688 560.714844 458 560.542969 458.566406 C 560.371094 459.128906 560.175781 459.683594 559.949219 460.226562 C 559.722656 460.773438 559.472656 461.304688 559.191406 461.824219 C 558.914062 462.34375 558.613281 462.847656 558.285156 463.339844 C 557.957031 463.828125 557.605469 464.304688 557.234375 464.757812 C 556.859375 465.214844 556.464844 465.652344 556.046875 466.066406 C 555.628906 466.484375 555.191406 466.878906 554.738281 467.253906 C 554.28125 467.628906 553.808594 467.976562 553.320312 468.304688 C 552.828125 468.632812 552.324219 468.9375 551.804688 469.214844 C 551.285156 469.492188 550.75 469.742188 550.207031 469.96875 C 549.660156 470.195312 549.109375 470.394531 548.542969 470.5625 C 547.980469 470.734375 547.410156 470.878906 546.828125 470.992188 C 546.25 471.109375 545.667969 471.195312 545.082031 471.253906 C 544.496094 471.308594 543.90625 471.339844 543.320312 471.339844 L 400.875 471.339844 C 400.285156 471.339844 399.695312 471.308594 399.109375 471.253906 C 398.523438 471.195312 397.941406 471.109375 397.363281 470.992188 C 396.785156 470.878906 396.214844 470.734375 395.648438 470.5625 C 395.085938 470.394531 394.53125 470.195312 393.984375 469.96875 C 393.441406 469.742188 392.910156 469.492188 392.390625 469.214844 C 391.871094 468.9375 391.363281 468.632812 390.875 468.304688 C 390.382812 467.976562 389.910156 467.628906 389.457031 467.253906 C 389 466.878906 388.5625 466.484375 388.144531 466.066406 C 387.730469 465.652344 387.335938 465.214844 386.960938 464.757812 C 386.585938 464.304688 386.234375 463.828125 385.90625 463.339844 C 385.582031 462.847656 385.277344 462.34375 385 461.824219 C 384.722656 461.304688 384.46875 460.773438 384.246094 460.226562 C 384.019531 459.683594 383.820312 459.128906 383.648438 458.566406 C 383.476562 458 383.335938 457.429688 383.21875 456.851562 C 383.105469 456.273438 383.019531 455.691406 382.960938 455.105469 C 382.902344 454.515625 382.875 453.929688 382.875 453.339844 C 382.875 452.75 382.902344 452.160156 382.960938 451.574219 C 383.019531 450.988281 383.105469 450.40625 383.21875 449.828125 C 383.335938 449.25 383.476562 448.679688 383.648438 448.113281 C 383.820312 447.550781 384.019531 446.996094 384.246094 446.449219 C 384.46875 445.90625 384.722656 445.375 385 444.855469 C 385.277344 444.335938 385.582031 443.828125 385.90625 443.339844 C 386.234375 442.847656 386.585938 442.375 386.960938 441.921875 C 387.335938 441.464844 387.730469 441.027344 388.144531 440.613281 C 388.5625 440.195312 389 439.800781 389.457031 439.425781 C 389.910156 439.050781 390.382812 438.699219 390.875 438.371094 C 391.363281 438.046875 391.871094 437.742188 392.390625 437.464844 C 392.910156 437.1875 393.441406 436.933594 393.984375 436.710938 C 394.53125 436.484375 395.085938 436.285156 395.648438 436.113281 C 396.214844 435.941406 396.785156 435.800781 397.363281 435.683594 C 397.941406 435.570312 398.523438 435.484375 399.109375 435.425781 C 399.695312 435.367188 400.285156 435.339844 400.875 435.339844 Z M 400.875 435.339844 " fill-opacity="1" fill-rule="nonzero"/><path fill="#ebe1d8" d="M 400.925781 480.261719 L 432.808594 480.261719 C 433.398438 480.261719 433.984375 480.292969 434.574219 480.347656 C 435.160156 480.40625 435.742188 480.492188 436.320312 480.609375 C 436.898438 480.722656 437.46875 480.867188 438.035156 481.039062 C 438.597656 481.207031 439.152344 481.40625 439.695312 481.632812 C 440.242188 481.859375 440.773438 482.109375 441.292969 482.386719 C 441.8125 482.664062 442.316406 482.96875 442.808594 483.296875 C 443.296875 483.625 443.773438 483.972656 444.226562 484.347656 C 444.683594 484.722656 445.121094 485.117188 445.535156 485.535156 C 445.953125 485.953125 446.347656 486.386719 446.722656 486.84375 C 447.097656 487.300781 447.445312 487.773438 447.773438 488.261719 C 448.101562 488.753906 448.40625 489.257812 448.683594 489.777344 C 448.960938 490.296875 449.210938 490.828125 449.4375 491.375 C 449.664062 491.917969 449.863281 492.472656 450.03125 493.039062 C 450.203125 493.601562 450.347656 494.171875 450.460938 494.75 C 450.578125 495.328125 450.664062 495.910156 450.722656 496.5 C 450.78125 497.085938 450.808594 497.671875 450.808594 498.261719 C 450.808594 498.851562 450.78125 499.441406 450.722656 500.027344 C 450.664062 500.613281 450.578125 501.195312 450.460938 501.773438 C 450.347656 502.351562 450.203125 502.921875 450.03125 503.488281 C 449.863281 504.050781 449.664062 504.605469 449.4375 505.152344 C 449.210938 505.695312 448.960938 506.226562 448.683594 506.746094 C 448.40625 507.265625 448.101562 507.773438 447.773438 508.261719 C 447.445312 508.753906 447.097656 509.226562 446.722656 509.679688 C 446.347656 510.136719 445.953125 510.574219 445.535156 510.992188 C 445.121094 511.40625 444.683594 511.800781 444.226562 512.175781 C 443.773438 512.550781 443.296875 512.902344 442.808594 513.230469 C 442.316406 513.554688 441.8125 513.859375 441.292969 514.136719 C 440.773438 514.414062 440.242188 514.667969 439.695312 514.890625 C 439.152344 515.117188 438.597656 515.316406 438.035156 515.488281 C 437.46875 515.660156 436.898438 515.800781 436.320312 515.917969 C 435.742188 516.03125 435.160156 516.117188 434.574219 516.175781 C 433.984375 516.234375 433.398438 516.261719 432.808594 516.261719 L 400.925781 516.261719 C 400.335938 516.261719 399.75 516.234375 399.164062 516.175781 C 398.574219 516.117188 397.992188 516.03125 397.414062 515.917969 C 396.835938 515.800781 396.265625 515.660156 395.703125 515.488281 C 395.136719 515.316406 394.582031 515.117188 394.039062 514.890625 C 393.492188 514.667969 392.960938 514.414062 392.441406 514.136719 C 391.921875 513.859375 391.417969 513.554688 390.925781 513.230469 C 390.4375 512.902344 389.964844 512.550781 389.507812 512.175781 C 389.050781 511.800781 388.617188 511.40625 388.199219 510.992188 C 387.78125 510.574219 387.386719 510.136719 387.011719 509.679688 C 386.640625 509.226562 386.289062 508.753906 385.960938 508.261719 C 385.632812 507.773438 385.332031 507.265625 385.050781 506.746094 C 384.773438 506.226562 384.523438 505.695312 384.296875 505.152344 C 384.070312 504.605469 383.875 504.050781 383.703125 503.488281 C 383.53125 502.921875 383.386719 502.351562 383.273438 501.773438 C 383.15625 501.195312 383.070312 500.613281 383.011719 500.027344 C 382.957031 499.441406 382.925781 498.851562 382.925781 498.261719 C 382.925781 497.671875 382.957031 497.085938 383.011719 496.5 C 383.070312 495.910156 383.15625 495.328125 383.273438 494.75 C 383.386719 494.171875 383.53125 493.601562 383.703125 493.039062 C 383.875 492.472656 384.070312 491.917969 384.296875 491.375 C 384.523438 490.828125 384.773438 490.296875 385.050781 489.777344 C 385.332031 489.257812 385.632812 488.753906 385.960938 488.261719 C 386.289062 487.773438 386.640625 487.300781 387.011719 486.84375 C 387.386719 486.386719 387.78125 485.953125 388.199219 485.535156 C 388.617188 485.117188 389.050781 484.722656 389.507812 484.347656 C 389.964844 483.972656 390.4375 483.625 390.925781 483.296875 C 391.417969 482.96875 391.921875 482.664062 392.441406 482.386719 C 392.960938 482.109375 393.492188 481.859375 394.039062 481.632812 C 394.582031 481.40625 395.136719 481.207031 395.703125 481.039062 C 396.265625 480.867188 396.835938 480.722656 397.414062 480.609375 C 397.992188 480.492188 398.574219 480.40625 399.164062 480.347656 C 399.75 480.292969 400.335938 480.261719 400.925781 480.261719 Z M 400.925781 480.261719 " fill-opacity="1" fill-rule="nonzero"/><path fill="#ebe1d8" d="M 527.511719 385.699219 L 538.453125 385.699219 C 539.042969 385.699219 539.632812 385.730469 540.21875 385.785156 C 540.804688 385.84375 541.386719 385.929688 541.964844 386.046875 C 542.542969 386.160156 543.117188 386.304688 543.679688 386.476562 C 544.242188 386.644531 544.796875 386.84375 545.34375 387.070312 C 545.886719 387.296875 546.417969 387.546875 546.941406 387.824219 C 547.460938 388.101562 547.964844 388.40625 548.453125 388.734375 C 548.945312 389.0625 549.417969 389.410156 549.875 389.785156 C 550.328125 390.160156 550.765625 390.554688 551.183594 390.972656 C 551.597656 391.390625 551.996094 391.824219 552.367188 392.28125 C 552.742188 392.738281 553.09375 393.210938 553.421875 393.699219 C 553.75 394.191406 554.050781 394.695312 554.328125 395.214844 C 554.605469 395.734375 554.859375 396.265625 555.085938 396.8125 C 555.308594 397.355469 555.507812 397.910156 555.679688 398.476562 C 555.851562 399.039062 555.992188 399.609375 556.109375 400.1875 C 556.222656 400.765625 556.308594 401.347656 556.367188 401.9375 C 556.425781 402.523438 556.453125 403.109375 556.453125 403.699219 C 556.453125 404.289062 556.425781 404.878906 556.367188 405.464844 C 556.308594 406.050781 556.222656 406.632812 556.109375 407.210938 C 555.992188 407.789062 555.851562 408.359375 555.679688 408.925781 C 555.507812 409.488281 555.308594 410.042969 555.085938 410.589844 C 554.859375 411.132812 554.605469 411.664062 554.328125 412.183594 C 554.050781 412.703125 553.75 413.210938 553.421875 413.699219 C 553.09375 414.191406 552.742188 414.664062 552.367188 415.117188 C 551.996094 415.574219 551.597656 416.011719 551.183594 416.429688 C 550.765625 416.84375 550.328125 417.238281 549.875 417.613281 C 549.417969 417.988281 548.945312 418.339844 548.453125 418.667969 C 547.964844 418.992188 547.460938 419.296875 546.941406 419.574219 C 546.417969 419.851562 545.886719 420.105469 545.34375 420.328125 C 544.796875 420.554688 544.242188 420.753906 543.679688 420.925781 C 543.117188 421.097656 542.542969 421.238281 541.964844 421.355469 C 541.386719 421.46875 540.804688 421.554688 540.21875 421.613281 C 539.632812 421.671875 539.042969 421.699219 538.453125 421.699219 L 527.511719 421.699219 C 526.921875 421.699219 526.335938 421.671875 525.75 421.613281 C 525.160156 421.554688 524.578125 421.46875 524 421.355469 C 523.421875 421.238281 522.851562 421.097656 522.289062 420.925781 C 521.722656 420.753906 521.167969 420.554688 520.625 420.328125 C 520.082031 420.105469 519.546875 419.851562 519.027344 419.574219 C 518.507812 419.296875 518.003906 418.992188 517.511719 418.667969 C 517.023438 418.339844 516.550781 417.988281 516.09375 417.613281 C 515.636719 417.238281 515.203125 416.84375 514.785156 416.429688 C 514.367188 416.011719 513.972656 415.574219 513.597656 415.117188 C 513.226562 414.664062 512.875 414.191406 512.546875 413.699219 C 512.21875 413.210938 511.917969 412.703125 511.636719 412.183594 C 511.359375 411.664062 511.109375 411.132812 510.882812 410.589844 C 510.65625 410.042969 510.460938 409.488281 510.289062 408.925781 C 510.117188 408.359375 509.972656 407.789062 509.859375 407.210938 C 509.742188 406.632812 509.65625 406.050781 509.601562 405.464844 C 509.542969 404.878906 509.511719 404.289062 509.511719 403.699219 C 509.511719 403.109375 509.542969 402.523438 509.601562 401.9375 C 509.65625 401.347656 509.742188 400.765625 509.859375 400.1875 C 509.972656 399.609375 510.117188 399.039062 510.289062 398.476562 C 510.460938 397.910156 510.65625 397.355469 510.882812 396.8125 C 511.109375 396.265625 511.359375 395.734375 511.636719 395.214844 C 511.917969 394.695312 512.21875 394.191406 512.546875 393.699219 C 512.875 393.210938 513.226562 392.738281 513.597656 392.28125 C 513.972656 391.824219 514.367188 391.390625 514.785156 390.972656 C 515.203125 390.554688 515.636719 390.160156 516.09375 389.785156 C 516.550781 389.410156 517.023438 389.0625 517.511719 388.734375 C 518.003906 388.40625 518.507812 388.101562 519.027344 387.824219 C 519.546875 387.546875 520.082031 387.296875 520.625 387.070312 C 521.167969 386.84375 521.722656 386.644531 522.289062 386.476562 C 522.851562 386.304688 523.421875 386.160156 524 386.046875 C 524.578125 385.929688 525.160156 385.84375 525.75 385.785156 C 526.335938 385.730469 526.921875 385.699219 527.511719 385.699219 Z M 527.511719 385.699219 " fill-opacity="1" fill-rule="nonzero"/><path fill="#ebe1d8" d="M 472.828125 480.25 L 487.484375 480.25 C 488.074219 480.25 488.664062 480.277344 489.25 480.335938 C 489.835938 480.394531 490.417969 480.480469 490.996094 480.59375 C 491.574219 480.710938 492.148438 480.851562 492.710938 481.023438 C 493.273438 481.195312 493.828125 481.394531 494.375 481.617188 C 494.917969 481.84375 495.449219 482.09375 495.972656 482.375 C 496.492188 482.652344 496.996094 482.953125 497.484375 483.28125 C 497.976562 483.609375 498.449219 483.960938 498.90625 484.332031 C 499.359375 484.707031 499.796875 485.101562 500.214844 485.519531 C 500.628906 485.9375 501.027344 486.375 501.398438 486.828125 C 501.773438 487.285156 502.125 487.757812 502.453125 488.246094 C 502.78125 488.738281 503.082031 489.242188 503.359375 489.761719 C 503.636719 490.28125 503.890625 490.816406 504.117188 491.359375 C 504.339844 491.90625 504.539062 492.457031 504.710938 493.023438 C 504.882812 493.585938 505.023438 494.160156 505.140625 494.738281 C 505.253906 495.316406 505.339844 495.898438 505.398438 496.484375 C 505.457031 497.070312 505.484375 497.660156 505.484375 498.25 C 505.484375 498.835938 505.457031 499.425781 505.398438 500.011719 C 505.339844 500.597656 505.253906 501.179688 505.140625 501.757812 C 505.023438 502.339844 504.882812 502.910156 504.710938 503.472656 C 504.539062 504.039062 504.339844 504.589844 504.117188 505.136719 C 503.890625 505.679688 503.636719 506.214844 503.359375 506.734375 C 503.082031 507.253906 502.78125 507.757812 502.453125 508.25 C 502.125 508.738281 501.773438 509.210938 501.398438 509.667969 C 501.027344 510.121094 500.628906 510.558594 500.214844 510.976562 C 499.796875 511.394531 499.359375 511.789062 498.90625 512.164062 C 498.449219 512.535156 497.976562 512.886719 497.484375 513.214844 C 496.996094 513.542969 496.492188 513.84375 495.972656 514.121094 C 495.449219 514.402344 494.917969 514.652344 494.375 514.878906 C 493.828125 515.105469 493.273438 515.300781 492.710938 515.472656 C 492.148438 515.644531 491.574219 515.789062 490.996094 515.902344 C 490.417969 516.015625 489.835938 516.105469 489.25 516.160156 C 488.664062 516.21875 488.074219 516.25 487.484375 516.25 L 472.828125 516.25 C 472.238281 516.25 471.648438 516.21875 471.0625 516.160156 C 470.476562 516.105469 469.894531 516.015625 469.316406 515.902344 C 468.738281 515.789062 468.167969 515.644531 467.601562 515.472656 C 467.039062 515.300781 466.484375 515.105469 465.9375 514.878906 C 465.394531 514.652344 464.863281 514.402344 464.34375 514.121094 C 463.824219 513.84375 463.316406 513.542969 462.828125 513.214844 C 462.335938 512.886719 461.863281 512.535156 461.410156 512.164062 C 460.953125 511.789062 460.515625 511.394531 460.101562 510.976562 C 459.683594 510.558594 459.289062 510.121094 458.914062 509.667969 C 458.539062 509.210938 458.1875 508.738281 457.859375 508.25 C 457.535156 507.757812 457.230469 507.253906 456.953125 506.734375 C 456.675781 506.214844 456.421875 505.679688 456.199219 505.136719 C 455.972656 504.589844 455.773438 504.039062 455.601562 503.472656 C 455.429688 502.910156 455.289062 502.339844 455.171875 501.757812 C 455.058594 501.179688 454.972656 500.597656 454.914062 500.011719 C 454.855469 499.425781 454.828125 498.835938 454.828125 498.25 C 454.828125 497.660156 454.855469 497.070312 454.914062 496.484375 C 454.972656 495.898438 455.058594 495.316406 455.171875 494.738281 C 455.289062 494.160156 455.429688 493.585938 455.601562 493.023438 C 455.773438 492.457031 455.972656 491.90625 456.199219 491.359375 C 456.421875 490.816406 456.675781 490.28125 456.953125 489.761719 C 457.230469 489.242188 457.535156 488.738281 457.859375 488.246094 C 458.1875 487.757812 458.539062 487.285156 458.914062 486.828125 C 459.289062 486.375 459.683594 485.9375 460.101562 485.519531 C 460.515625 485.101562 460.953125 484.707031 461.410156 484.332031 C 461.863281 483.960938 462.335938 483.609375 462.828125 483.28125 C 463.316406 482.953125 463.824219 482.652344 464.34375 482.375 C 464.863281 482.09375 465.394531 481.84375 465.9375 481.617188 C 466.484375 481.394531 467.039062 481.195312 467.601562 481.023438 C 468.167969 480.851562 468.738281 480.710938 469.316406 480.59375 C 469.894531 480.480469 470.476562 480.394531 471.0625 480.335938 C 471.648438 480.277344 472.238281 480.25 472.828125 480.25 Z M 472.828125 480.25 " fill-opacity="1" fill-rule="nonzero"/><path fill="#e45258" d="M 527.511719 480.261719 L 538.453125 480.261719 C 539.042969 480.261719 539.632812 480.292969 540.21875 480.347656 C 540.804688 480.40625 541.386719 480.492188 541.964844 480.609375 C 542.542969 480.722656 543.117188 480.867188 543.679688 481.039062 C 544.242188 481.207031 544.796875 481.40625 545.34375 481.632812 C 545.886719 481.859375 546.417969 482.109375 546.941406 482.386719 C 547.460938 482.664062 547.964844 482.96875 548.453125 483.296875 C 548.945312 483.625 549.417969 483.972656 549.875 484.347656 C 550.328125 484.722656 550.765625 485.117188 551.183594 485.535156 C 551.597656 485.953125 551.996094 486.386719 552.367188 486.84375 C 552.742188 487.300781 553.09375 487.773438 553.421875 488.261719 C 553.75 488.753906 554.050781 489.257812 554.328125 489.777344 C 554.605469 490.296875 554.859375 490.828125 555.085938 491.375 C 555.308594 491.917969 555.507812 492.472656 555.679688 493.039062 C 555.851562 493.601562 555.992188 494.171875 556.109375 494.75 C 556.222656 495.328125 556.308594 495.910156 556.367188 496.5 C 556.425781 497.085938 556.453125 497.671875 556.453125 498.261719 C 556.453125 498.851562 556.425781 499.441406 556.367188 500.027344 C 556.308594 500.613281 556.222656 501.195312 556.109375 501.773438 C 555.992188 502.351562 555.851562 502.921875 555.679688 503.488281 C 555.507812 504.050781 555.308594 504.605469 555.085938 505.152344 C 554.859375 505.695312 554.605469 506.226562 554.328125 506.746094 C 554.050781 507.265625 553.75 507.773438 553.421875 508.261719 C 553.09375 508.753906 552.742188 509.226562 552.367188 509.679688 C 551.996094 510.136719 551.597656 510.574219 551.183594 510.992188 C 550.765625 511.40625 550.328125 511.800781 549.875 512.175781 C 549.417969 512.550781 548.945312 512.902344 548.453125 513.230469 C 547.964844 513.554688 547.460938 513.859375 546.941406 514.136719 C 546.417969 514.414062 545.886719 514.667969 545.34375 514.890625 C 544.796875 515.117188 544.242188 515.316406 543.679688 515.488281 C 543.117188 515.660156 542.542969 515.800781 541.964844 515.917969 C 541.386719 516.03125 540.804688 516.117188 540.21875 516.175781 C 539.632812 516.234375 539.042969 516.261719 538.453125 516.261719 L 527.511719 516.261719 C 526.921875 516.261719 526.335938 516.234375 525.75 516.175781 C 525.160156 516.117188 524.578125 516.03125 524 515.917969 C 523.421875 515.800781 522.851562 515.660156 522.289062 515.488281 C 521.722656 515.316406 521.167969 515.117188 520.625 514.890625 C 520.082031 514.667969 519.546875 514.414062 519.027344 514.136719 C 518.507812 513.859375 518.003906 513.554688 517.511719 513.230469 C 517.023438 512.902344 516.550781 512.550781 516.09375 512.175781 C 515.636719 511.800781 515.203125 511.40625 514.785156 510.992188 C 514.367188 510.574219 513.972656 510.136719 513.597656 509.679688 C 513.226562 509.226562 512.875 508.753906 512.546875 508.261719 C 512.21875 507.773438 511.917969 507.265625 511.636719 506.746094 C 511.359375 506.226562 511.109375 505.695312 510.882812 505.152344 C 510.65625 504.605469 510.460938 504.050781 510.289062 503.488281 C 510.117188 502.921875 509.972656 502.351562 509.859375 501.773438 C 509.742188 501.195312 509.65625 500.613281 509.601562 500.027344 C 509.542969 499.441406 509.511719 498.851562 509.511719 498.261719 C 509.511719 497.671875 509.542969 497.085938 509.601562 496.5 C 509.65625 495.910156 509.742188 495.328125 509.859375 494.75 C 509.972656 494.171875 510.117188 493.601562 510.289062 493.039062 C 510.460938 492.472656 510.65625 491.917969 510.882812 491.375 C 511.109375 490.828125 511.359375 490.296875 511.636719 489.777344 C 511.917969 489.257812 512.21875 488.753906 512.546875 488.261719 C 512.875 487.773438 513.226562 487.300781 513.597656 486.84375 C 513.972656 486.386719 514.367188 485.953125 514.785156 485.535156 C 515.203125 485.117188 515.636719 484.722656 516.09375 484.347656 C 516.550781 483.972656 517.023438 483.625 517.511719 483.296875 C 518.003906 482.96875 518.507812 482.664062 519.027344 482.386719 C 519.546875 482.109375 520.082031 481.859375 520.625 481.632812 C 521.167969 481.40625 521.722656 481.207031 522.289062 481.039062 C 522.851562 480.867188 523.421875 480.722656 524 480.609375 C 524.578125 480.492188 525.160156 480.40625 525.75 480.347656 C 526.335938 480.292969 526.921875 480.261719 527.511719 480.261719 Z M 527.511719 480.261719 " fill-opacity="1" fill-rule="nonzero"/><path fill="#ebe1d8" d="M 400.925781 530.25 L 432.808594 530.25 C 433.398438 530.25 433.984375 530.277344 434.574219 530.335938 C 435.160156 530.394531 435.742188 530.480469 436.320312 530.59375 C 436.898438 530.710938 437.46875 530.855469 438.035156 531.023438 C 438.597656 531.195312 439.152344 531.394531 439.695312 531.621094 C 440.242188 531.84375 440.773438 532.097656 441.292969 532.375 C 441.8125 532.652344 442.316406 532.957031 442.808594 533.285156 C 443.296875 533.609375 443.773438 533.960938 444.226562 534.335938 C 444.683594 534.710938 445.121094 535.105469 445.535156 535.523438 C 445.953125 535.9375 446.347656 536.375 446.722656 536.832031 C 447.097656 537.285156 447.445312 537.757812 447.773438 538.25 C 448.101562 538.738281 448.40625 539.246094 448.683594 539.765625 C 448.960938 540.285156 449.210938 540.816406 449.4375 541.363281 C 449.664062 541.90625 449.863281 542.460938 450.03125 543.023438 C 450.203125 543.589844 450.347656 544.160156 450.460938 544.738281 C 450.578125 545.316406 450.664062 545.898438 450.722656 546.484375 C 450.78125 547.070312 450.808594 547.660156 450.808594 548.25 C 450.808594 548.839844 450.78125 549.425781 450.722656 550.015625 C 450.664062 550.601562 450.578125 551.183594 450.460938 551.761719 C 450.347656 552.339844 450.203125 552.910156 450.03125 553.476562 C 449.863281 554.039062 449.664062 554.59375 449.4375 555.136719 C 449.210938 555.683594 448.960938 556.214844 448.683594 556.734375 C 448.40625 557.253906 448.101562 557.761719 447.773438 558.25 C 447.445312 558.738281 447.097656 559.214844 446.722656 559.667969 C 446.347656 560.125 445.953125 560.5625 445.535156 560.976562 C 445.121094 561.394531 444.683594 561.789062 444.226562 562.164062 C 443.773438 562.539062 443.296875 562.886719 442.808594 563.214844 C 442.316406 563.542969 441.8125 563.847656 441.292969 564.125 C 440.773438 564.402344 440.242188 564.652344 439.695312 564.878906 C 439.152344 565.105469 438.597656 565.304688 438.035156 565.476562 C 437.46875 565.644531 436.898438 565.789062 436.320312 565.902344 C 435.742188 566.019531 435.160156 566.105469 434.574219 566.164062 C 433.984375 566.222656 433.398438 566.25 432.808594 566.25 L 400.925781 566.25 C 400.335938 566.25 399.75 566.222656 399.164062 566.164062 C 398.574219 566.105469 397.992188 566.019531 397.414062 565.902344 C 396.835938 565.789062 396.265625 565.644531 395.703125 565.476562 C 395.136719 565.304688 394.582031 565.105469 394.039062 564.878906 C 393.492188 564.652344 392.960938 564.402344 392.441406 564.125 C 391.921875 563.847656 391.417969 563.542969 390.925781 563.214844 C 390.4375 562.886719 389.964844 562.539062 389.507812 562.164062 C 389.050781 561.789062 388.617188 561.394531 388.199219 560.976562 C 387.78125 560.5625 387.386719 560.125 387.011719 559.667969 C 386.640625 559.214844 386.289062 558.738281 385.960938 558.25 C 385.632812 557.761719 385.332031 557.253906 385.050781 556.734375 C 384.773438 556.214844 384.523438 555.683594 384.296875 555.136719 C 384.070312 554.59375 383.875 554.039062 383.703125 553.476562 C 383.53125 552.910156 383.386719 552.339844 383.273438 551.761719 C 383.15625 551.183594 383.070312 550.601562 383.011719 550.015625 C 382.957031 549.425781 382.925781 548.839844 382.925781 548.25 C 382.925781 547.660156 382.957031 547.070312 383.011719 546.484375 C 383.070312 545.898438 383.15625 545.316406 383.273438 544.738281 C 383.386719 544.160156 383.53125 543.589844 383.703125 543.023438 C 383.875 542.460938 384.070312 541.90625 384.296875 541.363281 C 384.523438 540.816406 384.773438 540.285156 385.050781 539.765625 C 385.332031 539.246094 385.632812 538.738281 385.960938 538.25 C 386.289062 537.757812 386.640625 537.285156 387.011719 536.832031 C 387.386719 536.375 387.78125 535.9375 388.199219 535.523438 C 388.617188 535.105469 389.050781 534.710938 389.507812 534.335938 C 389.964844 533.960938 390.4375 533.609375 390.925781 533.285156 C 391.417969 532.957031 391.921875 532.652344 392.441406 532.375 C 392.960938 532.097656 393.492188 531.84375 394.039062 531.621094 C 394.582031 531.394531 395.136719 531.195312 395.703125 531.023438 C 396.265625 530.855469 396.835938 530.710938 397.414062 530.59375 C 397.992188 530.480469 398.574219 530.394531 399.164062 530.335938 C 399.75 530.277344 400.335938 530.25 400.925781 530.25 Z M 400.925781 530.25 " fill-opacity="1" fill-rule="nonzero"/><path fill="#ebe1d8" d="M 325.746094 548.375 L 325.203125 407.042969 C 325.199219 406.453125 325.226562 405.863281 325.28125 405.277344 C 325.339844 404.691406 325.421875 404.109375 325.535156 403.53125 C 325.648438 402.949219 325.789062 402.378906 325.957031 401.8125 C 326.128906 401.25 326.324219 400.695312 326.546875 400.148438 C 326.769531 399.601562 327.019531 399.070312 327.296875 398.550781 C 327.570312 398.027344 327.871094 397.523438 328.199219 397.03125 C 328.523438 396.539062 328.871094 396.066406 329.246094 395.609375 C 329.617188 395.152344 330.011719 394.710938 330.425781 394.292969 C 330.839844 393.875 331.277344 393.480469 331.730469 393.101562 C 332.183594 392.726562 332.65625 392.375 333.144531 392.046875 C 333.632812 391.714844 334.136719 391.410156 334.65625 391.132812 C 335.175781 390.851562 335.707031 390.597656 336.25 390.371094 C 336.792969 390.140625 337.347656 389.941406 337.910156 389.769531 C 338.476562 389.59375 339.046875 389.449219 339.625 389.332031 C 340.203125 389.214844 340.785156 389.125 341.371094 389.066406 C 341.957031 389.007812 342.542969 388.976562 343.132812 388.972656 C 343.722656 388.972656 344.3125 388.996094 344.898438 389.054688 C 345.484375 389.109375 346.066406 389.191406 346.648438 389.304688 C 347.226562 389.417969 347.796875 389.558594 348.363281 389.726562 C 348.925781 389.898438 349.480469 390.09375 350.027344 390.316406 C 350.574219 390.539062 351.105469 390.789062 351.628906 391.066406 C 352.148438 391.34375 352.652344 391.644531 353.144531 391.96875 C 353.636719 392.292969 354.113281 392.644531 354.570312 393.015625 C 355.027344 393.386719 355.464844 393.78125 355.882812 394.195312 C 356.300781 394.613281 356.699219 395.046875 357.074219 395.5 C 357.449219 395.957031 357.800781 396.425781 358.132812 396.914062 C 358.460938 397.40625 358.765625 397.910156 359.042969 398.425781 C 359.324219 398.945312 359.578125 399.476562 359.804688 400.019531 C 360.035156 400.566406 360.234375 401.117188 360.40625 401.683594 C 360.582031 402.246094 360.726562 402.816406 360.84375 403.394531 C 360.960938 403.972656 361.050781 404.554688 361.109375 405.140625 C 361.167969 405.726562 361.199219 406.316406 361.203125 406.902344 L 361.746094 548.234375 C 361.746094 548.824219 361.722656 549.414062 361.664062 550 C 361.609375 550.585938 361.527344 551.171875 361.414062 551.75 C 361.300781 552.328125 361.160156 552.898438 360.992188 553.464844 C 360.820312 554.027344 360.625 554.582031 360.402344 555.128906 C 360.179688 555.675781 359.929688 556.207031 359.652344 556.730469 C 359.375 557.25 359.074219 557.757812 358.75 558.246094 C 358.425781 558.738281 358.074219 559.214844 357.703125 559.671875 C 357.332031 560.128906 356.9375 560.566406 356.523438 560.984375 C 356.105469 561.402344 355.671875 561.800781 355.21875 562.175781 C 354.765625 562.550781 354.292969 562.902344 353.804688 563.234375 C 353.316406 563.5625 352.8125 563.867188 352.292969 564.148438 C 351.773438 564.425781 351.242188 564.679688 350.699219 564.910156 C 350.152344 565.136719 349.601562 565.335938 349.035156 565.507812 C 348.472656 565.683594 347.902344 565.828125 347.324219 565.945312 C 346.746094 566.0625 346.164062 566.152344 345.578125 566.210938 C 344.992188 566.269531 344.40625 566.300781 343.816406 566.304688 C 343.226562 566.308594 342.636719 566.28125 342.050781 566.226562 C 341.464844 566.167969 340.878906 566.085938 340.300781 565.972656 C 339.722656 565.859375 339.152344 565.71875 338.585938 565.550781 C 338.023438 565.382812 337.46875 565.183594 336.921875 564.960938 C 336.375 564.738281 335.84375 564.488281 335.320312 564.210938 C 334.800781 563.9375 334.292969 563.636719 333.804688 563.308594 C 333.3125 562.984375 332.835938 562.636719 332.378906 562.261719 C 331.921875 561.890625 331.484375 561.496094 331.066406 561.082031 C 330.648438 560.667969 330.25 560.230469 329.875 559.777344 C 329.5 559.324219 329.148438 558.851562 328.816406 558.363281 C 328.488281 557.875 328.183594 557.371094 327.902344 556.851562 C 327.625 556.332031 327.371094 555.800781 327.140625 555.257812 C 326.914062 554.714844 326.714844 554.160156 326.539062 553.597656 C 326.367188 553.03125 326.222656 552.460938 326.105469 551.882812 C 325.988281 551.304688 325.898438 550.722656 325.839844 550.136719 C 325.777344 549.550781 325.75 548.964844 325.746094 548.375 Z M 325.746094 548.375 " fill-opacity="1" fill-rule="nonzero"/><path fill="#ebe1d8" d="M 342.464844 568.949219 L 286.375 568.578125 C 285.785156 568.574219 285.199219 568.542969 284.613281 568.480469 C 284.023438 568.417969 283.445312 568.328125 282.867188 568.210938 C 282.289062 568.089844 281.71875 567.945312 281.15625 567.769531 C 280.59375 567.59375 280.039062 567.390625 279.496094 567.164062 C 278.953125 566.933594 278.421875 566.679688 277.90625 566.398438 C 277.386719 566.117188 276.882812 565.808594 276.394531 565.480469 C 275.90625 565.148438 275.4375 564.792969 274.984375 564.417969 C 274.53125 564.039062 274.097656 563.640625 273.683594 563.222656 C 273.269531 562.804688 272.875 562.363281 272.503906 561.90625 C 272.132812 561.449219 271.785156 560.972656 271.460938 560.480469 C 271.136719 559.988281 270.839844 559.480469 270.5625 558.957031 C 270.289062 558.4375 270.042969 557.902344 269.820312 557.355469 C 269.597656 556.8125 269.402344 556.253906 269.234375 555.691406 C 269.066406 555.125 268.929688 554.550781 268.816406 553.972656 C 268.707031 553.394531 268.625 552.8125 268.570312 552.226562 C 268.515625 551.636719 268.492188 551.050781 268.496094 550.460938 C 268.5 549.871094 268.53125 549.28125 268.59375 548.695312 C 268.65625 548.109375 268.746094 547.527344 268.863281 546.949219 C 268.980469 546.375 269.128906 545.804688 269.304688 545.238281 C 269.480469 544.675781 269.679688 544.125 269.910156 543.582031 C 270.140625 543.039062 270.394531 542.507812 270.675781 541.988281 C 270.957031 541.472656 271.261719 540.96875 271.59375 540.480469 C 271.925781 539.992188 272.277344 539.519531 272.65625 539.066406 C 273.03125 538.613281 273.429688 538.179688 273.851562 537.765625 C 274.269531 537.351562 274.707031 536.960938 275.167969 536.589844 C 275.625 536.21875 276.101562 535.871094 276.59375 535.546875 C 277.085938 535.222656 277.59375 534.921875 278.113281 534.648438 C 278.636719 534.375 279.167969 534.125 279.714844 533.902344 C 280.261719 533.683594 280.816406 533.488281 281.382812 533.320312 C 281.949219 533.152344 282.519531 533.011719 283.097656 532.902344 C 283.679688 532.789062 284.261719 532.707031 284.847656 532.652344 C 285.433594 532.601562 286.023438 532.574219 286.613281 532.578125 L 342.699219 532.949219 C 343.289062 532.953125 343.878906 532.984375 344.464844 533.046875 C 345.050781 533.109375 345.632812 533.199219 346.210938 533.316406 C 346.789062 533.4375 347.359375 533.582031 347.921875 533.757812 C 348.484375 533.933594 349.035156 534.136719 349.578125 534.363281 C 350.125 534.59375 350.652344 534.847656 351.171875 535.128906 C 351.691406 535.410156 352.191406 535.71875 352.679688 536.046875 C 353.167969 536.378906 353.640625 536.734375 354.09375 537.109375 C 354.546875 537.488281 354.980469 537.886719 355.394531 538.304688 C 355.808594 538.722656 356.199219 539.164062 356.570312 539.621094 C 356.941406 540.078125 357.289062 540.554688 357.613281 541.046875 C 357.9375 541.539062 358.238281 542.046875 358.511719 542.570312 C 358.785156 543.089844 359.035156 543.625 359.257812 544.171875 C 359.480469 544.714844 359.671875 545.273438 359.839844 545.835938 C 360.007812 546.402344 360.148438 546.972656 360.257812 547.554688 C 360.371094 548.132812 360.453125 548.714844 360.507812 549.300781 C 360.5625 549.890625 360.585938 550.476562 360.582031 551.066406 C 360.578125 551.65625 360.546875 552.246094 360.484375 552.832031 C 360.421875 553.417969 360.332031 554 360.210938 554.578125 C 360.09375 555.152344 359.945312 555.722656 359.773438 556.289062 C 359.597656 556.851562 359.394531 557.402344 359.167969 557.945312 C 358.9375 558.488281 358.683594 559.019531 358.398438 559.539062 C 358.117188 560.054688 357.8125 560.558594 357.480469 561.046875 C 357.152344 561.535156 356.796875 562.007812 356.421875 562.460938 C 356.042969 562.914062 355.644531 563.347656 355.226562 563.761719 C 354.804688 564.175781 354.367188 564.566406 353.910156 564.9375 C 353.449219 565.308594 352.976562 565.65625 352.484375 565.980469 C 351.992188 566.304688 351.484375 566.605469 350.960938 566.878906 C 350.441406 567.152344 349.90625 567.402344 349.359375 567.625 C 348.8125 567.84375 348.257812 568.039062 347.695312 568.207031 C 347.128906 568.375 346.554688 568.515625 345.976562 568.625 C 345.398438 568.738281 344.816406 568.820312 344.226562 568.875 C 343.640625 568.925781 343.054688 568.953125 342.464844 568.949219 Z M 342.464844 568.949219 " fill-opacity="1" fill-rule="nonzero"/><path fill="#ebe1d8" d="M 343.441406 218.332031 L 207.84375 217.09375 C 207.253906 217.089844 206.667969 217.054688 206.082031 216.992188 C 205.496094 216.929688 204.914062 216.839844 204.335938 216.71875 C 203.757812 216.597656 203.1875 216.449219 202.625 216.273438 C 202.0625 216.097656 201.511719 215.894531 200.96875 215.664062 C 200.425781 215.433594 199.898438 215.175781 199.378906 214.894531 C 198.863281 214.609375 198.359375 214.304688 197.871094 213.972656 C 197.386719 213.640625 196.914062 213.285156 196.464844 212.90625 C 196.011719 212.527344 195.578125 212.128906 195.164062 211.707031 C 194.753906 211.285156 194.359375 210.847656 193.992188 210.386719 C 193.621094 209.929688 193.273438 209.453125 192.953125 208.960938 C 192.628906 208.464844 192.332031 207.957031 192.058594 207.4375 C 191.785156 206.914062 191.539062 206.378906 191.316406 205.832031 C 191.097656 205.285156 190.902344 204.730469 190.738281 204.164062 C 190.570312 203.597656 190.433594 203.027344 190.324219 202.445312 C 190.214844 201.867188 190.132812 201.285156 190.078125 200.699219 C 190.027344 200.109375 190.003906 199.523438 190.007812 198.933594 C 190.015625 198.34375 190.050781 197.753906 190.113281 197.167969 C 190.175781 196.582031 190.265625 196 190.386719 195.425781 C 190.507812 194.847656 190.65625 194.277344 190.832031 193.714844 C 191.007812 193.152344 191.210938 192.597656 191.441406 192.058594 C 191.671875 191.515625 191.929688 190.984375 192.210938 190.46875 C 192.496094 189.949219 192.800781 189.445312 193.132812 188.960938 C 193.464844 188.472656 193.820312 188.003906 194.199219 187.550781 C 194.578125 187.097656 194.976562 186.664062 195.398438 186.253906 C 195.816406 185.839844 196.257812 185.449219 196.714844 185.078125 C 197.175781 184.707031 197.652344 184.363281 198.144531 184.039062 C 198.636719 183.714844 199.144531 183.417969 199.667969 183.144531 C 200.191406 182.871094 200.726562 182.625 201.273438 182.40625 C 201.820312 182.183594 202.375 181.992188 202.941406 181.824219 C 203.507812 181.660156 204.078125 181.519531 204.65625 181.410156 C 205.238281 181.300781 205.820312 181.21875 206.40625 181.167969 C 206.996094 181.113281 207.582031 181.089844 208.171875 181.097656 L 343.769531 182.332031 C 344.359375 182.335938 344.949219 182.371094 345.535156 182.433594 C 346.121094 182.496094 346.703125 182.589844 347.277344 182.710938 C 347.855469 182.828125 348.425781 182.976562 348.988281 183.15625 C 349.550781 183.332031 350.105469 183.535156 350.644531 183.765625 C 351.1875 183.996094 351.71875 184.25 352.238281 184.535156 C 352.753906 184.816406 353.257812 185.125 353.742188 185.457031 C 354.230469 185.789062 354.699219 186.144531 355.152344 186.523438 C 355.605469 186.898438 356.039062 187.300781 356.449219 187.71875 C 356.863281 188.140625 357.253906 188.582031 357.625 189.039062 C 357.996094 189.5 358.339844 189.972656 358.664062 190.46875 C 358.988281 190.960938 359.285156 191.46875 359.558594 191.992188 C 359.832031 192.511719 360.078125 193.046875 360.300781 193.59375 C 360.519531 194.140625 360.710938 194.699219 360.878906 195.261719 C 361.042969 195.828125 361.183594 196.402344 361.292969 196.980469 C 361.402344 197.558594 361.484375 198.144531 361.535156 198.730469 C 361.589844 199.316406 361.613281 199.90625 361.605469 200.496094 C 361.601562 201.085938 361.566406 201.671875 361.503906 202.257812 C 361.441406 202.84375 361.347656 203.425781 361.226562 204.003906 C 361.109375 204.582031 360.960938 205.148438 360.785156 205.714844 C 360.605469 206.277344 360.402344 206.828125 360.171875 207.371094 C 359.941406 207.914062 359.6875 208.441406 359.402344 208.960938 C 359.121094 209.476562 358.8125 209.980469 358.480469 210.46875 C 358.148438 210.953125 357.792969 211.425781 357.417969 211.875 C 357.039062 212.328125 356.640625 212.761719 356.21875 213.175781 C 355.796875 213.585938 355.359375 213.980469 354.898438 214.347656 C 354.441406 214.71875 353.964844 215.066406 353.46875 215.386719 C 352.976562 215.710938 352.46875 216.007812 351.945312 216.28125 C 351.425781 216.554688 350.890625 216.800781 350.34375 217.023438 C 349.796875 217.242188 349.242188 217.4375 348.675781 217.601562 C 348.109375 217.769531 347.535156 217.90625 346.957031 218.015625 C 346.378906 218.125 345.796875 218.207031 345.207031 218.261719 C 344.621094 218.3125 344.03125 218.335938 343.441406 218.332031 Z M 343.441406 218.332031 " fill-opacity="1" fill-rule="nonzero"/><path fill="#ebe1d8" d="M 326.84375 247.117188 L 326.84375 200.949219 C 326.84375 200.359375 326.871094 199.773438 326.929688 199.183594 C 326.988281 198.597656 327.074219 198.015625 327.1875 197.4375 C 327.304688 196.859375 327.445312 196.289062 327.617188 195.722656 C 327.789062 195.160156 327.988281 194.605469 328.210938 194.0625 C 328.4375 193.515625 328.6875 192.984375 328.96875 192.464844 C 329.246094 191.945312 329.546875 191.4375 329.875 190.949219 C 330.203125 190.460938 330.554688 189.984375 330.929688 189.53125 C 331.300781 189.074219 331.695312 188.636719 332.113281 188.222656 C 332.53125 187.804688 332.96875 187.410156 333.421875 187.035156 C 333.878906 186.660156 334.351562 186.308594 334.839844 185.984375 C 335.332031 185.65625 335.835938 185.351562 336.355469 185.074219 C 336.875 184.796875 337.410156 184.546875 337.953125 184.320312 C 338.5 184.09375 339.050781 183.894531 339.617188 183.722656 C 340.179688 183.554688 340.753906 183.410156 341.332031 183.296875 C 341.910156 183.179688 342.492188 183.09375 343.078125 183.035156 C 343.664062 182.976562 344.253906 182.949219 344.84375 182.949219 C 345.429688 182.949219 346.019531 182.976562 346.605469 183.035156 C 347.191406 183.09375 347.773438 183.179688 348.355469 183.296875 C 348.933594 183.410156 349.503906 183.554688 350.066406 183.722656 C 350.632812 183.894531 351.1875 184.09375 351.730469 184.320312 C 352.273438 184.546875 352.808594 184.796875 353.328125 185.074219 C 353.847656 185.351562 354.351562 185.65625 354.84375 185.984375 C 355.332031 186.308594 355.804688 186.660156 356.261719 187.035156 C 356.714844 187.410156 357.152344 187.804688 357.570312 188.222656 C 357.988281 188.636719 358.382812 189.074219 358.757812 189.53125 C 359.128906 189.984375 359.480469 190.460938 359.808594 190.949219 C 360.136719 191.4375 360.4375 191.945312 360.714844 192.464844 C 360.996094 192.984375 361.246094 193.515625 361.472656 194.0625 C 361.699219 194.605469 361.894531 195.160156 362.066406 195.722656 C 362.238281 196.289062 362.382812 196.859375 362.496094 197.4375 C 362.609375 198.015625 362.699219 198.597656 362.753906 199.183594 C 362.8125 199.773438 362.84375 200.359375 362.84375 200.949219 L 362.84375 247.117188 C 362.84375 247.703125 362.8125 248.292969 362.753906 248.878906 C 362.699219 249.464844 362.609375 250.046875 362.496094 250.628906 C 362.382812 251.207031 362.238281 251.777344 362.066406 252.339844 C 361.894531 252.90625 361.699219 253.460938 361.472656 254.003906 C 361.246094 254.546875 360.996094 255.082031 360.714844 255.601562 C 360.4375 256.121094 360.136719 256.625 359.808594 257.117188 C 359.480469 257.605469 359.128906 258.078125 358.757812 258.535156 C 358.382812 258.988281 357.988281 259.425781 357.570312 259.84375 C 357.152344 260.261719 356.714844 260.65625 356.261719 261.03125 C 355.804688 261.402344 355.332031 261.753906 354.84375 262.082031 C 354.351562 262.410156 353.847656 262.710938 353.328125 262.988281 C 352.808594 263.269531 352.273438 263.519531 351.730469 263.746094 C 351.1875 263.972656 350.632812 264.167969 350.066406 264.339844 C 349.503906 264.511719 348.933594 264.65625 348.355469 264.769531 C 347.773438 264.882812 347.191406 264.972656 346.605469 265.027344 C 346.019531 265.085938 345.429688 265.117188 344.84375 265.117188 C 344.253906 265.117188 343.664062 265.085938 343.078125 265.027344 C 342.492188 264.972656 341.910156 264.882812 341.332031 264.769531 C 340.753906 264.65625 340.179688 264.511719 339.617188 264.339844 C 339.050781 264.167969 338.5 263.972656 337.953125 263.746094 C 337.410156 263.519531 336.875 263.269531 336.355469 262.988281 C 335.835938 262.710938 335.332031 262.410156 334.839844 262.082031 C 334.351562 261.753906 333.878906 261.402344 333.421875 261.03125 C 332.96875 260.65625 332.53125 260.261719 332.113281 259.84375 C 331.695312 259.425781 331.300781 258.988281 330.929688 258.535156 C 330.554688 258.078125 330.203125 257.605469 329.875 257.117188 C 329.546875 256.625 329.246094 256.121094 328.96875 255.601562 C 328.6875 255.082031 328.4375 254.546875 328.210938 254.003906 C 327.988281 253.460938 327.789062 252.90625 327.617188 252.339844 C 327.445312 251.777344 327.304688 251.207031 327.1875 250.628906 C 327.074219 250.046875 326.988281 249.464844 326.929688 248.878906 C 326.871094 248.292969 326.84375 247.703125 326.84375 247.117188 Z M 326.84375 247.117188 " fill-opacity="1" fill-rule="nonzero"/><path stroke-linecap="round" transform="matrix(-0.75, 0, 0, -0.75, 346.38192, 200.057309)" fill="none" stroke-linejoin="miter" d="M 1.49881 1.498288 L 188.191528 1.498288 " stroke="#e45258" stroke-width="3" stroke-opacity="1" stroke-miterlimit="4"/><path stroke-linecap="round" transform="matrix(0, -0.75, 0.75, 0, 344.045494, 253.228808)" fill="none" stroke-linejoin="miter" d="M 1.497785 1.501842 L 72.612372 1.501842 " stroke="#e45258" stroke-width="3" stroke-opacity="1" stroke-miterlimit="4"/><path stroke-linecap="round" transform="matrix(-0.75, 0, 0, -0.75, 545.4564, 200.804425)" fill="none" stroke-linejoin="miter" d="M 1.499158 1.49965 L 188.191876 1.49965 " stroke="#e45258" stroke-width="3" stroke-opacity="1" stroke-miterlimit="4"/><path stroke-linecap="round" transform="matrix(-0.75, 0, 0, -0.75, 545.4564, 344.922601)" fill="none" stroke-linejoin="miter" d="M 1.499158 1.500968 L 188.191876 1.500968 " stroke="#e45258" stroke-width="3" stroke-opacity="1" stroke-miterlimit="4"/><path stroke-linecap="round" transform="matrix(-0.75, 0, 0, -0.75, 485.690811, 272.722214)" fill="none" stroke-linejoin="miter" d="M 1.499206 1.49941 L 108.50442 1.49941 " stroke="#e45258" stroke-width="3" stroke-opacity="1" stroke-miterlimit="4"/><path stroke-linecap="round" transform="matrix(0.75, 0, 0, 0.75, 204.116287, 343.573832)" fill="none" stroke-linejoin="miter" d="M 1.501201 1.500516 L 188.193918 1.500516 " stroke="#e45258" stroke-width="3" stroke-opacity="1" stroke-miterlimit="4"/><path stroke-linecap="round" transform="matrix(0, 0.75, -0.75, 0, 206.779987, 289.670396)" fill="none" stroke-linejoin="miter" d="M 1.501972 1.498316 L 73.804059 1.498316 " stroke="#e45258" stroke-width="3" stroke-opacity="1" stroke-miterlimit="4"/><path stroke-linecap="round" transform="matrix(0.00091719, 0.749999, -0.749999, 0.00091719, 208.248816, 403.699896)" fill="none" stroke-linejoin="miter" d="M 1.502471 1.50026 L 195.768258 1.498248 " stroke="#e45258" stroke-width="3" stroke-opacity="1" stroke-miterlimit="4"/><path stroke-linecap="round" transform="matrix(-0.75, 0, 0, -0.75, 268.490966, 406.366152)" fill="none" stroke-linejoin="miter" d="M 1.498371 1.49862 L 82.258791 1.49862 " stroke="#e45258" stroke-width="3" stroke-opacity="1" stroke-miterlimit="4"/><path stroke-linecap="round" transform="matrix(0, -0.75, 0.75, 0, 344.044791, 553.191665)" fill="none" stroke-linejoin="miter" d="M 1.500345 1.497571 L 195.771188 1.497571 " stroke="#e45258" stroke-width="3" stroke-opacity="1" stroke-miterlimit="4"/><path stroke-linecap="round" transform="matrix(0.75, 0, 0, 0.75, 281.94459, 550.526825)" fill="none" stroke-linejoin="miter" d="M 1.500964 1.500692 L 84.730135 1.500692 " stroke="#e45258" stroke-width="3" stroke-opacity="1" stroke-miterlimit="4"/><g clip-path="url(#b68c522c38)"><g clip-path="url(#25b1c8f416)"><g transform="matrix(1, 0, 0, 1, 340, 194)"><g clip-path="url(#af7f8ab220)"><g clip-path="url(#03107281e5)"><g clip-path="url(#578ab5bff4)"><path fill="#e45258" d="M 0.429688 0.515625 L 9.261719 0.515625 L 9.261719 9.347656 L 0.429688 9.347656 Z M 0.429688 0.515625 " fill-opacity="1" fill-rule="nonzero"/></g></g></g></g></g></g><g clip-path="url(#5dd09e9f63)"><g clip-path="url(#5e28d1e517)"><g transform="matrix(1, 0, 0, 1, 201, 339)"><g clip-path="url(#2f466c7124)"><g clip-path="url(#779a9f6664)"><g clip-path="url(#30a7c36088)"><path fill="#e45258" d="M 0.261719 0.378906 L 9.09375 0.378906 L 9.09375 9.214844 L 0.261719 9.214844 Z M 0.261719 0.378906 " fill-opacity="1" fill-rule="nonzero"/></g></g></g></g></g></g><g clip-path="url(#43cc559f7a)"><g clip-path="url(#2657d0d9ce)"><g transform="matrix(1, 0, 0, 1, 202, 400)"><g clip-path="url(#fda070e40f)"><g clip-path="url(#d0fb777a48)"><g clip-path="url(#a2e14bb089)"><path fill="#e45258" d="M 0.890625 0.363281 L 9.722656 0.363281 L 9.722656 9.199219 L 0.890625 9.199219 Z M 0.890625 0.363281 " fill-opacity="1" fill-rule="nonzero"/></g></g></g></g></g></g><g clip-path="url(#9eb9a29c52)"><g clip-path="url(#51590a3fbb)"><g transform="matrix(1, 0, 0, 1, 340, 547)"><g clip-path="url(#6ab6c4d074)"><g clip-path="url(#91e2593d1a)"><g clip-path="url(#2878c828c1)"><path fill="#e45258" d="M 0.753906 0.234375 L 9.589844 0.234375 L 9.589844 9.070312 L 0.753906 9.070312 Z M 0.753906 0.234375 " fill-opacity="1" fill-rule="nonzero"/></g></g></g></g></g></g><g clip-path="url(#c4bb42d775)"><g clip-path="url(#36cd6f15d9)"><g transform="matrix(1, 0, 0, 1, 481, 267)"><g clip-path="url(#45e9358bf6)"><g clip-path="url(#a75131710e)"><g clip-path="url(#c159cc91b9)"><path fill="#e45258" d="M 0.277344 0.179688 L 9.109375 0.179688 L 9.109375 9.015625 L 0.277344 9.015625 Z M 0.277344 0.179688 " fill-opacity="1" fill-rule="nonzero"/></g></g></g></g></g></g><g clip-path="url(#aa27cb9c50)"><g clip-path="url(#0890fb969f)"><g transform="matrix(1, 0, 0, 1, 541, 194)"><g clip-path="url(#51bf78499b)"><g clip-path="url(#cb9ff63ff7)"><g clip-path="url(#46b95d345d)"><path fill="#e45258" d="M 0.0429688 0.515625 L 8.878906 0.515625 L 8.878906 9.347656 L 0.0429688 9.347656 Z M 0.0429688 0.515625 " fill-opacity="1" fill-rule="nonzero"/></g></g></g></g></g></g><g clip-path="url(#d85b3fec13)"><g clip-path="url(#867aaec045)"><g transform="matrix(1, 0, 0, 1, 541, 339)"><g clip-path="url(#2fafa190b9)"><g clip-path="url(#d7f88da4fa)"><g clip-path="url(#3cd144643e)"><path fill="#e45258" d="M 0.0429688 0.378906 L 8.878906 0.378906 L 8.878906 9.214844 L 0.0429688 9.214844 Z M 0.0429688 0.378906 " fill-opacity="1" fill-rule="nonzero"/></g></g></g></g></g></g></svg>